# topologicpy The version that you are using (0.9.43) is OLDER than the latest version (0.9.57) from PyPI. Please consider upgrading to the latest version.
mtllib example.mtl

g F_1_6
v 21.96 -1.4 12.0
v 25.62 -1.4 12.0
v 25.62 -9.82 12.0
v 21.96 -9.82 12.0
v 25.62 -1.4 18.0
v 21.96 -1.4 18.0
v 25.62 -9.82 18.0
v 21.96 -9.82 18.0
usemtl color_000
f 1 2 3 4
f 1 2 5 6
f 2 3 7 5
f 3 4 8 7
f 4 1 6 8
f 6 5 7 8
g box_0_4
v 14.64 9.82 6.0
v 18.3 9.82 6.0
v 18.3 1.4 6.0
v 14.64 1.4 6.0
v 18.3 9.82 9.0
v 14.64 9.82 9.0
v 18.3 1.4 9.0
v 14.64 1.4 9.0
usemtl color_001
f 9 10 11 12
f 9 10 13 14
f 10 11 15 13
f 11 12 16 15
f 12 9 14 16
f 14 13 15 16
g K_0_5
v 18.3 9.82 6.0
v 21.96 9.82 6.0
v 21.96 1.4 6.0
v 18.3 1.4 6.0
v 21.96 9.82 12.0
v 18.3 9.82 12.0
v 21.96 1.4 12.0
v 18.3 1.4 12.0
usemtl color_002
f 17 18 19 20
f 17 18 21 22
f 18 19 23 21
f 19 20 24 23
f 20 17 22 24
f 22 21 23 24
g stair_E
v 25.62 1.4 0.0
v 29.28 1.4 0.0
v 29.28 -1.4 0.0
v 25.62 -1.4 0.0
v 29.28 1.4 18.0
v 25.62 1.4 18.0
v 29.28 -1.4 18.0
v 25.62 -1.4 18.0
usemtl color_003
f 25 26 27 28
f 25 26 29 30
f 26 27 31 29
f 27 28 32 31
f 28 25 30 32
f 30 29 31 32
g K_0_3
v 10.98 9.82 6.0
v 14.64 9.82 6.0
v 14.64 1.4 6.0
v 10.98 1.4 6.0
v 14.64 9.82 12.0
v 10.98 9.82 12.0
v 14.64 1.4 12.0
v 10.98 1.4 12.0
usemtl color_004
f 33 34 35 36
f 33 34 37 38
f 34 35 39 37
f 35 36 40 39
f 36 33 38 40
f 38 37 39 40
g K_0_1
v 3.66 9.82 6.0
v 7.32 9.82 6.0
v 7.32 1.4 6.0
v 3.66 1.4 6.0
v 7.32 9.82 12.0
v 3.66 9.82 12.0
v 7.32 1.4 12.0
v 3.66 1.4 12.0
usemtl color_005
f 41 42 43 44
f 41 42 45 46
f 42 43 47 45
f 43 44 48 47
f 44 41 46 48
f 46 45 47 48
g box_0_0
v 0.0 9.82 6.0
v 3.66 9.82 6.0
v 3.66 1.4 6.0
v 0.0 1.4 6.0
v 3.66 9.82 9.0
v 0.0 9.82 9.0
v 3.66 1.4 9.0
v 0.0 1.4 9.0
usemtl color_006
f 49 50 51 52
f 49 50 53 54
f 50 51 55 53
f 51 52 56 55
f 52 49 54 56
f 54 53 55 56
g F_0_2
v 7.32 -1.4 3.0
v 10.98 -1.4 3.0
v 10.98 -9.82 3.0
v 7.32 -9.82 3.0
v 10.98 -1.4 9.0
v 7.32 -1.4 9.0
v 10.98 -9.82 9.0
v 7.32 -9.82 9.0
usemtl color_007
f 57 58 59 60
f 57 58 61 62
f 58 59 63 61
f 59 60 64 63
f 60 57 62 64
f 62 61 63 64
g K_1_1
v 3.66 9.82 15.0
v 7.32 9.82 15.0
v 7.32 1.4 15.0
v 3.66 1.4 15.0
v 7.32 9.82 21.0
v 3.66 9.82 21.0
v 7.32 1.4 21.0
v 3.66 1.4 21.0
usemtl color_008
f 65 66 67 68
f 65 66 69 70
f 66 67 71 69
f 67 68 72 71
f 68 65 70 72
f 70 69 71 72
g stair_W
v -3.66 1.4 0.0
v 0.0 1.4 0.0
v 0.0 -1.4 0.0
v -3.66 -1.4 0.0
v 0.0 1.4 18.0
v -3.66 1.4 18.0
v 0.0 -1.4 18.0
v -3.66 -1.4 18.0
usemtl color_009
f 73 74 75 76
f 73 74 77 78
f 74 75 79 77
f 75 76 80 79
f 76 73 78 80
f 78 77 79 80
g K_1_5
v 18.3 9.82 15.0
v 21.96 9.82 15.0
v 21.96 1.4 15.0
v 18.3 1.4 15.0
v 21.96 9.82 21.0
v 18.3 9.82 21.0
v 21.96 1.4 21.0
v 18.3 1.4 21.0
usemtl color_010
f 81 82 83 84
f 81 82 85 86
f 82 83 87 85
f 83 84 88 87
f 84 81 86 88
f 86 85 87 88
g box_1_0
v 0.0 9.82 15.0
v 3.66 9.82 15.0
v 3.66 1.4 15.0
v 0.0 1.4 15.0
v 3.66 9.82 18.0
v 0.0 9.82 18.0
v 3.66 1.4 18.0
v 0.0 1.4 18.0
usemtl color_011
f 89 90 91 92
f 89 90 93 94
f 90 91 95 93
f 91 92 96 95
f 92 89 94 96
f 94 93 95 96
g F_0_6
v 21.96 -1.4 3.0
v 25.62 -1.4 3.0
v 25.62 -9.82 3.0
v 21.96 -9.82 3.0
v 25.62 -1.4 9.0
v 21.96 -1.4 9.0
v 25.62 -9.82 9.0
v 21.96 -9.82 9.0
usemtl color_012
f 97 98 99 100
f 97 98 101 102
f 98 99 103 101
f 99 100 104 103
f 100 97 102 104
f 102 101 103 104
g corridor_1
v 0.0 1.4 15.0
v 25.62 1.4 15.0
v 25.62 -1.4 15.0
v 0.0 -1.4 15.0
v 25.62 1.4 18.0
v 0.0 1.4 18.0
v 25.62 -1.4 18.0
v 0.0 -1.4 18.0
usemtl color_013
f 105 106 107 108
f 105 106 109 110
f 106 107 111 109
f 107 108 112 111
f 108 105 110 112
f 110 109 111 112
g K_1_3
v 10.98 9.82 15.0
v 14.64 9.82 15.0
v 14.64 1.4 15.0
v 10.98 1.4 15.0
v 14.64 9.82 21.0
v 10.98 9.82 21.0
v 14.64 1.4 21.0
v 10.98 1.4 21.0
usemtl color_014
f 113 114 115 116
f 113 114 117 118
f 114 115 119 117
f 115 116 120 119
f 116 113 118 120
f 118 117 119 120
g entrance
v -3.66 3.9 0.0
v 0.0 3.9 0.0
v 0.0 1.4 0.0
v -3.66 1.4 0.0
v 0.0 3.9 3.0
v -3.66 3.9 3.0
v 0.0 1.4 3.0
v -3.66 1.4 3.0
usemtl color_015
f 121 122 123 124
f 121 122 125 126
f 122 123 127 125
f 123 124 128 127
f 124 121 126 128
f 126 125 127 128
g corridor_0
v 0.0 1.4 6.0
v 25.62 1.4 6.0
v 25.62 -1.4 6.0
v 0.0 -1.4 6.0
v 25.62 1.4 9.0
v 0.0 1.4 9.0
v 25.62 -1.4 9.0
v 0.0 -1.4 9.0
usemtl color_016
f 129 130 131 132
f 129 130 133 134
f 130 131 135 133
f 131 132 136 135
f 132 129 134 136
f 134 133 135 136
g box_1_4
v 14.64 9.82 15.0
v 18.3 9.82 15.0
v 18.3 1.4 15.0
v 14.64 1.4 15.0
v 18.3 9.82 18.0
v 14.64 9.82 18.0
v 18.3 1.4 18.0
v 14.64 1.4 18.0
usemtl color_017
f 137 138 139 140
f 137 138 141 142
f 138 139 143 141
f 139 140 144 143
f 140 137 142 144
f 142 141 143 144
g F_1_2
v 7.32 -1.4 12.0
v 10.98 -1.4 12.0
v 10.98 -9.82 12.0
v 7.32 -9.82 12.0
v 10.98 -1.4 18.0
v 7.32 -1.4 18.0
v 10.98 -9.82 18.0
v 7.32 -9.82 18.0
usemtl color_018
f 145 146 147 148
f 145 146 149 150
f 146 147 151 149
f 147 148 152 151
f 148 145 150 152
f 150 149 151 152