# topologicpy The version that you are using (0.9.57) is OLDER than the latest version (0.9.62) from PyPI. Please consider upgrading to the latest version.
mtllib example.mtl

g corridor_0
v 0.0 1.4 6.0
v 25.62 1.4 6.0
v 25.62 -1.4 6.0
v 0.0 -1.4 6.0
v 25.62 1.4 9.0
v 0.0 1.4 9.0
v 25.62 -1.4 9.0
v 0.0 -1.4 9.0
usemtl color_000
f 1 2 3 4
f 1 2 5 6
f 2 3 7 5
f 3 4 8 7
f 4 1 6 8
f 6 5 7 8
g box_0_0
v 0.0 9.82 6.0
v 3.66 9.82 6.0
v 3.66 1.4 6.0
v 0.0 1.4 6.0
v 3.66 9.82 9.0
v 0.0 9.82 9.0
v 3.66 1.4 9.0
v 0.0 1.4 9.0
usemtl color_001
f 9 10 11 12
f 9 10 13 14
f 10 11 15 13
f 11 12 16 15
f 12 9 14 16
f 14 13 15 16
g room_0_0
v 0.0 14.03 6.0
v 3.66 14.03 6.0
v 3.66 9.82 6.0
v 0.0 9.82 6.0
v 3.66 14.03 9.0
v 0.0 14.03 9.0
v 3.66 9.82 9.0
v 0.0 9.82 9.0
usemtl color_002
f 17 18 19 20
f 17 18 21 22
f 18 19 23 21
f 19 20 24 23
f 20 17 22 24
f 22 21 23 24
g F_0_1
v 3.66 -1.4 3.0
v 7.32 -1.4 3.0
v 7.32 -9.82 3.0
v 3.66 -9.82 3.0
v 7.32 -1.4 9.0
v 3.66 -1.4 9.0
v 7.32 -9.82 9.0
v 3.66 -9.82 9.0
usemtl color_003
f 25 26 27 28
f 25 26 29 30
f 26 27 31 29
f 27 28 32 31
f 28 25 30 32
f 30 29 31 32
g box_0_2
v 7.32 9.82 6.0
v 10.98 9.82 6.0
v 10.98 1.4 6.0
v 7.32 1.4 6.0
v 10.98 9.82 9.0
v 7.32 9.82 9.0
v 10.98 1.4 9.0
v 7.32 1.4 9.0
usemtl color_004
f 33 34 35 36
f 33 34 37 38
f 34 35 39 37
f 35 36 40 39
f 36 33 38 40
f 38 37 39 40
g box_0_3
v 10.98 9.82 6.0
v 14.64 9.82 6.0
v 14.64 1.4 6.0
v 10.98 1.4 6.0
v 14.64 9.82 9.0
v 10.98 9.82 9.0
v 14.64 1.4 9.0
v 10.98 1.4 9.0
usemtl color_005
f 41 42 43 44
f 41 42 45 46
f 42 43 47 45
f 43 44 48 47
f 44 41 46 48
f 46 45 47 48
g box_0_4
v 14.64 9.82 6.0
v 18.3 9.82 6.0
v 18.3 1.4 6.0
v 14.64 1.4 6.0
v 18.3 9.82 9.0
v 14.64 9.82 9.0
v 18.3 1.4 9.0
v 14.64 1.4 9.0
usemtl color_006
f 49 50 51 52
f 49 50 53 54
f 50 51 55 53
f 51 52 56 55
f 52 49 54 56
f 54 53 55 56
g room_0_4
v 14.64 14.03 6.0
v 18.3 14.03 6.0
v 18.3 9.82 6.0
v 14.64 9.82 6.0
v 18.3 14.03 9.0
v 14.64 14.03 9.0
v 18.3 9.82 9.0
v 14.64 9.82 9.0
usemtl color_007
f 57 58 59 60
f 57 58 61 62
f 58 59 63 61
f 59 60 64 63
f 60 57 62 64
f 62 61 63 64
g K_0_5
v 18.3 9.82 6.0
v 21.96 9.82 6.0
v 21.96 1.4 6.0
v 18.3 1.4 6.0
v 21.96 9.82 14.0
v 18.3 9.82 14.0
v 21.96 1.4 14.0
v 18.3 1.4 14.0
usemtl color_008
f 65 66 67 68
f 65 66 69 70
f 66 67 71 69
f 67 68 72 71
f 68 65 70 72
f 70 69 71 72
g F_0_5
v 18.3 -1.4 3.0
v 21.96 -1.4 3.0
v 21.96 -9.82 3.0
v 18.3 -9.82 3.0
v 21.96 -1.4 9.0
v 18.3 -1.4 9.0
v 21.96 -9.82 9.0
v 18.3 -9.82 9.0
usemtl color_009
f 73 74 75 76
f 73 74 77 78
f 74 75 79 77
f 75 76 80 79
f 76 73 78 80
f 78 77 79 80
g box_0_6
v 21.96 9.82 6.0
v 25.62 9.82 6.0
v 25.62 1.4 6.0
v 21.96 1.4 6.0
v 25.62 9.82 9.0
v 21.96 9.82 9.0
v 25.62 1.4 9.0
v 21.96 1.4 9.0
usemtl color_010
f 81 82 83 84
f 81 82 85 86
f 82 83 87 85
f 83 84 88 87
f 84 81 86 88
f 86 85 87 88
g room_0_6
v 21.96 14.03 6.0
v 25.62 14.03 6.0
v 25.62 9.82 6.0
v 21.96 9.82 6.0
v 25.62 14.03 9.0
v 21.96 14.03 9.0
v 25.62 9.82 9.0
v 21.96 9.82 9.0
usemtl color_011
f 89 90 91 92
f 89 90 93 94
f 90 91 95 93
f 91 92 96 95
f 92 89 94 96
f 94 93 95 96
g corridor_1
v 0.0 1.4 15.0
v 25.62 1.4 15.0
v 25.62 -1.4 15.0
v 0.0 -1.4 15.0
v 25.62 1.4 18.0
v 0.0 1.4 18.0
v 25.62 -1.4 18.0
v 0.0 -1.4 18.0
usemtl color_012
f 97 98 99 100
f 97 98 101 102
f 98 99 103 101
f 99 100 104 103
f 100 97 102 104
f 102 101 103 104
g box_1_0
v 0.0 9.82 15.0
v 3.66 9.82 15.0
v 3.66 1.4 15.0
v 0.0 1.4 15.0
v 3.66 9.82 18.0
v 0.0 9.82 18.0
v 3.66 1.4 18.0
v 0.0 1.4 18.0
usemtl color_013
f 105 106 107 108
f 105 106 109 110
f 106 107 111 109
f 107 108 112 111
f 108 105 110 112
f 110 109 111 112
g room_1_0
v 0.0 14.03 15.0
v 3.66 14.03 15.0
v 3.66 9.82 15.0
v 0.0 9.82 15.0
v 3.66 14.03 18.0
v 0.0 14.03 18.0
v 3.66 9.82 18.0
v 0.0 9.82 18.0
usemtl color_014
f 113 114 115 116
f 113 114 117 118
f 114 115 119 117
f 115 116 120 119
f 116 113 118 120
f 118 117 119 120
g F_1_1
v 3.66 -1.4 12.0
v 7.32 -1.4 12.0
v 7.32 -9.82 12.0
v 3.66 -9.82 12.0
v 7.32 -1.4 18.0
v 3.66 -1.4 18.0
v 7.32 -9.82 18.0
v 3.66 -9.82 18.0
usemtl color_015
f 121 122 123 124
f 121 122 125 126
f 122 123 127 125
f 123 124 128 127
f 124 121 126 128
f 126 125 127 128
g box_1_2
v 7.32 9.82 15.0
v 10.98 9.82 15.0
v 10.98 1.4 15.0
v 7.32 1.4 15.0
v 10.98 9.82 18.0
v 7.32 9.82 18.0
v 10.98 1.4 18.0
v 7.32 1.4 18.0
usemtl color_016
f 129 130 131 132
f 129 130 133 134
f 130 131 135 133
f 131 132 136 135
f 132 129 134 136
f 134 133 135 136
g box_1_3
v 10.98 9.82 15.0
v 14.64 9.82 15.0
v 14.64 1.4 15.0
v 10.98 1.4 15.0
v 14.64 9.82 18.0
v 10.98 9.82 18.0
v 14.64 1.4 18.0
v 10.98 1.4 18.0
usemtl color_017
f 137 138 139 140
f 137 138 141 142
f 138 139 143 141
f 139 140 144 143
f 140 137 142 144
f 142 141 143 144
g box_1_4
v 14.64 9.82 15.0
v 18.3 9.82 15.0
v 18.3 1.4 15.0
v 14.64 1.4 15.0
v 18.3 9.82 18.0
v 14.64 9.82 18.0
v 18.3 1.4 18.0
v 14.64 1.4 18.0
usemtl color_018
f 145 146 147 148
f 145 146 149 150
f 146 147 151 149
f 147 148 152 151
f 148 145 150 152
f 150 149 151 152
g room_1_4
v 14.64 14.03 15.0
v 18.3 14.03 15.0
v 18.3 9.82 15.0
v 14.64 9.82 15.0
v 18.3 14.03 18.0
v 14.64 14.03 18.0
v 18.3 9.82 18.0
v 14.64 9.82 18.0
usemtl color_019
f 153 154 155 156
f 153 154 157 158
f 154 155 159 157
f 155 156 160 159
f 156 153 158 160
f 158 157 159 160
g K_1_5
v 18.3 9.82 15.0
v 21.96 9.82 15.0
v 21.96 1.4 15.0
v 18.3 1.4 15.0
v 21.96 9.82 23.0
v 18.3 9.82 23.0
v 21.96 1.4 23.0
v 18.3 1.4 23.0
usemtl color_020
f 161 162 163 164
f 161 162 165 166
f 162 163 167 165
f 163 164 168 167
f 164 161 166 168
f 166 165 167 168
g F_1_5
v 18.3 -1.4 12.0
v 21.96 -1.4 12.0
v 21.96 -9.82 12.0
v 18.3 -9.82 12.0
v 21.96 -1.4 18.0
v 18.3 -1.4 18.0
v 21.96 -9.82 18.0
v 18.3 -9.82 18.0
usemtl color_021
f 169 170 171 172
f 169 170 173 174
f 170 171 175 173
f 171 172 176 175
f 172 169 174 176
f 174 173 175 176
g box_1_6
v 21.96 9.82 15.0
v 25.62 9.82 15.0
v 25.62 1.4 15.0
v 21.96 1.4 15.0
v 25.62 9.82 18.0
v 21.96 9.82 18.0
v 25.62 1.4 18.0
v 21.96 1.4 18.0
usemtl color_022
f 177 178 179 180
f 177 178 181 182
f 178 179 183 181
f 179 180 184 183
f 180 177 182 184
f 182 181 183 184
g room_1_6
v 21.96 14.03 15.0
v 25.62 14.03 15.0
v 25.62 9.82 15.0
v 21.96 9.82 15.0
v 25.62 14.03 18.0
v 21.96 14.03 18.0
v 25.62 9.82 18.0
v 21.96 9.82 18.0
usemtl color_023
f 185 186 187 188
f 185 186 189 190
f 186 187 191 189
f 187 188 192 191
f 188 185 190 192
f 190 189 191 192
g corridor_2
v 0.0 1.4 24.0
v 25.62 1.4 24.0
v 25.62 -1.4 24.0
v 0.0 -1.4 24.0
v 25.62 1.4 27.0
v 0.0 1.4 27.0
v 25.62 -1.4 27.0
v 0.0 -1.4 27.0
usemtl color_024
f 193 194 195 196
f 193 194 197 198
f 194 195 199 197
f 195 196 200 199
f 196 193 198 200
f 198 197 199 200
g box_2_0
v 0.0 9.82 24.0
v 3.66 9.82 24.0
v 3.66 1.4 24.0
v 0.0 1.4 24.0
v 3.66 9.82 27.0
v 0.0 9.82 27.0
v 3.66 1.4 27.0
v 0.0 1.4 27.0
usemtl color_025
f 201 202 203 204
f 201 202 205 206
f 202 203 207 205
f 203 204 208 207
f 204 201 206 208
f 206 205 207 208
g room_2_0
v 0.0 14.03 24.0
v 3.66 14.03 24.0
v 3.66 9.82 24.0
v 0.0 9.82 24.0
v 3.66 14.03 27.0
v 0.0 14.03 27.0
v 3.66 9.82 27.0
v 0.0 9.82 27.0
usemtl color_026
f 209 210 211 212
f 209 210 213 214
f 210 211 215 213
f 211 212 216 215
f 212 209 214 216
f 214 213 215 216
g F_2_1
v 3.66 -1.4 21.0
v 7.32 -1.4 21.0
v 7.32 -9.82 21.0
v 3.66 -9.82 21.0
v 7.32 -1.4 27.0
v 3.66 -1.4 27.0
v 7.32 -9.82 27.0
v 3.66 -9.82 27.0
usemtl color_027
f 217 218 219 220
f 217 218 221 222
f 218 219 223 221
f 219 220 224 223
f 220 217 222 224
f 222 221 223 224
g box_2_2
v 7.32 9.82 24.0
v 10.98 9.82 24.0
v 10.98 1.4 24.0
v 7.32 1.4 24.0
v 10.98 9.82 27.0
v 7.32 9.82 27.0
v 10.98 1.4 27.0
v 7.32 1.4 27.0
usemtl color_028
f 225 226 227 228
f 225 226 229 230
f 226 227 231 229
f 227 228 232 231
f 228 225 230 232
f 230 229 231 232
g box_2_3
v 10.98 9.82 24.0
v 14.64 9.82 24.0
v 14.64 1.4 24.0
v 10.98 1.4 24.0
v 14.64 9.82 27.0
v 10.98 9.82 27.0
v 14.64 1.4 27.0
v 10.98 1.4 27.0
usemtl color_029
f 233 234 235 236
f 233 234 237 238
f 234 235 239 237
f 235 236 240 239
f 236 233 238 240
f 238 237 239 240
g box_2_4
v 14.64 9.82 24.0
v 18.3 9.82 24.0
v 18.3 1.4 24.0
v 14.64 1.4 24.0
v 18.3 9.82 27.0
v 14.64 9.82 27.0
v 18.3 1.4 27.0
v 14.64 1.4 27.0
usemtl color_030
f 241 242 243 244
f 241 242 245 246
f 242 243 247 245
f 243 244 248 247
f 244 241 246 248
f 246 245 247 248
g room_2_4
v 14.64 14.03 24.0
v 18.3 14.03 24.0
v 18.3 9.82 24.0
v 14.64 9.82 24.0
v 18.3 14.03 27.0
v 14.64 14.03 27.0
v 18.3 9.82 27.0
v 14.64 9.82 27.0
usemtl color_031
f 249 250 251 252
f 249 250 253 254
f 250 251 255 253
f 251 252 256 255
f 252 249 254 256
f 254 253 255 256
g K_2_5
v 18.3 9.82 24.0
v 21.96 9.82 24.0
v 21.96 1.4 24.0
v 18.3 1.4 24.0
v 21.96 9.82 32.0
v 18.3 9.82 32.0
v 21.96 1.4 32.0
v 18.3 1.4 32.0
usemtl color_032
f 257 258 259 260
f 257 258 261 262
f 258 259 263 261
f 259 260 264 263
f 260 257 262 264
f 262 261 263 264
g F_2_5
v 18.3 -1.4 21.0
v 21.96 -1.4 21.0
v 21.96 -9.82 21.0
v 18.3 -9.82 21.0
v 21.96 -1.4 27.0
v 18.3 -1.4 27.0
v 21.96 -9.82 27.0
v 18.3 -9.82 27.0
usemtl color_033
f 265 266 267 268
f 265 266 269 270
f 266 267 271 269
f 267 268 272 271
f 268 265 270 272
f 270 269 271 272
g box_2_6
v 21.96 9.82 24.0
v 25.62 9.82 24.0
v 25.62 1.4 24.0
v 21.96 1.4 24.0
v 25.62 9.82 27.0
v 21.96 9.82 27.0
v 25.62 1.4 27.0
v 21.96 1.4 27.0
usemtl color_034
f 273 274 275 276
f 273 274 277 278
f 274 275 279 277
f 275 276 280 279
f 276 273 278 280
f 278 277 279 280
g room_2_6
v 21.96 14.03 24.0
v 25.62 14.03 24.0
v 25.62 9.82 24.0
v 21.96 9.82 24.0
v 25.62 14.03 27.0
v 21.96 14.03 27.0
v 25.62 9.82 27.0
v 21.96 9.82 27.0
usemtl color_035
f 281 282 283 284
f 281 282 285 286
f 282 283 287 285
f 283 284 288 287
f 284 281 286 288
f 286 285 287 288
g stair_W
v -3.66 1.4 0.0
v 0.0 1.4 0.0
v 0.0 -1.4 0.0
v -3.66 -1.4 0.0
v 0.0 1.4 27.0
v -3.66 1.4 27.0
v 0.0 -1.4 27.0
v -3.66 -1.4 27.0
usemtl color_036
f 289 290 291 292
f 289 290 293 294
f 290 291 295 293
f 291 292 296 295
f 292 289 294 296
f 294 293 295 296
g stair_E
v 25.62 1.4 0.0
v 29.28 1.4 0.0
v 29.28 -1.4 0.0
v 25.62 -1.4 0.0
v 29.28 1.4 27.0
v 25.62 1.4 27.0
v 29.28 -1.4 27.0
v 25.62 -1.4 27.0
usemtl color_037
f 297 298 299 300
f 297 298 301 302
f 298 299 303 301
f 299 300 304 303
f 300 297 302 304
f 302 301 303 304
g entrance
v -3.66 3.9 0.0
v 0.0 3.9 0.0
v 0.0 1.4 0.0
v -3.66 1.4 0.0
v 0.0 3.9 3.0
v -3.66 3.9 3.0
v 0.0 1.4 3.0
v -3.66 1.4 3.0
usemtl color_038
f 305 306 307 308
f 305 306 309 310
f 306 307 311 309
f 307 308 312 311
f 308 305 310 312
f 310 309 311 312