# topologicpy The version that you are using (0.9.57) is OLDER than the latest version (0.9.62) from PyPI. Please consider upgrading to the latest version.
mtllib example.mtl

g v0_corridor_0
v 3.66 11.22 6.0
v 18.3 11.22 6.0
v 18.3 8.42 6.0
v 3.66 8.42 6.0
v 18.3 11.22 9.0
v 3.66 11.22 9.0
v 18.3 8.42 9.0
v 3.66 8.42 9.0
usemtl color_000
f 1 2 3 4
f 1 2 5 6
f 2 3 7 5
f 3 4 8 7
f 4 1 6 8
f 6 5 7 8
g v0_box_0_0
v 3.66 19.64 6.0
v 7.32 19.64 6.0
v 7.32 11.22 6.0
v 3.66 11.22 6.0
v 7.32 19.64 9.0
v 3.66 19.64 9.0
v 7.32 11.22 9.0
v 3.66 11.22 9.0
usemtl color_001
f 9 10 11 12
f 9 10 13 14
f 10 11 15 13
f 11 12 16 15
f 12 9 14 16
f 14 13 15 16
g v0_K_0_1
v 7.32 19.64 6.0
v 10.98 19.64 6.0
v 10.98 11.22 6.0
v 7.32 11.22 6.0
v 10.98 19.64 14.0
v 7.32 19.64 14.0
v 10.98 11.22 14.0
v 7.32 11.22 14.0
usemtl color_002
f 17 18 19 20
f 17 18 21 22
f 18 19 23 21
f 19 20 24 23
f 20 17 22 24
f 22 21 23 24
g v0_K_0_2
v 10.98 19.64 6.0
v 14.64 19.64 6.0
v 14.64 11.22 6.0
v 10.98 11.22 6.0
v 14.64 19.64 14.0
v 10.98 19.64 14.0
v 14.64 11.22 14.0
v 10.98 11.22 14.0
usemtl color_003
f 25 26 27 28
f 25 26 29 30
f 26 27 31 29
f 27 28 32 31
f 28 25 30 32
f 30 29 31 32
g v0_F_0_2
v 10.98 8.42 3.0
v 14.64 8.42 3.0
v 14.64 0.0 3.0
v 10.98 0.0 3.0
v 14.64 8.42 9.0
v 10.98 8.42 9.0
v 14.64 0.0 9.0
v 10.98 0.0 9.0
usemtl color_004
f 33 34 35 36
f 33 34 37 38
f 34 35 39 37
f 35 36 40 39
f 36 33 38 40
f 38 37 39 40
g v0_K_0_3
v 14.64 19.64 6.0
v 18.3 19.64 6.0
v 18.3 11.22 6.0
v 14.64 11.22 6.0
v 18.3 19.64 14.0
v 14.64 19.64 14.0
v 18.3 11.22 14.0
v 14.64 11.22 14.0
usemtl color_005
f 41 42 43 44
f 41 42 45 46
f 42 43 47 45
f 43 44 48 47
f 44 41 46 48
f 46 45 47 48
g v0_F_0_3
v 14.64 8.42 3.0
v 18.3 8.42 3.0
v 18.3 0.0 3.0
v 14.64 0.0 3.0
v 18.3 8.42 9.0
v 14.64 8.42 9.0
v 18.3 0.0 9.0
v 14.64 0.0 9.0
usemtl color_006
f 49 50 51 52
f 49 50 53 54
f 50 51 55 53
f 51 52 56 55
f 52 49 54 56
f 54 53 55 56
g v0_stair_W
v 0.0 11.22 0.0
v 3.66 11.22 0.0
v 3.66 8.42 0.0
v 0.0 8.42 0.0
v 3.66 11.22 9.0
v 0.0 11.22 9.0
v 3.66 8.42 9.0
v 0.0 8.42 9.0
usemtl color_007
f 57 58 59 60
f 57 58 61 62
f 58 59 63 61
f 59 60 64 63
f 60 57 62 64
f 62 61 63 64
g v0_stair_E
v 18.3 11.22 0.0
v 21.96 11.22 0.0
v 21.96 8.42 0.0
v 18.3 8.42 0.0
v 21.96 11.22 9.0
v 18.3 11.22 9.0
v 21.96 8.42 9.0
v 18.3 8.42 9.0
usemtl color_008
f 65 66 67 68
f 65 66 69 70
f 66 67 71 69
f 67 68 72 71
f 68 65 70 72
f 70 69 71 72
g v0_entrance
v 0.0 13.72 0.0
v 3.66 13.72 0.0
v 3.66 11.22 0.0
v 0.0 11.22 0.0
v 3.66 13.72 3.0
v 0.0 13.72 3.0
v 3.66 11.22 3.0
v 0.0 11.22 3.0
usemtl color_009
f 73 74 75 76
f 73 74 77 78
f 74 75 79 77
f 75 76 80 79
f 76 73 78 80
f 78 77 79 80
g v1_corridor_0
v 56.6 11.22 6.0
v 82.22 11.22 6.0
v 82.22 8.42 6.0
v 56.6 8.42 6.0
v 82.22 11.22 9.0
v 56.6 11.22 9.0
v 82.22 8.42 9.0
v 56.6 8.42 9.0
usemtl color_010
f 81 82 83 84
f 81 82 85 86
f 82 83 87 85
f 83 84 88 87
f 84 81 86 88
f 86 85 87 88
g v1_F_0_0
v 56.6 8.42 3.0
v 60.26 8.42 3.0
v 60.26 0.0 3.0
v 56.6 0.0 3.0
v 60.26 8.42 9.0
v 56.6 8.42 9.0
v 60.26 0.0 9.0
v 56.6 0.0 9.0
usemtl color_011
f 89 90 91 92
f 89 90 93 94
f 90 91 95 93
f 91 92 96 95
f 92 89 94 96
f 94 93 95 96
g v1_K_0_1
v 60.26 19.64 6.0
v 63.92 19.64 6.0
v 63.92 11.22 6.0
v 60.26 11.22 6.0
v 63.92 19.64 14.0
v 60.26 19.64 14.0
v 63.92 11.22 14.0
v 60.26 11.22 14.0
usemtl color_012
f 97 98 99 100
f 97 98 101 102
f 98 99 103 101
f 99 100 104 103
f 100 97 102 104
f 102 101 103 104
g v1_K_0_2
v 63.92 19.64 6.0
v 67.58 19.64 6.0
v 67.58 11.22 6.0
v 63.92 11.22 6.0
v 67.58 19.64 14.0
v 63.92 19.64 14.0
v 67.58 11.22 14.0
v 63.92 11.22 14.0
usemtl color_013
f 105 106 107 108
f 105 106 109 110
f 106 107 111 109
f 107 108 112 111
f 108 105 110 112
f 110 109 111 112
g v1_F_0_2
v 63.92 8.42 3.0
v 67.58 8.42 3.0
v 67.58 0.0 3.0
v 63.92 0.0 3.0
v 67.58 8.42 9.0
v 63.92 8.42 9.0
v 67.58 0.0 9.0
v 63.92 0.0 9.0
usemtl color_014
f 113 114 115 116
f 113 114 117 118
f 114 115 119 117
f 115 116 120 119
f 116 113 118 120
f 118 117 119 120
g v1_K_0_3
v 67.58 19.64 6.0
v 71.24 19.64 6.0
v 71.24 11.22 6.0
v 67.58 11.22 6.0
v 71.24 19.64 14.0
v 67.58 19.64 14.0
v 71.24 11.22 14.0
v 67.58 11.22 14.0
usemtl color_015
f 121 122 123 124
f 121 122 125 126
f 122 123 127 125
f 123 124 128 127
f 124 121 126 128
f 126 125 127 128
g v1_K_0_4
v 71.24 19.64 6.0
v 74.9 19.64 6.0
v 74.9 11.22 6.0
v 71.24 11.22 6.0
v 74.9 19.64 14.0
v 71.24 19.64 14.0
v 74.9 11.22 14.0
v 71.24 11.22 14.0
usemtl color_016
f 129 130 131 132
f 129 130 133 134
f 130 131 135 133
f 131 132 136 135
f 132 129 134 136
f 134 133 135 136
g v1_F_0_4
v 71.24 8.42 3.0
v 74.9 8.42 3.0
v 74.9 0.0 3.0
v 71.24 0.0 3.0
v 74.9 8.42 9.0
v 71.24 8.42 9.0
v 74.9 0.0 9.0
v 71.24 0.0 9.0
usemtl color_017
f 137 138 139 140
f 137 138 141 142
f 138 139 143 141
f 139 140 144 143
f 140 137 142 144
f 142 141 143 144
g v1_K_0_5
v 74.9 19.64 6.0
v 78.56 19.64 6.0
v 78.56 11.22 6.0
v 74.9 11.22 6.0
v 78.56 19.64 14.0
v 74.9 19.64 14.0
v 78.56 11.22 14.0
v 74.9 11.22 14.0
usemtl color_018
f 145 146 147 148
f 145 146 149 150
f 146 147 151 149
f 147 148 152 151
f 148 145 150 152
f 150 149 151 152
g v1_F_0_5
v 74.9 8.42 3.0
v 78.56 8.42 3.0
v 78.56 0.0 3.0
v 74.9 0.0 3.0
v 78.56 8.42 9.0
v 74.9 8.42 9.0
v 78.56 0.0 9.0
v 74.9 0.0 9.0
usemtl color_019
f 153 154 155 156
f 153 154 157 158
f 154 155 159 157
f 155 156 160 159
f 156 153 158 160
f 158 157 159 160
g v1_box_0_6
v 78.56 19.64 6.0
v 82.22 19.64 6.0
v 82.22 11.22 6.0
v 78.56 11.22 6.0
v 82.22 19.64 9.0
v 78.56 19.64 9.0
v 82.22 11.22 9.0
v 78.56 11.22 9.0
usemtl color_020
f 161 162 163 164
f 161 162 165 166
f 162 163 167 165
f 163 164 168 167
f 164 161 166 168
f 166 165 167 168
g v1_room_0_6
v 78.56 23.85 6.0
v 82.22 23.85 6.0
v 82.22 19.64 6.0
v 78.56 19.64 6.0
v 82.22 23.85 9.0
v 78.56 23.85 9.0
v 82.22 19.64 9.0
v 78.56 19.64 9.0
usemtl color_021
f 169 170 171 172
f 169 170 173 174
f 170 171 175 173
f 171 172 176 175
f 172 169 174 176
f 174 173 175 176
g v1_corridor_1
v 56.6 11.22 15.0
v 82.22 11.22 15.0
v 82.22 8.42 15.0
v 56.6 8.42 15.0
v 82.22 11.22 18.0
v 56.6 11.22 18.0
v 82.22 8.42 18.0
v 56.6 8.42 18.0
usemtl color_022
f 177 178 179 180
f 177 178 181 182
f 178 179 183 181
f 179 180 184 183
f 180 177 182 184
f 182 181 183 184
g v1_F_1_0
v 56.6 8.42 12.0
v 60.26 8.42 12.0
v 60.26 0.0 12.0
v 56.6 0.0 12.0
v 60.26 8.42 18.0
v 56.6 8.42 18.0
v 60.26 0.0 18.0
v 56.6 0.0 18.0
usemtl color_023
f 185 186 187 188
f 185 186 189 190
f 186 187 191 189
f 187 188 192 191
f 188 185 190 192
f 190 189 191 192
g v1_K_1_1
v 60.26 19.64 15.0
v 63.92 19.64 15.0
v 63.92 11.22 15.0
v 60.26 11.22 15.0
v 63.92 19.64 23.0
v 60.26 19.64 23.0
v 63.92 11.22 23.0
v 60.26 11.22 23.0
usemtl color_024
f 193 194 195 196
f 193 194 197 198
f 194 195 199 197
f 195 196 200 199
f 196 193 198 200
f 198 197 199 200
g v1_K_1_2
v 63.92 19.64 15.0
v 67.58 19.64 15.0
v 67.58 11.22 15.0
v 63.92 11.22 15.0
v 67.58 19.64 23.0
v 63.92 19.64 23.0
v 67.58 11.22 23.0
v 63.92 11.22 23.0
usemtl color_025
f 201 202 203 204
f 201 202 205 206
f 202 203 207 205
f 203 204 208 207
f 204 201 206 208
f 206 205 207 208
g v1_F_1_2
v 63.92 8.42 12.0
v 67.58 8.42 12.0
v 67.58 0.0 12.0
v 63.92 0.0 12.0
v 67.58 8.42 18.0
v 63.92 8.42 18.0
v 67.58 0.0 18.0
v 63.92 0.0 18.0
usemtl color_026
f 209 210 211 212
f 209 210 213 214
f 210 211 215 213
f 211 212 216 215
f 212 209 214 216
f 214 213 215 216
g v1_K_1_3
v 67.58 19.64 15.0
v 71.24 19.64 15.0
v 71.24 11.22 15.0
v 67.58 11.22 15.0
v 71.24 19.64 23.0
v 67.58 19.64 23.0
v 71.24 11.22 23.0
v 67.58 11.22 23.0
usemtl color_027
f 217 218 219 220
f 217 218 221 222
f 218 219 223 221
f 219 220 224 223
f 220 217 222 224
f 222 221 223 224
g v1_K_1_4
v 71.24 19.64 15.0
v 74.9 19.64 15.0
v 74.9 11.22 15.0
v 71.24 11.22 15.0
v 74.9 19.64 23.0
v 71.24 19.64 23.0
v 74.9 11.22 23.0
v 71.24 11.22 23.0
usemtl color_028
f 225 226 227 228
f 225 226 229 230
f 226 227 231 229
f 227 228 232 231
f 228 225 230 232
f 230 229 231 232
g v1_F_1_4
v 71.24 8.42 12.0
v 74.9 8.42 12.0
v 74.9 0.0 12.0
v 71.24 0.0 12.0
v 74.9 8.42 18.0
v 71.24 8.42 18.0
v 74.9 0.0 18.0
v 71.24 0.0 18.0
usemtl color_029
f 233 234 235 236
f 233 234 237 238
f 234 235 239 237
f 235 236 240 239
f 236 233 238 240
f 238 237 239 240
g v1_K_1_5
v 74.9 19.64 15.0
v 78.56 19.64 15.0
v 78.56 11.22 15.0
v 74.9 11.22 15.0
v 78.56 19.64 23.0
v 74.9 19.64 23.0
v 78.56 11.22 23.0
v 74.9 11.22 23.0
usemtl color_030
f 241 242 243 244
f 241 242 245 246
f 242 243 247 245
f 243 244 248 247
f 244 241 246 248
f 246 245 247 248
g v1_F_1_5
v 74.9 8.42 12.0
v 78.56 8.42 12.0
v 78.56 0.0 12.0
v 74.9 0.0 12.0
v 78.56 8.42 18.0
v 74.9 8.42 18.0
v 78.56 0.0 18.0
v 74.9 0.0 18.0
usemtl color_031
f 249 250 251 252
f 249 250 253 254
f 250 251 255 253
f 251 252 256 255
f 252 249 254 256
f 254 253 255 256
g v1_box_1_6
v 78.56 19.64 15.0
v 82.22 19.64 15.0
v 82.22 11.22 15.0
v 78.56 11.22 15.0
v 82.22 19.64 18.0
v 78.56 19.64 18.0
v 82.22 11.22 18.0
v 78.56 11.22 18.0
usemtl color_032
f 257 258 259 260
f 257 258 261 262
f 258 259 263 261
f 259 260 264 263
f 260 257 262 264
f 262 261 263 264
g v1_room_1_6
v 78.56 23.85 15.0
v 82.22 23.85 15.0
v 82.22 19.64 15.0
v 78.56 19.64 15.0
v 82.22 23.85 18.0
v 78.56 23.85 18.0
v 82.22 19.64 18.0
v 78.56 19.64 18.0
usemtl color_033
f 265 266 267 268
f 265 266 269 270
f 266 267 271 269
f 267 268 272 271
f 268 265 270 272
f 270 269 271 272
g v1_stair_W
v 52.94 11.22 0.0
v 56.6 11.22 0.0
v 56.6 8.42 0.0
v 52.94 8.42 0.0
v 56.6 11.22 18.0
v 52.94 11.22 18.0
v 56.6 8.42 18.0
v 52.94 8.42 18.0
usemtl color_034
f 273 274 275 276
f 273 274 277 278
f 274 275 279 277
f 275 276 280 279
f 276 273 278 280
f 278 277 279 280
g v1_stair_E
v 82.22 11.22 0.0
v 85.88 11.22 0.0
v 85.88 8.42 0.0
v 82.22 8.42 0.0
v 85.88 11.22 18.0
v 82.22 11.22 18.0
v 85.88 8.42 18.0
v 82.22 8.42 18.0
usemtl color_035
f 281 282 283 284
f 281 282 285 286
f 282 283 287 285
f 283 284 288 287
f 284 281 286 288
f 286 285 287 288
g v1_entrance
v 52.94 13.72 0.0
v 56.6 13.72 0.0
v 56.6 11.22 0.0
v 52.94 11.22 0.0
v 56.6 13.72 3.0
v 52.94 13.72 3.0
v 56.6 11.22 3.0
v 52.94 11.22 3.0
usemtl color_036
f 289 290 291 292
f 289 290 293 294
f 290 291 295 293
f 291 292 296 295
f 292 289 294 296
f 294 293 295 296
g v2_corridor_0
v 109.54 11.22 6.0
v 135.16 11.22 6.0
v 135.16 8.42 6.0
v 109.54 8.42 6.0
v 135.16 11.22 9.0
v 109.54 11.22 9.0
v 135.16 8.42 9.0
v 109.54 8.42 9.0
usemtl color_037
f 297 298 299 300
f 297 298 301 302
f 298 299 303 301
f 299 300 304 303
f 300 297 302 304
f 302 301 303 304
g v2_box_0_0
v 109.54 19.64 6.0
v 113.2 19.64 6.0
v 113.2 11.22 6.0
v 109.54 11.22 6.0
v 113.2 19.64 9.0
v 109.54 19.64 9.0
v 113.2 11.22 9.0
v 109.54 11.22 9.0
usemtl color_038
f 305 306 307 308
f 305 306 309 310
f 306 307 311 309
f 307 308 312 311
f 308 305 310 312
f 310 309 311 312
g v2_F_0_1
v 113.2 8.42 3.0
v 116.86 8.42 3.0
v 116.86 0.0 3.0
v 113.2 0.0 3.0
v 116.86 8.42 9.0
v 113.2 8.42 9.0
v 116.86 0.0 9.0
v 113.2 0.0 9.0
usemtl color_039
f 313 314 315 316
f 313 314 317 318
f 314 315 319 317
f 315 316 320 319
f 316 313 318 320
f 318 317 319 320
g v2_box_0_2
v 116.86 19.64 6.0
v 120.52 19.64 6.0
v 120.52 11.22 6.0
v 116.86 11.22 6.0
v 120.52 19.64 9.0
v 116.86 19.64 9.0
v 120.52 11.22 9.0
v 116.86 11.22 9.0
usemtl color_040
f 321 322 323 324
f 321 322 325 326
f 322 323 327 325
f 323 324 328 327
f 324 321 326 328
f 326 325 327 328
g v2_room_0_2
v 116.86 23.85 6.0
v 120.52 23.85 6.0
v 120.52 19.64 6.0
v 116.86 19.64 6.0
v 120.52 23.85 9.0
v 116.86 23.85 9.0
v 120.52 19.64 9.0
v 116.86 19.64 9.0
usemtl color_041
f 329 330 331 332
f 329 330 333 334
f 330 331 335 333
f 331 332 336 335
f 332 329 334 336
f 334 333 335 336
g v2_K_0_3
v 120.52 19.64 6.0
v 124.18 19.64 6.0
v 124.18 11.22 6.0
v 120.52 11.22 6.0
v 124.18 19.64 14.0
v 120.52 19.64 14.0
v 124.18 11.22 14.0
v 120.52 11.22 14.0
usemtl color_042
f 337 338 339 340
f 337 338 341 342
f 338 339 343 341
f 339 340 344 343
f 340 337 342 344
f 342 341 343 344
g v2_box_0_4
v 124.18 19.64 6.0
v 127.84 19.64 6.0
v 127.84 11.22 6.0
v 124.18 11.22 6.0
v 127.84 19.64 9.0
v 124.18 19.64 9.0
v 127.84 11.22 9.0
v 124.18 11.22 9.0
usemtl color_043
f 345 346 347 348
f 345 346 349 350
f 346 347 351 349
f 347 348 352 351
f 348 345 350 352
f 350 349 351 352
g v2_K_0_5
v 127.84 19.64 6.0
v 131.5 19.64 6.0
v 131.5 11.22 6.0
v 127.84 11.22 6.0
v 131.5 19.64 14.0
v 127.84 19.64 14.0
v 131.5 11.22 14.0
v 127.84 11.22 14.0
usemtl color_044
f 353 354 355 356
f 353 354 357 358
f 354 355 359 357
f 355 356 360 359
f 356 353 358 360
f 358 357 359 360
g v2_K_0_6
v 131.5 19.64 6.0
v 135.16 19.64 6.0
v 135.16 11.22 6.0
v 131.5 11.22 6.0
v 135.16 19.64 14.0
v 131.5 19.64 14.0
v 135.16 11.22 14.0
v 131.5 11.22 14.0
usemtl color_045
f 361 362 363 364
f 361 362 365 366
f 362 363 367 365
f 363 364 368 367
f 364 361 366 368
f 366 365 367 368
g v2_stair_W
v 105.88 11.22 0.0
v 109.54 11.22 0.0
v 109.54 8.42 0.0
v 105.88 8.42 0.0
v 109.54 11.22 9.0
v 105.88 11.22 9.0
v 109.54 8.42 9.0
v 105.88 8.42 9.0
usemtl color_046
f 369 370 371 372
f 369 370 373 374
f 370 371 375 373
f 371 372 376 375
f 372 369 374 376
f 374 373 375 376
g v2_stair_E
v 135.16 11.22 0.0
v 138.82 11.22 0.0
v 138.82 8.42 0.0
v 135.16 8.42 0.0
v 138.82 11.22 9.0
v 135.16 11.22 9.0
v 138.82 8.42 9.0
v 135.16 8.42 9.0
usemtl color_047
f 377 378 379 380
f 377 378 381 382
f 378 379 383 381
f 379 380 384 383
f 380 377 382 384
f 382 381 383 384
g v2_entrance
v 105.88 13.72 0.0
v 109.54 13.72 0.0
v 109.54 11.22 0.0
v 105.88 11.22 0.0
v 109.54 13.72 3.0
v 105.88 13.72 3.0
v 109.54 11.22 3.0
v 105.88 11.22 3.0
usemtl color_048
f 385 386 387 388
f 385 386 389 390
f 386 387 391 389
f 387 388 392 391
f 388 385 390 392
f 390 389 391 392
g v3_corridor_0
v 3.66 55.07 6.0
v 18.3 55.07 6.0
v 18.3 52.27 6.0
v 3.66 52.27 6.0
v 18.3 55.07 9.0
v 3.66 55.07 9.0
v 18.3 52.27 9.0
v 3.66 52.27 9.0
usemtl color_049
f 393 394 395 396
f 393 394 397 398
f 394 395 399 397
f 395 396 400 399
f 396 393 398 400
f 398 397 399 400
g v3_K_0_0
v 3.66 63.49 6.0
v 7.32 63.49 6.0
v 7.32 55.07 6.0
v 3.66 55.07 6.0
v 7.32 63.49 14.0
v 3.66 63.49 14.0
v 7.32 55.07 14.0
v 3.66 55.07 14.0
usemtl color_050
f 401 402 403 404
f 401 402 405 406
f 402 403 407 405
f 403 404 408 407
f 404 401 406 408
f 406 405 407 408
g v3_F_0_0
v 3.66 52.27 3.0
v 7.32 52.27 3.0
v 7.32 43.85 3.0
v 3.66 43.85 3.0
v 7.32 52.27 9.0
v 3.66 52.27 9.0
v 7.32 43.85 9.0
v 3.66 43.85 9.0
usemtl color_051
f 409 410 411 412
f 409 410 413 414
f 410 411 415 413
f 411 412 416 415
f 412 409 414 416
f 414 413 415 416
g v3_F_0_1
v 7.32 52.27 3.0
v 10.98 52.27 3.0
v 10.98 43.85 3.0
v 7.32 43.85 3.0
v 10.98 52.27 9.0
v 7.32 52.27 9.0
v 10.98 43.85 9.0
v 7.32 43.85 9.0
usemtl color_052
f 417 418 419 420
f 417 418 421 422
f 418 419 423 421
f 419 420 424 423
f 420 417 422 424
f 422 421 423 424
g v3_K_0_2
v 10.98 63.49 6.0
v 14.64 63.49 6.0
v 14.64 55.07 6.0
v 10.98 55.07 6.0
v 14.64 63.49 14.0
v 10.98 63.49 14.0
v 14.64 55.07 14.0
v 10.98 55.07 14.0
usemtl color_053
f 425 426 427 428
f 425 426 429 430
f 426 427 431 429
f 427 428 432 431
f 428 425 430 432
f 430 429 431 432
g v3_F_0_2
v 10.98 52.27 3.0
v 14.64 52.27 3.0
v 14.64 43.85 3.0
v 10.98 43.85 3.0
v 14.64 52.27 9.0
v 10.98 52.27 9.0
v 14.64 43.85 9.0
v 10.98 43.85 9.0
usemtl color_054
f 433 434 435 436
f 433 434 437 438
f 434 435 439 437
f 435 436 440 439
f 436 433 438 440
f 438 437 439 440
g v3_K_0_3
v 14.64 63.49 6.0
v 18.3 63.49 6.0
v 18.3 55.07 6.0
v 14.64 55.07 6.0
v 18.3 63.49 14.0
v 14.64 63.49 14.0
v 18.3 55.07 14.0
v 14.64 55.07 14.0
usemtl color_055
f 441 442 443 444
f 441 442 445 446
f 442 443 447 445
f 443 444 448 447
f 444 441 446 448
f 446 445 447 448
g v3_stair_W
v 0.0 55.07 0.0
v 3.66 55.07 0.0
v 3.66 52.27 0.0
v 0.0 52.27 0.0
v 3.66 55.07 9.0
v 0.0 55.07 9.0
v 3.66 52.27 9.0
v 0.0 52.27 9.0
usemtl color_056
f 449 450 451 452
f 449 450 453 454
f 450 451 455 453
f 451 452 456 455
f 452 449 454 456
f 454 453 455 456
g v3_stair_E
v 18.3 55.07 0.0
v 21.96 55.07 0.0
v 21.96 52.27 0.0
v 18.3 52.27 0.0
v 21.96 55.07 9.0
v 18.3 55.07 9.0
v 21.96 52.27 9.0
v 18.3 52.27 9.0
usemtl color_057
f 457 458 459 460
f 457 458 461 462
f 458 459 463 461
f 459 460 464 463
f 460 457 462 464
f 462 461 463 464
g v3_entrance
v 0.0 57.57 0.0
v 3.66 57.57 0.0
v 3.66 55.07 0.0
v 0.0 55.07 0.0
v 3.66 57.57 3.0
v 0.0 57.57 3.0
v 3.66 55.07 3.0
v 0.0 55.07 3.0
usemtl color_058
f 465 466 467 468
f 465 466 469 470
f 466 467 471 469
f 467 468 472 471
f 468 465 470 472
f 470 469 471 472
g v4_corridor_0
v 56.6 55.07 6.0
v 74.9 55.07 6.0
v 74.9 52.27 6.0
v 56.6 52.27 6.0
v 74.9 55.07 9.0
v 56.6 55.07 9.0
v 74.9 52.27 9.0
v 56.6 52.27 9.0
usemtl color_059
f 473 474 475 476
f 473 474 477 478
f 474 475 479 477
f 475 476 480 479
f 476 473 478 480
f 478 477 479 480
g v4_K_0_0
v 56.6 63.49 6.0
v 60.26 63.49 6.0
v 60.26 55.07 6.0
v 56.6 55.07 6.0
v 60.26 63.49 14.0
v 56.6 63.49 14.0
v 60.26 55.07 14.0
v 56.6 55.07 14.0
usemtl color_060
f 481 482 483 484
f 481 482 485 486
f 482 483 487 485
f 483 484 488 487
f 484 481 486 488
f 486 485 487 488
g v4_F_0_0
v 56.6 52.27 3.0
v 60.26 52.27 3.0
v 60.26 43.85 3.0
v 56.6 43.85 3.0
v 60.26 52.27 9.0
v 56.6 52.27 9.0
v 60.26 43.85 9.0
v 56.6 43.85 9.0
usemtl color_061
f 489 490 491 492
f 489 490 493 494
f 490 491 495 493
f 491 492 496 495
f 492 489 494 496
f 494 493 495 496
g v4_K_0_1
v 60.26 63.49 6.0
v 63.92 63.49 6.0
v 63.92 55.07 6.0
v 60.26 55.07 6.0
v 63.92 63.49 14.0
v 60.26 63.49 14.0
v 63.92 55.07 14.0
v 60.26 55.07 14.0
usemtl color_062
f 497 498 499 500
f 497 498 501 502
f 498 499 503 501
f 499 500 504 503
f 500 497 502 504
f 502 501 503 504
g v4_F_0_1
v 60.26 52.27 3.0
v 63.92 52.27 3.0
v 63.92 43.85 3.0
v 60.26 43.85 3.0
v 63.92 52.27 9.0
v 60.26 52.27 9.0
v 63.92 43.85 9.0
v 60.26 43.85 9.0
usemtl color_063
f 505 506 507 508
f 505 506 509 510
f 506 507 511 509
f 507 508 512 511
f 508 505 510 512
f 510 509 511 512
g v4_box_0_2
v 63.92 63.49 6.0
v 67.58 63.49 6.0
v 67.58 55.07 6.0
v 63.92 55.07 6.0
v 67.58 63.49 9.0
v 63.92 63.49 9.0
v 67.58 55.07 9.0
v 63.92 55.07 9.0
usemtl color_064
f 513 514 515 516
f 513 514 517 518
f 514 515 519 517
f 515 516 520 519
f 516 513 518 520
f 518 517 519 520
g v4_room_0_2
v 63.92 67.7 6.0
v 67.58 67.7 6.0
v 67.58 63.49 6.0
v 63.92 63.49 6.0
v 67.58 67.7 9.0
v 63.92 67.7 9.0
v 67.58 63.49 9.0
v 63.92 63.49 9.0
usemtl color_065
f 521 522 523 524
f 521 522 525 526
f 522 523 527 525
f 523 524 528 527
f 524 521 526 528
f 526 525 527 528
g v4_F_0_3
v 67.58 52.27 3.0
v 71.24 52.27 3.0
v 71.24 43.85 3.0
v 67.58 43.85 3.0
v 71.24 52.27 9.0
v 67.58 52.27 9.0
v 71.24 43.85 9.0
v 67.58 43.85 9.0
usemtl color_066
f 529 530 531 532
f 529 530 533 534
f 530 531 535 533
f 531 532 536 535
f 532 529 534 536
f 534 533 535 536
g v4_box_0_4
v 71.24 63.49 6.0
v 74.9 63.49 6.0
v 74.9 55.07 6.0
v 71.24 55.07 6.0
v 74.9 63.49 9.0
v 71.24 63.49 9.0
v 74.9 55.07 9.0
v 71.24 55.07 9.0
usemtl color_067
f 537 538 539 540
f 537 538 541 542
f 538 539 543 541
f 539 540 544 543
f 540 537 542 544
f 542 541 543 544
g v4_corridor_1
v 56.6 55.07 15.0
v 74.9 55.07 15.0
v 74.9 52.27 15.0
v 56.6 52.27 15.0
v 74.9 55.07 18.0
v 56.6 55.07 18.0
v 74.9 52.27 18.0
v 56.6 52.27 18.0
usemtl color_068
f 545 546 547 548
f 545 546 549 550
f 546 547 551 549
f 547 548 552 551
f 548 545 550 552
f 550 549 551 552
g v4_K_1_0
v 56.6 63.49 15.0
v 60.26 63.49 15.0
v 60.26 55.07 15.0
v 56.6 55.07 15.0
v 60.26 63.49 23.0
v 56.6 63.49 23.0
v 60.26 55.07 23.0
v 56.6 55.07 23.0
usemtl color_069
f 553 554 555 556
f 553 554 557 558
f 554 555 559 557
f 555 556 560 559
f 556 553 558 560
f 558 557 559 560
g v4_F_1_0
v 56.6 52.27 12.0
v 60.26 52.27 12.0
v 60.26 43.85 12.0
v 56.6 43.85 12.0
v 60.26 52.27 18.0
v 56.6 52.27 18.0
v 60.26 43.85 18.0
v 56.6 43.85 18.0
usemtl color_070
f 561 562 563 564
f 561 562 565 566
f 562 563 567 565
f 563 564 568 567
f 564 561 566 568
f 566 565 567 568
g v4_K_1_1
v 60.26 63.49 15.0
v 63.92 63.49 15.0
v 63.92 55.07 15.0
v 60.26 55.07 15.0
v 63.92 63.49 23.0
v 60.26 63.49 23.0
v 63.92 55.07 23.0
v 60.26 55.07 23.0
usemtl color_071
f 569 570 571 572
f 569 570 573 574
f 570 571 575 573
f 571 572 576 575
f 572 569 574 576
f 574 573 575 576
g v4_F_1_1
v 60.26 52.27 12.0
v 63.92 52.27 12.0
v 63.92 43.85 12.0
v 60.26 43.85 12.0
v 63.92 52.27 18.0
v 60.26 52.27 18.0
v 63.92 43.85 18.0
v 60.26 43.85 18.0
usemtl color_072
f 577 578 579 580
f 577 578 581 582
f 578 579 583 581
f 579 580 584 583
f 580 577 582 584
f 582 581 583 584
g v4_box_1_2
v 63.92 63.49 15.0
v 67.58 63.49 15.0
v 67.58 55.07 15.0
v 63.92 55.07 15.0
v 67.58 63.49 18.0
v 63.92 63.49 18.0
v 67.58 55.07 18.0
v 63.92 55.07 18.0
usemtl color_073
f 585 586 587 588
f 585 586 589 590
f 586 587 591 589
f 587 588 592 591
f 588 585 590 592
f 590 589 591 592
g v4_room_1_2
v 63.92 67.7 15.0
v 67.58 67.7 15.0
v 67.58 63.49 15.0
v 63.92 63.49 15.0
v 67.58 67.7 18.0
v 63.92 67.7 18.0
v 67.58 63.49 18.0
v 63.92 63.49 18.0
usemtl color_074
f 593 594 595 596
f 593 594 597 598
f 594 595 599 597
f 595 596 600 599
f 596 593 598 600
f 598 597 599 600
g v4_F_1_3
v 67.58 52.27 12.0
v 71.24 52.27 12.0
v 71.24 43.85 12.0
v 67.58 43.85 12.0
v 71.24 52.27 18.0
v 67.58 52.27 18.0
v 71.24 43.85 18.0
v 67.58 43.85 18.0
usemtl color_075
f 601 602 603 604
f 601 602 605 606
f 602 603 607 605
f 603 604 608 607
f 604 601 606 608
f 606 605 607 608
g v4_box_1_4
v 71.24 63.49 15.0
v 74.9 63.49 15.0
v 74.9 55.07 15.0
v 71.24 55.07 15.0
v 74.9 63.49 18.0
v 71.24 63.49 18.0
v 74.9 55.07 18.0
v 71.24 55.07 18.0
usemtl color_076
f 609 610 611 612
f 609 610 613 614
f 610 611 615 613
f 611 612 616 615
f 612 609 614 616
f 614 613 615 616
g v4_corridor_2
v 56.6 55.07 24.0
v 74.9 55.07 24.0
v 74.9 52.27 24.0
v 56.6 52.27 24.0
v 74.9 55.07 27.0
v 56.6 55.07 27.0
v 74.9 52.27 27.0
v 56.6 52.27 27.0
usemtl color_077
f 617 618 619 620
f 617 618 621 622
f 618 619 623 621
f 619 620 624 623
f 620 617 622 624
f 622 621 623 624
g v4_K_2_0
v 56.6 63.49 24.0
v 60.26 63.49 24.0
v 60.26 55.07 24.0
v 56.6 55.07 24.0
v 60.26 63.49 32.0
v 56.6 63.49 32.0
v 60.26 55.07 32.0
v 56.6 55.07 32.0
usemtl color_078
f 625 626 627 628
f 625 626 629 630
f 626 627 631 629
f 627 628 632 631
f 628 625 630 632
f 630 629 631 632
g v4_F_2_0
v 56.6 52.27 21.0
v 60.26 52.27 21.0
v 60.26 43.85 21.0
v 56.6 43.85 21.0
v 60.26 52.27 27.0
v 56.6 52.27 27.0
v 60.26 43.85 27.0
v 56.6 43.85 27.0
usemtl color_079
f 633 634 635 636
f 633 634 637 638
f 634 635 639 637
f 635 636 640 639
f 636 633 638 640
f 638 637 639 640
g v4_K_2_1
v 60.26 63.49 24.0
v 63.92 63.49 24.0
v 63.92 55.07 24.0
v 60.26 55.07 24.0
v 63.92 63.49 32.0
v 60.26 63.49 32.0
v 63.92 55.07 32.0
v 60.26 55.07 32.0
usemtl color_080
f 641 642 643 644
f 641 642 645 646
f 642 643 647 645
f 643 644 648 647
f 644 641 646 648
f 646 645 647 648
g v4_F_2_1
v 60.26 52.27 21.0
v 63.92 52.27 21.0
v 63.92 43.85 21.0
v 60.26 43.85 21.0
v 63.92 52.27 27.0
v 60.26 52.27 27.0
v 63.92 43.85 27.0
v 60.26 43.85 27.0
usemtl color_081
f 649 650 651 652
f 649 650 653 654
f 650 651 655 653
f 651 652 656 655
f 652 649 654 656
f 654 653 655 656
g v4_box_2_2
v 63.92 63.49 24.0
v 67.58 63.49 24.0
v 67.58 55.07 24.0
v 63.92 55.07 24.0
v 67.58 63.49 27.0
v 63.92 63.49 27.0
v 67.58 55.07 27.0
v 63.92 55.07 27.0
usemtl color_082
f 657 658 659 660
f 657 658 661 662
f 658 659 663 661
f 659 660 664 663
f 660 657 662 664
f 662 661 663 664
g v4_room_2_2
v 63.92 67.7 24.0
v 67.58 67.7 24.0
v 67.58 63.49 24.0
v 63.92 63.49 24.0
v 67.58 67.7 27.0
v 63.92 67.7 27.0
v 67.58 63.49 27.0
v 63.92 63.49 27.0
usemtl color_083
f 665 666 667 668
f 665 666 669 670
f 666 667 671 669
f 667 668 672 671
f 668 665 670 672
f 670 669 671 672
g v4_F_2_3
v 67.58 52.27 21.0
v 71.24 52.27 21.0
v 71.24 43.85 21.0
v 67.58 43.85 21.0
v 71.24 52.27 27.0
v 67.58 52.27 27.0
v 71.24 43.85 27.0
v 67.58 43.85 27.0
usemtl color_084
f 673 674 675 676
f 673 674 677 678
f 674 675 679 677
f 675 676 680 679
f 676 673 678 680
f 678 677 679 680
g v4_box_2_4
v 71.24 63.49 24.0
v 74.9 63.49 24.0
v 74.9 55.07 24.0
v 71.24 55.07 24.0
v 74.9 63.49 27.0
v 71.24 63.49 27.0
v 74.9 55.07 27.0
v 71.24 55.07 27.0
usemtl color_085
f 681 682 683 684
f 681 682 685 686
f 682 683 687 685
f 683 684 688 687
f 684 681 686 688
f 686 685 687 688
g v4_stair_W
v 52.94 55.07 0.0
v 56.6 55.07 0.0
v 56.6 52.27 0.0
v 52.94 52.27 0.0
v 56.6 55.07 27.0
v 52.94 55.07 27.0
v 56.6 52.27 27.0
v 52.94 52.27 27.0
usemtl color_086
f 689 690 691 692
f 689 690 693 694
f 690 691 695 693
f 691 692 696 695
f 692 689 694 696
f 694 693 695 696
g v4_stair_E
v 74.9 55.07 0.0
v 78.56 55.07 0.0
v 78.56 52.27 0.0
v 74.9 52.27 0.0
v 78.56 55.07 27.0
v 74.9 55.07 27.0
v 78.56 52.27 27.0
v 74.9 52.27 27.0
usemtl color_087
f 697 698 699 700
f 697 698 701 702
f 698 699 703 701
f 699 700 704 703
f 700 697 702 704
f 702 701 703 704
g v4_entrance
v 52.94 57.57 0.0
v 56.6 57.57 0.0
v 56.6 55.07 0.0
v 52.94 55.07 0.0
v 56.6 57.57 3.0
v 52.94 57.57 3.0
v 56.6 55.07 3.0
v 52.94 55.07 3.0
usemtl color_088
f 705 706 707 708
f 705 706 709 710
f 706 707 711 709
f 707 708 712 711
f 708 705 710 712
f 710 709 711 712
g v5_corridor_0
v 109.54 55.07 6.0
v 127.84 55.07 6.0
v 127.84 52.27 6.0
v 109.54 52.27 6.0
v 127.84 55.07 9.0
v 109.54 55.07 9.0
v 127.84 52.27 9.0
v 109.54 52.27 9.0
usemtl color_089
f 713 714 715 716
f 713 714 717 718
f 714 715 719 717
f 715 716 720 719
f 716 713 718 720
f 718 717 719 720
g v5_K_0_0
v 109.54 63.49 6.0
v 113.2 63.49 6.0
v 113.2 55.07 6.0
v 109.54 55.07 6.0
v 113.2 63.49 14.0
v 109.54 63.49 14.0
v 113.2 55.07 14.0
v 109.54 55.07 14.0
usemtl color_090
f 721 722 723 724
f 721 722 725 726
f 722 723 727 725
f 723 724 728 727
f 724 721 726 728
f 726 725 727 728
g v5_F_0_0
v 109.54 52.27 3.0
v 113.2 52.27 3.0
v 113.2 43.85 3.0
v 109.54 43.85 3.0
v 113.2 52.27 9.0
v 109.54 52.27 9.0
v 113.2 43.85 9.0
v 109.54 43.85 9.0
usemtl color_091
f 729 730 731 732
f 729 730 733 734
f 730 731 735 733
f 731 732 736 735
f 732 729 734 736
f 734 733 735 736
g v5_box_0_1
v 113.2 63.49 6.0
v 116.86 63.49 6.0
v 116.86 55.07 6.0
v 113.2 55.07 6.0
v 116.86 63.49 9.0
v 113.2 63.49 9.0
v 116.86 55.07 9.0
v 113.2 55.07 9.0
usemtl color_092
f 737 738 739 740
f 737 738 741 742
f 738 739 743 741
f 739 740 744 743
f 740 737 742 744
f 742 741 743 744
g v5_K_0_2
v 116.86 63.49 6.0
v 120.52 63.49 6.0
v 120.52 55.07 6.0
v 116.86 55.07 6.0
v 120.52 63.49 14.0
v 116.86 63.49 14.0
v 120.52 55.07 14.0
v 116.86 55.07 14.0
usemtl color_093
f 745 746 747 748
f 745 746 749 750
f 746 747 751 749
f 747 748 752 751
f 748 745 750 752
f 750 749 751 752
g v5_K_0_3
v 120.52 63.49 6.0
v 124.18 63.49 6.0
v 124.18 55.07 6.0
v 120.52 55.07 6.0
v 124.18 63.49 14.0
v 120.52 63.49 14.0
v 124.18 55.07 14.0
v 120.52 55.07 14.0
usemtl color_094
f 753 754 755 756
f 753 754 757 758
f 754 755 759 757
f 755 756 760 759
f 756 753 758 760
f 758 757 759 760
g v5_F_0_3
v 120.52 52.27 3.0
v 124.18 52.27 3.0
v 124.18 43.85 3.0
v 120.52 43.85 3.0
v 124.18 52.27 9.0
v 120.52 52.27 9.0
v 124.18 43.85 9.0
v 120.52 43.85 9.0
usemtl color_095
f 761 762 763 764
f 761 762 765 766
f 762 763 767 765
f 763 764 768 767
f 764 761 766 768
f 766 765 767 768
g v5_box_0_4
v 124.18 63.49 6.0
v 127.84 63.49 6.0
v 127.84 55.07 6.0
v 124.18 55.07 6.0
v 127.84 63.49 9.0
v 124.18 63.49 9.0
v 127.84 55.07 9.0
v 124.18 55.07 9.0
usemtl color_096
f 769 770 771 772
f 769 770 773 774
f 770 771 775 773
f 771 772 776 775
f 772 769 774 776
f 774 773 775 776
g v5_room_0_4
v 124.18 67.7 6.0
v 127.84 67.7 6.0
v 127.84 63.49 6.0
v 124.18 63.49 6.0
v 127.84 67.7 9.0
v 124.18 67.7 9.0
v 127.84 63.49 9.0
v 124.18 63.49 9.0
usemtl color_097
f 777 778 779 780
f 777 778 781 782
f 778 779 783 781
f 779 780 784 783
f 780 777 782 784
f 782 781 783 784
g v5_stair_W
v 105.88 55.07 0.0
v 109.54 55.07 0.0
v 109.54 52.27 0.0
v 105.88 52.27 0.0
v 109.54 55.07 9.0
v 105.88 55.07 9.0
v 109.54 52.27 9.0
v 105.88 52.27 9.0
usemtl color_098
f 785 786 787 788
f 785 786 789 790
f 786 787 791 789
f 787 788 792 791
f 788 785 790 792
f 790 789 791 792
g v5_stair_E
v 127.84 55.07 0.0
v 131.5 55.07 0.0
v 131.5 52.27 0.0
v 127.84 52.27 0.0
v 131.5 55.07 9.0
v 127.84 55.07 9.0
v 131.5 52.27 9.0
v 127.84 52.27 9.0
usemtl color_099
f 793 794 795 796
f 793 794 797 798
f 794 795 799 797
f 795 796 800 799
f 796 793 798 800
f 798 797 799 800
g v5_entrance
v 105.88 57.57 0.0
v 109.54 57.57 0.0
v 109.54 55.07 0.0
v 105.88 55.07 0.0
v 109.54 57.57 3.0
v 105.88 57.57 3.0
v 109.54 55.07 3.0
v 105.88 55.07 3.0
usemtl color_100
f 801 802 803 804
f 801 802 805 806
f 802 803 807 805
f 803 804 808 807
f 804 801 806 808
f 806 805 807 808
g v6_corridor_0
v 3.66 98.92 6.0
v 18.3 98.92 6.0
v 18.3 96.12 6.0
v 3.66 96.12 6.0
v 18.3 98.92 9.0
v 3.66 98.92 9.0
v 18.3 96.12 9.0
v 3.66 96.12 9.0
usemtl color_101
f 809 810 811 812
f 809 810 813 814
f 810 811 815 813
f 811 812 816 815
f 812 809 814 816
f 814 813 815 816
g v6_F_0_0
v 3.66 96.12 3.0
v 7.32 96.12 3.0
v 7.32 87.7 3.0
v 3.66 87.7 3.0
v 7.32 96.12 9.0
v 3.66 96.12 9.0
v 7.32 87.7 9.0
v 3.66 87.7 9.0
usemtl color_102
f 817 818 819 820
f 817 818 821 822
f 818 819 823 821
f 819 820 824 823
f 820 817 822 824
f 822 821 823 824
g v6_box_0_1
v 7.32 107.34 6.0
v 10.98 107.34 6.0
v 10.98 98.92 6.0
v 7.32 98.92 6.0
v 10.98 107.34 9.0
v 7.32 107.34 9.0
v 10.98 98.92 9.0
v 7.32 98.92 9.0
usemtl color_103
f 825 826 827 828
f 825 826 829 830
f 826 827 831 829
f 827 828 832 831
f 828 825 830 832
f 830 829 831 832
g v6_K_0_2
v 10.98 107.34 6.0
v 14.64 107.34 6.0
v 14.64 98.92 6.0
v 10.98 98.92 6.0
v 14.64 107.34 14.0
v 10.98 107.34 14.0
v 14.64 98.92 14.0
v 10.98 98.92 14.0
usemtl color_104
f 833 834 835 836
f 833 834 837 838
f 834 835 839 837
f 835 836 840 839
f 836 833 838 840
f 838 837 839 840
g v6_box_0_3
v 14.64 107.34 6.0
v 18.3 107.34 6.0
v 18.3 98.92 6.0
v 14.64 98.92 6.0
v 18.3 107.34 9.0
v 14.64 107.34 9.0
v 18.3 98.92 9.0
v 14.64 98.92 9.0
usemtl color_105
f 841 842 843 844
f 841 842 845 846
f 842 843 847 845
f 843 844 848 847
f 844 841 846 848
f 846 845 847 848
g v6_corridor_1
v 3.66 98.92 15.0
v 18.3 98.92 15.0
v 18.3 96.12 15.0
v 3.66 96.12 15.0
v 18.3 98.92 18.0
v 3.66 98.92 18.0
v 18.3 96.12 18.0
v 3.66 96.12 18.0
usemtl color_106
f 849 850 851 852
f 849 850 853 854
f 850 851 855 853
f 851 852 856 855
f 852 849 854 856
f 854 853 855 856
g v6_F_1_0
v 3.66 96.12 12.0
v 7.32 96.12 12.0
v 7.32 87.7 12.0
v 3.66 87.7 12.0
v 7.32 96.12 18.0
v 3.66 96.12 18.0
v 7.32 87.7 18.0
v 3.66 87.7 18.0
usemtl color_107
f 857 858 859 860
f 857 858 861 862
f 858 859 863 861
f 859 860 864 863
f 860 857 862 864
f 862 861 863 864
g v6_box_1_1
v 7.32 107.34 15.0
v 10.98 107.34 15.0
v 10.98 98.92 15.0
v 7.32 98.92 15.0
v 10.98 107.34 18.0
v 7.32 107.34 18.0
v 10.98 98.92 18.0
v 7.32 98.92 18.0
usemtl color_108
f 865 866 867 868
f 865 866 869 870
f 866 867 871 869
f 867 868 872 871
f 868 865 870 872
f 870 869 871 872
g v6_K_1_2
v 10.98 107.34 15.0
v 14.64 107.34 15.0
v 14.64 98.92 15.0
v 10.98 98.92 15.0
v 14.64 107.34 23.0
v 10.98 107.34 23.0
v 14.64 98.92 23.0
v 10.98 98.92 23.0
usemtl color_109
f 873 874 875 876
f 873 874 877 878
f 874 875 879 877
f 875 876 880 879
f 876 873 878 880
f 878 877 879 880
g v6_box_1_3
v 14.64 107.34 15.0
v 18.3 107.34 15.0
v 18.3 98.92 15.0
v 14.64 98.92 15.0
v 18.3 107.34 18.0
v 14.64 107.34 18.0
v 18.3 98.92 18.0
v 14.64 98.92 18.0
usemtl color_110
f 881 882 883 884
f 881 882 885 886
f 882 883 887 885
f 883 884 888 887
f 884 881 886 888
f 886 885 887 888
g v6_corridor_2
v 3.66 98.92 24.0
v 18.3 98.92 24.0
v 18.3 96.12 24.0
v 3.66 96.12 24.0
v 18.3 98.92 27.0
v 3.66 98.92 27.0
v 18.3 96.12 27.0
v 3.66 96.12 27.0
usemtl color_111
f 889 890 891 892
f 889 890 893 894
f 890 891 895 893
f 891 892 896 895
f 892 889 894 896
f 894 893 895 896
g v6_F_2_0
v 3.66 96.12 21.0
v 7.32 96.12 21.0
v 7.32 87.7 21.0
v 3.66 87.7 21.0
v 7.32 96.12 27.0
v 3.66 96.12 27.0
v 7.32 87.7 27.0
v 3.66 87.7 27.0
usemtl color_112
f 897 898 899 900
f 897 898 901 902
f 898 899 903 901
f 899 900 904 903
f 900 897 902 904
f 902 901 903 904
g v6_box_2_1
v 7.32 107.34 24.0
v 10.98 107.34 24.0
v 10.98 98.92 24.0
v 7.32 98.92 24.0
v 10.98 107.34 27.0
v 7.32 107.34 27.0
v 10.98 98.92 27.0
v 7.32 98.92 27.0
usemtl color_113
f 905 906 907 908
f 905 906 909 910
f 906 907 911 909
f 907 908 912 911
f 908 905 910 912
f 910 909 911 912
g v6_K_2_2
v 10.98 107.34 24.0
v 14.64 107.34 24.0
v 14.64 98.92 24.0
v 10.98 98.92 24.0
v 14.64 107.34 32.0
v 10.98 107.34 32.0
v 14.64 98.92 32.0
v 10.98 98.92 32.0
usemtl color_114
f 913 914 915 916
f 913 914 917 918
f 914 915 919 917
f 915 916 920 919
f 916 913 918 920
f 918 917 919 920
g v6_box_2_3
v 14.64 107.34 24.0
v 18.3 107.34 24.0
v 18.3 98.92 24.0
v 14.64 98.92 24.0
v 18.3 107.34 27.0
v 14.64 107.34 27.0
v 18.3 98.92 27.0
v 14.64 98.92 27.0
usemtl color_115
f 921 922 923 924
f 921 922 925 926
f 922 923 927 925
f 923 924 928 927
f 924 921 926 928
f 926 925 927 928
g v6_stair_W
v 0.0 98.92 0.0
v 3.66 98.92 0.0
v 3.66 96.12 0.0
v 0.0 96.12 0.0
v 3.66 98.92 27.0
v 0.0 98.92 27.0
v 3.66 96.12 27.0
v 0.0 96.12 27.0
usemtl color_116
f 929 930 931 932
f 929 930 933 934
f 930 931 935 933
f 931 932 936 935
f 932 929 934 936
f 934 933 935 936
g v6_stair_E
v 18.3 98.92 0.0
v 21.96 98.92 0.0
v 21.96 96.12 0.0
v 18.3 96.12 0.0
v 21.96 98.92 27.0
v 18.3 98.92 27.0
v 21.96 96.12 27.0
v 18.3 96.12 27.0
usemtl color_117
f 937 938 939 940
f 937 938 941 942
f 938 939 943 941
f 939 940 944 943
f 940 937 942 944
f 942 941 943 944
g v6_entrance
v 0.0 101.42 0.0
v 3.66 101.42 0.0
v 3.66 98.92 0.0
v 0.0 98.92 0.0
v 3.66 101.42 3.0
v 0.0 101.42 3.0
v 3.66 98.92 3.0
v 0.0 98.92 3.0
usemtl color_118
f 945 946 947 948
f 945 946 949 950
f 946 947 951 949
f 947 948 952 951
f 948 945 950 952
f 950 949 951 952
g v7_corridor_0
v 56.6 98.92 6.0
v 82.22 98.92 6.0
v 82.22 96.12 6.0
v 56.6 96.12 6.0
v 82.22 98.92 9.0
v 56.6 98.92 9.0
v 82.22 96.12 9.0
v 56.6 96.12 9.0
usemtl color_119
f 953 954 955 956
f 953 954 957 958
f 954 955 959 957
f 955 956 960 959
f 956 953 958 960
f 958 957 959 960
g v7_box_0_0
v 56.6 107.34 6.0
v 60.26 107.34 6.0
v 60.26 98.92 6.0
v 56.6 98.92 6.0
v 60.26 107.34 9.0
v 56.6 107.34 9.0
v 60.26 98.92 9.0
v 56.6 98.92 9.0
usemtl color_120
f 961 962 963 964
f 961 962 965 966
f 962 963 967 965
f 963 964 968 967
f 964 961 966 968
f 966 965 967 968
g v7_room_0_0
v 56.6 111.55 6.0
v 60.26 111.55 6.0
v 60.26 107.34 6.0
v 56.6 107.34 6.0
v 60.26 111.55 9.0
v 56.6 111.55 9.0
v 60.26 107.34 9.0
v 56.6 107.34 9.0
usemtl color_121
f 969 970 971 972
f 969 970 973 974
f 970 971 975 973
f 971 972 976 975
f 972 969 974 976
f 974 973 975 976
g v7_F_0_1
v 60.26 96.12 3.0
v 63.92 96.12 3.0
v 63.92 87.7 3.0
v 60.26 87.7 3.0
v 63.92 96.12 9.0
v 60.26 96.12 9.0
v 63.92 87.7 9.0
v 60.26 87.7 9.0
usemtl color_122
f 977 978 979 980
f 977 978 981 982
f 978 979 983 981
f 979 980 984 983
f 980 977 982 984
f 982 981 983 984
g v7_box_0_2
v 63.92 107.34 6.0
v 67.58 107.34 6.0
v 67.58 98.92 6.0
v 63.92 98.92 6.0
v 67.58 107.34 9.0
v 63.92 107.34 9.0
v 67.58 98.92 9.0
v 63.92 98.92 9.0
usemtl color_123
f 985 986 987 988
f 985 986 989 990
f 986 987 991 989
f 987 988 992 991
f 988 985 990 992
f 990 989 991 992
g v7_box_0_3
v 67.58 107.34 6.0
v 71.24 107.34 6.0
v 71.24 98.92 6.0
v 67.58 98.92 6.0
v 71.24 107.34 9.0
v 67.58 107.34 9.0
v 71.24 98.92 9.0
v 67.58 98.92 9.0
usemtl color_124
f 993 994 995 996
f 993 994 997 998
f 994 995 999 997
f 995 996 1000 999
f 996 993 998 1000
f 998 997 999 1000
g v7_box_0_4
v 71.24 107.34 6.0
v 74.9 107.34 6.0
v 74.9 98.92 6.0
v 71.24 98.92 6.0
v 74.9 107.34 9.0
v 71.24 107.34 9.0
v 74.9 98.92 9.0
v 71.24 98.92 9.0
usemtl color_125
f 1001 1002 1003 1004
f 1001 1002 1005 1006
f 1002 1003 1007 1005
f 1003 1004 1008 1007
f 1004 1001 1006 1008
f 1006 1005 1007 1008
g v7_room_0_4
v 71.24 111.55 6.0
v 74.9 111.55 6.0
v 74.9 107.34 6.0
v 71.24 107.34 6.0
v 74.9 111.55 9.0
v 71.24 111.55 9.0
v 74.9 107.34 9.0
v 71.24 107.34 9.0
usemtl color_126
f 1009 1010 1011 1012
f 1009 1010 1013 1014
f 1010 1011 1015 1013
f 1011 1012 1016 1015
f 1012 1009 1014 1016
f 1014 1013 1015 1016
g v7_K_0_5
v 74.9 107.34 6.0
v 78.56 107.34 6.0
v 78.56 98.92 6.0
v 74.9 98.92 6.0
v 78.56 107.34 14.0
v 74.9 107.34 14.0
v 78.56 98.92 14.0
v 74.9 98.92 14.0
usemtl color_127
f 1017 1018 1019 1020
f 1017 1018 1021 1022
f 1018 1019 1023 1021
f 1019 1020 1024 1023
f 1020 1017 1022 1024
f 1022 1021 1023 1024
g v7_F_0_5
v 74.9 96.12 3.0
v 78.56 96.12 3.0
v 78.56 87.7 3.0
v 74.9 87.7 3.0
v 78.56 96.12 9.0
v 74.9 96.12 9.0
v 78.56 87.7 9.0
v 74.9 87.7 9.0
usemtl color_128
f 1025 1026 1027 1028
f 1025 1026 1029 1030
f 1026 1027 1031 1029
f 1027 1028 1032 1031
f 1028 1025 1030 1032
f 1030 1029 1031 1032
g v7_box_0_6
v 78.56 107.34 6.0
v 82.22 107.34 6.0
v 82.22 98.92 6.0
v 78.56 98.92 6.0
v 82.22 107.34 9.0
v 78.56 107.34 9.0
v 82.22 98.92 9.0
v 78.56 98.92 9.0
usemtl color_129
f 1033 1034 1035 1036
f 1033 1034 1037 1038
f 1034 1035 1039 1037
f 1035 1036 1040 1039
f 1036 1033 1038 1040
f 1038 1037 1039 1040
g v7_room_0_6
v 78.56 111.55 6.0
v 82.22 111.55 6.0
v 82.22 107.34 6.0
v 78.56 107.34 6.0
v 82.22 111.55 9.0
v 78.56 111.55 9.0
v 82.22 107.34 9.0
v 78.56 107.34 9.0
usemtl color_130
f 1041 1042 1043 1044
f 1041 1042 1045 1046
f 1042 1043 1047 1045
f 1043 1044 1048 1047
f 1044 1041 1046 1048
f 1046 1045 1047 1048
g v7_corridor_1
v 56.6 98.92 15.0
v 82.22 98.92 15.0
v 82.22 96.12 15.0
v 56.6 96.12 15.0
v 82.22 98.92 18.0
v 56.6 98.92 18.0
v 82.22 96.12 18.0
v 56.6 96.12 18.0
usemtl color_131
f 1049 1050 1051 1052
f 1049 1050 1053 1054
f 1050 1051 1055 1053
f 1051 1052 1056 1055
f 1052 1049 1054 1056
f 1054 1053 1055 1056
g v7_box_1_0
v 56.6 107.34 15.0
v 60.26 107.34 15.0
v 60.26 98.92 15.0
v 56.6 98.92 15.0
v 60.26 107.34 18.0
v 56.6 107.34 18.0
v 60.26 98.92 18.0
v 56.6 98.92 18.0
usemtl color_132
f 1057 1058 1059 1060
f 1057 1058 1061 1062
f 1058 1059 1063 1061
f 1059 1060 1064 1063
f 1060 1057 1062 1064
f 1062 1061 1063 1064
g v7_room_1_0
v 56.6 111.55 15.0
v 60.26 111.55 15.0
v 60.26 107.34 15.0
v 56.6 107.34 15.0
v 60.26 111.55 18.0
v 56.6 111.55 18.0
v 60.26 107.34 18.0
v 56.6 107.34 18.0
usemtl color_133
f 1065 1066 1067 1068
f 1065 1066 1069 1070
f 1066 1067 1071 1069
f 1067 1068 1072 1071
f 1068 1065 1070 1072
f 1070 1069 1071 1072
g v7_F_1_1
v 60.26 96.12 12.0
v 63.92 96.12 12.0
v 63.92 87.7 12.0
v 60.26 87.7 12.0
v 63.92 96.12 18.0
v 60.26 96.12 18.0
v 63.92 87.7 18.0
v 60.26 87.7 18.0
usemtl color_134
f 1073 1074 1075 1076
f 1073 1074 1077 1078
f 1074 1075 1079 1077
f 1075 1076 1080 1079
f 1076 1073 1078 1080
f 1078 1077 1079 1080
g v7_box_1_2
v 63.92 107.34 15.0
v 67.58 107.34 15.0
v 67.58 98.92 15.0
v 63.92 98.92 15.0
v 67.58 107.34 18.0
v 63.92 107.34 18.0
v 67.58 98.92 18.0
v 63.92 98.92 18.0
usemtl color_135
f 1081 1082 1083 1084
f 1081 1082 1085 1086
f 1082 1083 1087 1085
f 1083 1084 1088 1087
f 1084 1081 1086 1088
f 1086 1085 1087 1088
g v7_box_1_3
v 67.58 107.34 15.0
v 71.24 107.34 15.0
v 71.24 98.92 15.0
v 67.58 98.92 15.0
v 71.24 107.34 18.0
v 67.58 107.34 18.0
v 71.24 98.92 18.0
v 67.58 98.92 18.0
usemtl color_136
f 1089 1090 1091 1092
f 1089 1090 1093 1094
f 1090 1091 1095 1093
f 1091 1092 1096 1095
f 1092 1089 1094 1096
f 1094 1093 1095 1096
g v7_box_1_4
v 71.24 107.34 15.0
v 74.9 107.34 15.0
v 74.9 98.92 15.0
v 71.24 98.92 15.0
v 74.9 107.34 18.0
v 71.24 107.34 18.0
v 74.9 98.92 18.0
v 71.24 98.92 18.0
usemtl color_137
f 1097 1098 1099 1100
f 1097 1098 1101 1102
f 1098 1099 1103 1101
f 1099 1100 1104 1103
f 1100 1097 1102 1104
f 1102 1101 1103 1104
g v7_room_1_4
v 71.24 111.55 15.0
v 74.9 111.55 15.0
v 74.9 107.34 15.0
v 71.24 107.34 15.0
v 74.9 111.55 18.0
v 71.24 111.55 18.0
v 74.9 107.34 18.0
v 71.24 107.34 18.0
usemtl color_138
f 1105 1106 1107 1108
f 1105 1106 1109 1110
f 1106 1107 1111 1109
f 1107 1108 1112 1111
f 1108 1105 1110 1112
f 1110 1109 1111 1112
g v7_K_1_5
v 74.9 107.34 15.0
v 78.56 107.34 15.0
v 78.56 98.92 15.0
v 74.9 98.92 15.0
v 78.56 107.34 23.0
v 74.9 107.34 23.0
v 78.56 98.92 23.0
v 74.9 98.92 23.0
usemtl color_139
f 1113 1114 1115 1116
f 1113 1114 1117 1118
f 1114 1115 1119 1117
f 1115 1116 1120 1119
f 1116 1113 1118 1120
f 1118 1117 1119 1120
g v7_F_1_5
v 74.9 96.12 12.0
v 78.56 96.12 12.0
v 78.56 87.7 12.0
v 74.9 87.7 12.0
v 78.56 96.12 18.0
v 74.9 96.12 18.0
v 78.56 87.7 18.0
v 74.9 87.7 18.0
usemtl color_140
f 1121 1122 1123 1124
f 1121 1122 1125 1126
f 1122 1123 1127 1125
f 1123 1124 1128 1127
f 1124 1121 1126 1128
f 1126 1125 1127 1128
g v7_box_1_6
v 78.56 107.34 15.0
v 82.22 107.34 15.0
v 82.22 98.92 15.0
v 78.56 98.92 15.0
v 82.22 107.34 18.0
v 78.56 107.34 18.0
v 82.22 98.92 18.0
v 78.56 98.92 18.0
usemtl color_141
f 1129 1130 1131 1132
f 1129 1130 1133 1134
f 1130 1131 1135 1133
f 1131 1132 1136 1135
f 1132 1129 1134 1136
f 1134 1133 1135 1136
g v7_room_1_6
v 78.56 111.55 15.0
v 82.22 111.55 15.0
v 82.22 107.34 15.0
v 78.56 107.34 15.0
v 82.22 111.55 18.0
v 78.56 111.55 18.0
v 82.22 107.34 18.0
v 78.56 107.34 18.0
usemtl color_142
f 1137 1138 1139 1140
f 1137 1138 1141 1142
f 1138 1139 1143 1141
f 1139 1140 1144 1143
f 1140 1137 1142 1144
f 1142 1141 1143 1144
g v7_corridor_2
v 56.6 98.92 24.0
v 82.22 98.92 24.0
v 82.22 96.12 24.0
v 56.6 96.12 24.0
v 82.22 98.92 27.0
v 56.6 98.92 27.0
v 82.22 96.12 27.0
v 56.6 96.12 27.0
usemtl color_143
f 1145 1146 1147 1148
f 1145 1146 1149 1150
f 1146 1147 1151 1149
f 1147 1148 1152 1151
f 1148 1145 1150 1152
f 1150 1149 1151 1152
g v7_box_2_0
v 56.6 107.34 24.0
v 60.26 107.34 24.0
v 60.26 98.92 24.0
v 56.6 98.92 24.0
v 60.26 107.34 27.0
v 56.6 107.34 27.0
v 60.26 98.92 27.0
v 56.6 98.92 27.0
usemtl color_144
f 1153 1154 1155 1156
f 1153 1154 1157 1158
f 1154 1155 1159 1157
f 1155 1156 1160 1159
f 1156 1153 1158 1160
f 1158 1157 1159 1160
g v7_room_2_0
v 56.6 111.55 24.0
v 60.26 111.55 24.0
v 60.26 107.34 24.0
v 56.6 107.34 24.0
v 60.26 111.55 27.0
v 56.6 111.55 27.0
v 60.26 107.34 27.0
v 56.6 107.34 27.0
usemtl color_145
f 1161 1162 1163 1164
f 1161 1162 1165 1166
f 1162 1163 1167 1165
f 1163 1164 1168 1167
f 1164 1161 1166 1168
f 1166 1165 1167 1168
g v7_F_2_1
v 60.26 96.12 21.0
v 63.92 96.12 21.0
v 63.92 87.7 21.0
v 60.26 87.7 21.0
v 63.92 96.12 27.0
v 60.26 96.12 27.0
v 63.92 87.7 27.0
v 60.26 87.7 27.0
usemtl color_146
f 1169 1170 1171 1172
f 1169 1170 1173 1174
f 1170 1171 1175 1173
f 1171 1172 1176 1175
f 1172 1169 1174 1176
f 1174 1173 1175 1176
g v7_box_2_2
v 63.92 107.34 24.0
v 67.58 107.34 24.0
v 67.58 98.92 24.0
v 63.92 98.92 24.0
v 67.58 107.34 27.0
v 63.92 107.34 27.0
v 67.58 98.92 27.0
v 63.92 98.92 27.0
usemtl color_147
f 1177 1178 1179 1180
f 1177 1178 1181 1182
f 1178 1179 1183 1181
f 1179 1180 1184 1183
f 1180 1177 1182 1184
f 1182 1181 1183 1184
g v7_box_2_3
v 67.58 107.34 24.0
v 71.24 107.34 24.0
v 71.24 98.92 24.0
v 67.58 98.92 24.0
v 71.24 107.34 27.0
v 67.58 107.34 27.0
v 71.24 98.92 27.0
v 67.58 98.92 27.0
usemtl color_148
f 1185 1186 1187 1188
f 1185 1186 1189 1190
f 1186 1187 1191 1189
f 1187 1188 1192 1191
f 1188 1185 1190 1192
f 1190 1189 1191 1192
g v7_box_2_4
v 71.24 107.34 24.0
v 74.9 107.34 24.0
v 74.9 98.92 24.0
v 71.24 98.92 24.0
v 74.9 107.34 27.0
v 71.24 107.34 27.0
v 74.9 98.92 27.0
v 71.24 98.92 27.0
usemtl color_149
f 1193 1194 1195 1196
f 1193 1194 1197 1198
f 1194 1195 1199 1197
f 1195 1196 1200 1199
f 1196 1193 1198 1200
f 1198 1197 1199 1200
g v7_room_2_4
v 71.24 111.55 24.0
v 74.9 111.55 24.0
v 74.9 107.34 24.0
v 71.24 107.34 24.0
v 74.9 111.55 27.0
v 71.24 111.55 27.0
v 74.9 107.34 27.0
v 71.24 107.34 27.0
usemtl color_150
f 1201 1202 1203 1204
f 1201 1202 1205 1206
f 1202 1203 1207 1205
f 1203 1204 1208 1207
f 1204 1201 1206 1208
f 1206 1205 1207 1208
g v7_K_2_5
v 74.9 107.34 24.0
v 78.56 107.34 24.0
v 78.56 98.92 24.0
v 74.9 98.92 24.0
v 78.56 107.34 32.0
v 74.9 107.34 32.0
v 78.56 98.92 32.0
v 74.9 98.92 32.0
usemtl color_151
f 1209 1210 1211 1212
f 1209 1210 1213 1214
f 1210 1211 1215 1213
f 1211 1212 1216 1215
f 1212 1209 1214 1216
f 1214 1213 1215 1216
g v7_F_2_5
v 74.9 96.12 21.0
v 78.56 96.12 21.0
v 78.56 87.7 21.0
v 74.9 87.7 21.0
v 78.56 96.12 27.0
v 74.9 96.12 27.0
v 78.56 87.7 27.0
v 74.9 87.7 27.0
usemtl color_152
f 1217 1218 1219 1220
f 1217 1218 1221 1222
f 1218 1219 1223 1221
f 1219 1220 1224 1223
f 1220 1217 1222 1224
f 1222 1221 1223 1224
g v7_box_2_6
v 78.56 107.34 24.0
v 82.22 107.34 24.0
v 82.22 98.92 24.0
v 78.56 98.92 24.0
v 82.22 107.34 27.0
v 78.56 107.34 27.0
v 82.22 98.92 27.0
v 78.56 98.92 27.0
usemtl color_153
f 1225 1226 1227 1228
f 1225 1226 1229 1230
f 1226 1227 1231 1229
f 1227 1228 1232 1231
f 1228 1225 1230 1232
f 1230 1229 1231 1232
g v7_room_2_6
v 78.56 111.55 24.0
v 82.22 111.55 24.0
v 82.22 107.34 24.0
v 78.56 107.34 24.0
v 82.22 111.55 27.0
v 78.56 111.55 27.0
v 82.22 107.34 27.0
v 78.56 107.34 27.0
usemtl color_154
f 1233 1234 1235 1236
f 1233 1234 1237 1238
f 1234 1235 1239 1237
f 1235 1236 1240 1239
f 1236 1233 1238 1240
f 1238 1237 1239 1240
g v7_stair_W
v 52.94 98.92 0.0
v 56.6 98.92 0.0
v 56.6 96.12 0.0
v 52.94 96.12 0.0
v 56.6 98.92 27.0
v 52.94 98.92 27.0
v 56.6 96.12 27.0
v 52.94 96.12 27.0
usemtl color_155
f 1241 1242 1243 1244
f 1241 1242 1245 1246
f 1242 1243 1247 1245
f 1243 1244 1248 1247
f 1244 1241 1246 1248
f 1246 1245 1247 1248
g v7_stair_E
v 82.22 98.92 0.0
v 85.88 98.92 0.0
v 85.88 96.12 0.0
v 82.22 96.12 0.0
v 85.88 98.92 27.0
v 82.22 98.92 27.0
v 85.88 96.12 27.0
v 82.22 96.12 27.0
usemtl color_156
f 1249 1250 1251 1252
f 1249 1250 1253 1254
f 1250 1251 1255 1253
f 1251 1252 1256 1255
f 1252 1249 1254 1256
f 1254 1253 1255 1256
g v7_entrance
v 52.94 101.42 0.0
v 56.6 101.42 0.0
v 56.6 98.92 0.0
v 52.94 98.92 0.0
v 56.6 101.42 3.0
v 52.94 101.42 3.0
v 56.6 98.92 3.0
v 52.94 98.92 3.0
usemtl color_157
f 1257 1258 1259 1260
f 1257 1258 1261 1262
f 1258 1259 1263 1261
f 1259 1260 1264 1263
f 1260 1257 1262 1264
f 1262 1261 1263 1264
g v8_corridor_0
v 109.54 98.92 6.0
v 124.18 98.92 6.0
v 124.18 96.12 6.0
v 109.54 96.12 6.0
v 124.18 98.92 9.0
v 109.54 98.92 9.0
v 124.18 96.12 9.0
v 109.54 96.12 9.0
usemtl color_158
f 1265 1266 1267 1268
f 1265 1266 1269 1270
f 1266 1267 1271 1269
f 1267 1268 1272 1271
f 1268 1265 1270 1272
f 1270 1269 1271 1272
g v8_K_0_0
v 109.54 107.34 6.0
v 113.2 107.34 6.0
v 113.2 98.92 6.0
v 109.54 98.92 6.0
v 113.2 107.34 14.0
v 109.54 107.34 14.0
v 113.2 98.92 14.0
v 109.54 98.92 14.0
usemtl color_159
f 1273 1274 1275 1276
f 1273 1274 1277 1278
f 1274 1275 1279 1277
f 1275 1276 1280 1279
f 1276 1273 1278 1280
f 1278 1277 1279 1280
g v8_F_0_0
v 109.54 96.12 3.0
v 113.2 96.12 3.0
v 113.2 87.7 3.0
v 109.54 87.7 3.0
v 113.2 96.12 9.0
v 109.54 96.12 9.0
v 113.2 87.7 9.0
v 109.54 87.7 9.0
usemtl color_160
f 1281 1282 1283 1284
f 1281 1282 1285 1286
f 1282 1283 1287 1285
f 1283 1284 1288 1287
f 1284 1281 1286 1288
f 1286 1285 1287 1288
g v8_F_0_1
v 113.2 96.12 3.0
v 116.86 96.12 3.0
v 116.86 87.7 3.0
v 113.2 87.7 3.0
v 116.86 96.12 9.0
v 113.2 96.12 9.0
v 116.86 87.7 9.0
v 113.2 87.7 9.0
usemtl color_161
f 1289 1290 1291 1292
f 1289 1290 1293 1294
f 1290 1291 1295 1293
f 1291 1292 1296 1295
f 1292 1289 1294 1296
f 1294 1293 1295 1296
g v8_K_0_2
v 116.86 107.34 6.0
v 120.52 107.34 6.0
v 120.52 98.92 6.0
v 116.86 98.92 6.0
v 120.52 107.34 14.0
v 116.86 107.34 14.0
v 120.52 98.92 14.0
v 116.86 98.92 14.0
usemtl color_162
f 1297 1298 1299 1300
f 1297 1298 1301 1302
f 1298 1299 1303 1301
f 1299 1300 1304 1303
f 1300 1297 1302 1304
f 1302 1301 1303 1304
g v8_F_0_2
v 116.86 96.12 3.0
v 120.52 96.12 3.0
v 120.52 87.7 3.0
v 116.86 87.7 3.0
v 120.52 96.12 9.0
v 116.86 96.12 9.0
v 120.52 87.7 9.0
v 116.86 87.7 9.0
usemtl color_163
f 1305 1306 1307 1308
f 1305 1306 1309 1310
f 1306 1307 1311 1309
f 1307 1308 1312 1311
f 1308 1305 1310 1312
f 1310 1309 1311 1312
g v8_K_0_3
v 120.52 107.34 6.0
v 124.18 107.34 6.0
v 124.18 98.92 6.0
v 120.52 98.92 6.0
v 124.18 107.34 14.0
v 120.52 107.34 14.0
v 124.18 98.92 14.0
v 120.52 98.92 14.0
usemtl color_164
f 1313 1314 1315 1316
f 1313 1314 1317 1318
f 1314 1315 1319 1317
f 1315 1316 1320 1319
f 1316 1313 1318 1320
f 1318 1317 1319 1320
g v8_F_0_3
v 120.52 96.12 3.0
v 124.18 96.12 3.0
v 124.18 87.7 3.0
v 120.52 87.7 3.0
v 124.18 96.12 9.0
v 120.52 96.12 9.0
v 124.18 87.7 9.0
v 120.52 87.7 9.0
usemtl color_165
f 1321 1322 1323 1324
f 1321 1322 1325 1326
f 1322 1323 1327 1325
f 1323 1324 1328 1327
f 1324 1321 1326 1328
f 1326 1325 1327 1328
g v8_corridor_1
v 109.54 98.92 15.0
v 124.18 98.92 15.0
v 124.18 96.12 15.0
v 109.54 96.12 15.0
v 124.18 98.92 18.0
v 109.54 98.92 18.0
v 124.18 96.12 18.0
v 109.54 96.12 18.0
usemtl color_166
f 1329 1330 1331 1332
f 1329 1330 1333 1334
f 1330 1331 1335 1333
f 1331 1332 1336 1335
f 1332 1329 1334 1336
f 1334 1333 1335 1336
g v8_K_1_0
v 109.54 107.34 15.0
v 113.2 107.34 15.0
v 113.2 98.92 15.0
v 109.54 98.92 15.0
v 113.2 107.34 23.0
v 109.54 107.34 23.0
v 113.2 98.92 23.0
v 109.54 98.92 23.0
usemtl color_167
f 1337 1338 1339 1340
f 1337 1338 1341 1342
f 1338 1339 1343 1341
f 1339 1340 1344 1343
f 1340 1337 1342 1344
f 1342 1341 1343 1344
g v8_F_1_0
v 109.54 96.12 12.0
v 113.2 96.12 12.0
v 113.2 87.7 12.0
v 109.54 87.7 12.0
v 113.2 96.12 18.0
v 109.54 96.12 18.0
v 113.2 87.7 18.0
v 109.54 87.7 18.0
usemtl color_168
f 1345 1346 1347 1348
f 1345 1346 1349 1350
f 1346 1347 1351 1349
f 1347 1348 1352 1351
f 1348 1345 1350 1352
f 1350 1349 1351 1352
g v8_F_1_1
v 113.2 96.12 12.0
v 116.86 96.12 12.0
v 116.86 87.7 12.0
v 113.2 87.7 12.0
v 116.86 96.12 18.0
v 113.2 96.12 18.0
v 116.86 87.7 18.0
v 113.2 87.7 18.0
usemtl color_169
f 1353 1354 1355 1356
f 1353 1354 1357 1358
f 1354 1355 1359 1357
f 1355 1356 1360 1359
f 1356 1353 1358 1360
f 1358 1357 1359 1360
g v8_K_1_2
v 116.86 107.34 15.0
v 120.52 107.34 15.0
v 120.52 98.92 15.0
v 116.86 98.92 15.0
v 120.52 107.34 23.0
v 116.86 107.34 23.0
v 120.52 98.92 23.0
v 116.86 98.92 23.0
usemtl color_170
f 1361 1362 1363 1364
f 1361 1362 1365 1366
f 1362 1363 1367 1365
f 1363 1364 1368 1367
f 1364 1361 1366 1368
f 1366 1365 1367 1368
g v8_F_1_2
v 116.86 96.12 12.0
v 120.52 96.12 12.0
v 120.52 87.7 12.0
v 116.86 87.7 12.0
v 120.52 96.12 18.0
v 116.86 96.12 18.0
v 120.52 87.7 18.0
v 116.86 87.7 18.0
usemtl color_171
f 1369 1370 1371 1372
f 1369 1370 1373 1374
f 1370 1371 1375 1373
f 1371 1372 1376 1375
f 1372 1369 1374 1376
f 1374 1373 1375 1376
g v8_K_1_3
v 120.52 107.34 15.0
v 124.18 107.34 15.0
v 124.18 98.92 15.0
v 120.52 98.92 15.0
v 124.18 107.34 23.0
v 120.52 107.34 23.0
v 124.18 98.92 23.0
v 120.52 98.92 23.0
usemtl color_172
f 1377 1378 1379 1380
f 1377 1378 1381 1382
f 1378 1379 1383 1381
f 1379 1380 1384 1383
f 1380 1377 1382 1384
f 1382 1381 1383 1384
g v8_F_1_3
v 120.52 96.12 12.0
v 124.18 96.12 12.0
v 124.18 87.7 12.0
v 120.52 87.7 12.0
v 124.18 96.12 18.0
v 120.52 96.12 18.0
v 124.18 87.7 18.0
v 120.52 87.7 18.0
usemtl color_173
f 1385 1386 1387 1388
f 1385 1386 1389 1390
f 1386 1387 1391 1389
f 1387 1388 1392 1391
f 1388 1385 1390 1392
f 1390 1389 1391 1392
g v8_stair_W
v 105.88 98.92 0.0
v 109.54 98.92 0.0
v 109.54 96.12 0.0
v 105.88 96.12 0.0
v 109.54 98.92 18.0
v 105.88 98.92 18.0
v 109.54 96.12 18.0
v 105.88 96.12 18.0
usemtl color_174
f 1393 1394 1395 1396
f 1393 1394 1397 1398
f 1394 1395 1399 1397
f 1395 1396 1400 1399
f 1396 1393 1398 1400
f 1398 1397 1399 1400
g v8_stair_E
v 124.18 98.92 0.0
v 127.84 98.92 0.0
v 127.84 96.12 0.0
v 124.18 96.12 0.0
v 127.84 98.92 18.0
v 124.18 98.92 18.0
v 127.84 96.12 18.0
v 124.18 96.12 18.0
usemtl color_175
f 1401 1402 1403 1404
f 1401 1402 1405 1406
f 1402 1403 1407 1405
f 1403 1404 1408 1407
f 1404 1401 1406 1408
f 1406 1405 1407 1408
g v8_entrance
v 105.88 101.42 0.0
v 109.54 101.42 0.0
v 109.54 98.92 0.0
v 105.88 98.92 0.0
v 109.54 101.42 3.0
v 105.88 101.42 3.0
v 109.54 98.92 3.0
v 105.88 98.92 3.0
usemtl color_176
f 1409 1410 1411 1412
f 1409 1410 1413 1414
f 1410 1411 1415 1413
f 1411 1412 1416 1415
f 1412 1409 1414 1416
f 1414 1413 1415 1416