# topologicpy The version that you are using (0.9.43) is OLDER than the latest version (0.9.57) from PyPI. Please consider upgrading to the latest version.
mtllib example.mtl

g v0_box_0_1
v 7.32 19.64 6.0
v 10.98 19.64 6.0
v 10.98 11.22 6.0
v 7.32 11.22 6.0
v 10.98 19.64 9.0
v 7.32 19.64 9.0
v 10.98 11.22 9.0
v 7.32 11.22 9.0
usemtl color_000
f 1 2 3 4
f 1 2 5 6
f 2 3 7 5
f 3 4 8 7
f 4 1 6 8
f 6 5 7 8
g v0_box_0_0
v 3.66 19.64 6.0
v 7.32 19.64 6.0
v 7.32 11.22 6.0
v 3.66 11.22 6.0
v 7.32 19.64 9.0
v 3.66 19.64 9.0
v 7.32 11.22 9.0
v 3.66 11.22 9.0
usemtl color_001
f 9 10 11 12
f 9 10 13 14
f 10 11 15 13
f 11 12 16 15
f 12 9 14 16
f 14 13 15 16
g v0_F_1_1
v 7.32 8.42 12.0
v 10.98 8.42 12.0
v 10.98 0.0 12.0
v 7.32 0.0 12.0
v 10.98 8.42 18.0
v 7.32 8.42 18.0
v 10.98 0.0 18.0
v 7.32 0.0 18.0
usemtl color_002
f 17 18 19 20
f 17 18 21 22
f 18 19 23 21
f 19 20 24 23
f 20 17 22 24
f 22 21 23 24
g v0_K_1_2
v 10.98 19.64 15.0
v 14.64 19.64 15.0
v 14.64 11.22 15.0
v 10.98 11.22 15.0
v 14.64 19.64 21.0
v 10.98 19.64 21.0
v 14.64 11.22 21.0
v 10.98 11.22 21.0
usemtl color_003
f 25 26 27 28
f 25 26 29 30
f 26 27 31 29
f 27 28 32 31
f 28 25 30 32
f 30 29 31 32
g v0_corridor_1
v 3.66 11.22 15.0
v 40.26 11.22 15.0
v 40.26 8.42 15.0
v 3.66 8.42 15.0
v 40.26 11.22 18.0
v 3.66 11.22 18.0
v 40.26 8.42 18.0
v 3.66 8.42 18.0
usemtl color_004
f 33 34 35 36
f 33 34 37 38
f 34 35 39 37
f 35 36 40 39
f 36 33 38 40
f 38 37 39 40
g v0_K_1_0
v 3.66 19.64 15.0
v 7.32 19.64 15.0
v 7.32 11.22 15.0
v 3.66 11.22 15.0
v 7.32 19.64 21.0
v 3.66 19.64 21.0
v 7.32 11.22 21.0
v 3.66 11.22 21.0
usemtl color_005
f 41 42 43 44
f 41 42 45 46
f 42 43 47 45
f 43 44 48 47
f 44 41 46 48
f 46 45 47 48
g v0_corridor_0
v 3.66 11.22 6.0
v 10.98 11.22 6.0
v 10.98 8.42 6.0
v 3.66 8.42 6.0
v 10.98 11.22 9.0
v 3.66 11.22 9.0
v 10.98 8.42 9.0
v 3.66 8.42 9.0
usemtl color_006
f 49 50 51 52
f 49 50 53 54
f 50 51 55 53
f 51 52 56 55
f 52 49 54 56
f 54 53 55 56
g v0_K_1_4
v 18.3 19.64 15.0
v 21.96 19.64 15.0
v 21.96 11.22 15.0
v 18.3 11.22 15.0
v 21.96 19.64 21.0
v 18.3 19.64 21.0
v 21.96 11.22 21.0
v 18.3 11.22 21.0
usemtl color_007
f 57 58 59 60
f 57 58 61 62
f 58 59 63 61
f 59 60 64 63
f 60 57 62 64
f 62 61 63 64
g v0_F_1_5
v 21.96 8.42 12.0
v 25.62 8.42 12.0
v 25.62 0.0 12.0
v 21.96 0.0 12.0
v 25.62 8.42 18.0
v 21.96 8.42 18.0
v 25.62 0.0 18.0
v 21.96 0.0 18.0
usemtl color_008
f 65 66 67 68
f 65 66 69 70
f 66 67 71 69
f 67 68 72 71
f 68 65 70 72
f 70 69 71 72
g v0_box_1_7
v 29.28 19.64 15.0
v 32.94 19.64 15.0
v 32.94 11.22 15.0
v 29.28 11.22 15.0
v 32.94 19.64 18.0
v 29.28 19.64 18.0
v 32.94 11.22 18.0
v 29.28 11.22 18.0
usemtl color_009
f 73 74 75 76
f 73 74 77 78
f 74 75 79 77
f 75 76 80 79
f 76 73 78 80
f 78 77 79 80
g v0_box_1_3
v 14.64 19.64 15.0
v 18.3 19.64 15.0
v 18.3 11.22 15.0
v 14.64 11.22 15.0
v 18.3 19.64 18.0
v 14.64 19.64 18.0
v 18.3 11.22 18.0
v 14.64 11.22 18.0
usemtl color_010
f 81 82 83 84
f 81 82 85 86
f 82 83 87 85
f 83 84 88 87
f 84 81 86 88
f 86 85 87 88
g v0_K_1_6
v 25.62 19.64 15.0
v 29.28 19.64 15.0
v 29.28 11.22 15.0
v 25.62 11.22 15.0
v 29.28 19.64 21.0
v 25.62 19.64 21.0
v 29.28 11.22 21.0
v 25.62 11.22 21.0
usemtl color_011
f 89 90 91 92
f 89 90 93 94
f 90 91 95 93
f 91 92 96 95
f 92 89 94 96
f 94 93 95 96
g v0_K_1_8
v 32.94 19.64 15.0
v 36.6 19.64 15.0
v 36.6 11.22 15.0
v 32.94 11.22 15.0
v 36.6 19.64 21.0
v 32.94 19.64 21.0
v 36.6 11.22 21.0
v 32.94 11.22 21.0
usemtl color_012
f 97 98 99 100
f 97 98 101 102
f 98 99 103 101
f 99 100 104 103
f 100 97 102 104
f 102 101 103 104
g v0_K_1_9
v 36.6 19.64 15.0
v 40.26 19.64 15.0
v 40.26 11.22 15.0
v 36.6 11.22 15.0
v 40.26 19.64 21.0
v 36.6 19.64 21.0
v 40.26 11.22 21.0
v 36.6 11.22 21.0
usemtl color_013
f 105 106 107 108
f 105 106 109 110
f 106 107 111 109
f 107 108 112 111
f 108 105 110 112
f 110 109 111 112
g v0_stair_W
v 0.0 11.22 0.0
v 3.66 11.22 0.0
v 3.66 8.42 0.0
v 0.0 8.42 0.0
v 3.66 11.22 18.0
v 0.0 11.22 18.0
v 3.66 8.42 18.0
v 0.0 8.42 18.0
usemtl color_014
f 113 114 115 116
f 113 114 117 118
f 114 115 119 117
f 115 116 120 119
f 116 113 118 120
f 118 117 119 120
g v0_stair_E
v 40.26 11.22 0.0
v 43.92 11.22 0.0
v 43.92 8.42 0.0
v 40.26 8.42 0.0
v 43.92 11.22 18.0
v 40.26 11.22 18.0
v 43.92 8.42 18.0
v 40.26 8.42 18.0
usemtl color_015
f 121 122 123 124
f 121 122 125 126
f 122 123 127 125
f 123 124 128 127
f 124 121 126 128
f 126 125 127 128
g v0_entrance
v 0.0 13.72 0.0
v 3.66 13.72 0.0
v 3.66 11.22 0.0
v 0.0 11.22 0.0
v 3.66 13.72 3.0
v 0.0 13.72 3.0
v 3.66 11.22 3.0
v 0.0 11.22 3.0
usemtl color_016
f 129 130 131 132
f 129 130 133 134
f 130 131 135 133
f 131 132 136 135
f 132 129 134 136
f 134 133 135 136
g v1_K_0_6
v 88.2 19.64 6.0
v 91.86 19.64 6.0
v 91.86 11.22 6.0
v 88.2 11.22 6.0
v 91.86 19.64 12.0
v 88.2 19.64 12.0
v 91.86 11.22 12.0
v 88.2 11.22 12.0
usemtl color_017
f 137 138 139 140
f 137 138 141 142
f 138 139 143 141
f 139 140 144 143
f 140 137 142 144
f 142 141 143 144
g v1_K_0_4
v 80.88 19.64 6.0
v 84.54 19.64 6.0
v 84.54 11.22 6.0
v 80.88 11.22 6.0
v 84.54 19.64 12.0
v 80.88 19.64 12.0
v 84.54 11.22 12.0
v 80.88 11.22 12.0
usemtl color_018
f 145 146 147 148
f 145 146 149 150
f 146 147 151 149
f 147 148 152 151
f 148 145 150 152
f 150 149 151 152
g v1_F_0_5
v 84.54 8.42 3.0
v 88.2 8.42 3.0
v 88.2 0.0 3.0
v 84.54 0.0 3.0
v 88.2 8.42 9.0
v 84.54 8.42 9.0
v 88.2 0.0 9.0
v 84.54 0.0 9.0
usemtl color_019
f 153 154 155 156
f 153 154 157 158
f 154 155 159 157
f 155 156 160 159
f 156 153 158 160
f 158 157 159 160
g v1_box_0_3
v 77.22 19.64 6.0
v 80.88 19.64 6.0
v 80.88 11.22 6.0
v 77.22 11.22 6.0
v 80.88 19.64 9.0
v 77.22 19.64 9.0
v 80.88 11.22 9.0
v 77.22 11.22 9.0
usemtl color_020
f 161 162 163 164
f 161 162 165 166
f 162 163 167 165
f 163 164 168 167
f 164 161 166 168
f 166 165 167 168
g v1_box_1_0
v 66.24 19.64 15.0
v 69.9 19.64 15.0
v 69.9 11.22 15.0
v 66.24 11.22 15.0
v 69.9 19.64 18.0
v 66.24 19.64 18.0
v 69.9 11.22 18.0
v 66.24 11.22 18.0
usemtl color_021
f 169 170 171 172
f 169 170 173 174
f 170 171 175 173
f 171 172 176 175
f 172 169 174 176
f 174 173 175 176
g v1_K_0_2
v 73.56 19.64 6.0
v 77.22 19.64 6.0
v 77.22 11.22 6.0
v 73.56 11.22 6.0
v 77.22 19.64 12.0
v 73.56 19.64 12.0
v 77.22 11.22 12.0
v 73.56 11.22 12.0
usemtl color_022
f 177 178 179 180
f 177 178 181 182
f 178 179 183 181
f 179 180 184 183
f 180 177 182 184
f 182 181 183 184
g v1_K_0_0
v 66.24 19.64 6.0
v 69.9 19.64 6.0
v 69.9 11.22 6.0
v 66.24 11.22 6.0
v 69.9 19.64 12.0
v 66.24 19.64 12.0
v 69.9 11.22 12.0
v 66.24 11.22 12.0
usemtl color_023
f 185 186 187 188
f 185 186 189 190
f 186 187 191 189
f 187 188 192 191
f 188 185 190 192
f 190 189 191 192
g v1_entrance
v 62.58 13.72 0.0
v 66.24 13.72 0.0
v 66.24 11.22 0.0
v 62.58 11.22 0.0
v 66.24 13.72 3.0
v 62.58 13.72 3.0
v 66.24 11.22 3.0
v 62.58 11.22 3.0
usemtl color_024
f 193 194 195 196
f 193 194 197 198
f 194 195 199 197
f 195 196 200 199
f 196 193 198 200
f 198 197 199 200
g v1_F_0_1
v 69.9 8.42 3.0
v 73.56 8.42 3.0
v 73.56 0.0 3.0
v 69.9 0.0 3.0
v 73.56 8.42 9.0
v 69.9 8.42 9.0
v 73.56 0.0 9.0
v 69.9 0.0 9.0
usemtl color_025
f 201 202 203 204
f 201 202 205 206
f 202 203 207 205
f 203 204 208 207
f 204 201 206 208
f 206 205 207 208
g v1_stair_E
v 106.5 11.22 0.0
v 110.16 11.22 0.0
v 110.16 8.42 0.0
v 106.5 8.42 0.0
v 110.16 11.22 18.0
v 106.5 11.22 18.0
v 110.16 8.42 18.0
v 106.5 8.42 18.0
usemtl color_026
f 209 210 211 212
f 209 210 213 214
f 210 211 215 213
f 211 212 216 215
f 212 209 214 216
f 214 213 215 216
g v1_box_0_7
v 91.86 19.64 6.0
v 95.52 19.64 6.0
v 95.52 11.22 6.0
v 91.86 11.22 6.0
v 95.52 19.64 9.0
v 91.86 19.64 9.0
v 95.52 11.22 9.0
v 91.86 11.22 9.0
usemtl color_027
f 217 218 219 220
f 217 218 221 222
f 218 219 223 221
f 219 220 224 223
f 220 217 222 224
f 222 221 223 224
g v1_stair_W
v 62.58 11.22 0.0
v 66.24 11.22 0.0
v 66.24 8.42 0.0
v 62.58 8.42 0.0
v 66.24 11.22 18.0
v 62.58 11.22 18.0
v 66.24 8.42 18.0
v 62.58 8.42 18.0
usemtl color_028
f 225 226 227 228
f 225 226 229 230
f 226 227 231 229
f 227 228 232 231
f 228 225 230 232
f 230 229 231 232
g v1_K_0_10
v 102.84 19.64 6.0
v 106.5 19.64 6.0
v 106.5 11.22 6.0
v 102.84 11.22 6.0
v 106.5 19.64 12.0
v 102.84 19.64 12.0
v 106.5 11.22 12.0
v 102.84 11.22 12.0
usemtl color_029
f 233 234 235 236
f 233 234 237 238
f 234 235 239 237
f 235 236 240 239
f 236 233 238 240
f 238 237 239 240
g v1_corridor_1
v 66.24 11.22 15.0
v 69.9 11.22 15.0
v 69.9 8.42 15.0
v 66.24 8.42 15.0
v 69.9 11.22 18.0
v 66.24 11.22 18.0
v 69.9 8.42 18.0
v 66.24 8.42 18.0
usemtl color_030
f 241 242 243 244
f 241 242 245 246
f 242 243 247 245
f 243 244 248 247
f 244 241 246 248
f 246 245 247 248
g v1_K_0_9
v 99.18 19.64 6.0
v 102.84 19.64 6.0
v 102.84 11.22 6.0
v 99.18 11.22 6.0
v 102.84 19.64 12.0
v 99.18 19.64 12.0
v 102.84 11.22 12.0
v 99.18 11.22 12.0
usemtl color_031
f 249 250 251 252
f 249 250 253 254
f 250 251 255 253
f 251 252 256 255
f 252 249 254 256
f 254 253 255 256
g v1_K_0_8
v 95.52 19.64 6.0
v 99.18 19.64 6.0
v 99.18 11.22 6.0
v 95.52 11.22 6.0
v 99.18 19.64 12.0
v 95.52 19.64 12.0
v 99.18 11.22 12.0
v 95.52 11.22 12.0
usemtl color_032
f 257 258 259 260
f 257 258 261 262
f 258 259 263 261
f 259 260 264 263
f 260 257 262 264
f 262 261 263 264
g v1_corridor_0
v 66.24 11.22 6.0
v 106.5 11.22 6.0
v 106.5 8.42 6.0
v 66.24 8.42 6.0
v 106.5 11.22 9.0
v 66.24 11.22 9.0
v 106.5 8.42 9.0
v 66.24 8.42 9.0
usemtl color_033
f 265 266 267 268
f 265 266 269 270
f 266 267 271 269
f 267 268 272 271
f 268 265 270 272
f 270 269 271 272
g v2_K_0_4
v 143.46 19.64 6.0
v 147.12 19.64 6.0
v 147.12 11.22 6.0
v 143.46 11.22 6.0
v 147.12 19.64 12.0
v 143.46 19.64 12.0
v 147.12 11.22 12.0
v 143.46 11.22 12.0
usemtl color_034
f 273 274 275 276
f 273 274 277 278
f 274 275 279 277
f 275 276 280 279
f 276 273 278 280
f 278 277 279 280
g v2_corridor_0
v 128.82 11.22 6.0
v 154.44 11.22 6.0
v 154.44 8.42 6.0
v 128.82 8.42 6.0
v 154.44 11.22 9.0
v 128.82 11.22 9.0
v 154.44 8.42 9.0
v 128.82 8.42 9.0
usemtl color_035
f 281 282 283 284
f 281 282 285 286
f 282 283 287 285
f 283 284 288 287
f 284 281 286 288
f 286 285 287 288
g v2_box_0_1
v 132.48 19.64 6.0
v 136.14 19.64 6.0
v 136.14 11.22 6.0
v 132.48 11.22 6.0
v 136.14 19.64 9.0
v 132.48 19.64 9.0
v 136.14 11.22 9.0
v 132.48 11.22 9.0
usemtl color_036
f 289 290 291 292
f 289 290 293 294
f 290 291 295 293
f 291 292 296 295
f 292 289 294 296
f 294 293 295 296
g v2_F_0_3
v 139.8 8.42 3.0
v 143.46 8.42 3.0
v 143.46 0.0 3.0
v 139.8 0.0 3.0
v 143.46 8.42 9.0
v 139.8 8.42 9.0
v 143.46 0.0 9.0
v 139.8 0.0 9.0
usemtl color_037
f 297 298 299 300
f 297 298 301 302
f 298 299 303 301
f 299 300 304 303
f 300 297 302 304
f 302 301 303 304
g v2_K_0_2
v 136.14 19.64 6.0
v 139.8 19.64 6.0
v 139.8 11.22 6.0
v 136.14 11.22 6.0
v 139.8 19.64 12.0
v 136.14 19.64 12.0
v 139.8 11.22 12.0
v 136.14 11.22 12.0
usemtl color_038
f 305 306 307 308
f 305 306 309 310
f 306 307 311 309
f 307 308 312 311
f 308 305 310 312
f 310 309 311 312
g v2_K_0_0
v 128.82 19.64 6.0
v 132.48 19.64 6.0
v 132.48 11.22 6.0
v 128.82 11.22 6.0
v 132.48 19.64 12.0
v 128.82 19.64 12.0
v 132.48 11.22 12.0
v 128.82 11.22 12.0
usemtl color_039
f 313 314 315 316
f 313 314 317 318
f 314 315 319 317
f 315 316 320 319
f 316 313 318 320
f 318 317 319 320
g v2_K_0_6
v 150.78 19.64 6.0
v 154.44 19.64 6.0
v 154.44 11.22 6.0
v 150.78 11.22 6.0
v 154.44 19.64 12.0
v 150.78 19.64 12.0
v 154.44 11.22 12.0
v 150.78 11.22 12.0
usemtl color_040
f 321 322 323 324
f 321 322 325 326
f 322 323 327 325
f 323 324 328 327
f 324 321 326 328
f 326 325 327 328
g v2_F_1_6
v 150.78 8.42 12.0
v 154.44 8.42 12.0
v 154.44 0.0 12.0
v 150.78 0.0 12.0
v 154.44 8.42 18.0
v 150.78 8.42 18.0
v 154.44 0.0 18.0
v 150.78 0.0 18.0
usemtl color_041
f 329 330 331 332
f 329 330 333 334
f 330 331 335 333
f 331 332 336 335
f 332 329 334 336
f 334 333 335 336
g v2_box_1_7
v 154.44 19.64 15.0
v 158.1 19.64 15.0
v 158.1 11.22 15.0
v 154.44 11.22 15.0
v 158.1 19.64 18.0
v 154.44 19.64 18.0
v 158.1 11.22 18.0
v 154.44 11.22 18.0
usemtl color_042
f 337 338 339 340
f 337 338 341 342
f 338 339 343 341
f 339 340 344 343
f 340 337 342 344
f 342 341 343 344
g v2_stair_W
v 125.16 11.22 0.0
v 128.82 11.22 0.0
v 128.82 8.42 0.0
v 125.16 8.42 0.0
v 128.82 11.22 18.0
v 125.16 11.22 18.0
v 128.82 8.42 18.0
v 125.16 8.42 18.0
usemtl color_043
f 345 346 347 348
f 345 346 349 350
f 346 347 351 349
f 347 348 352 351
f 348 345 350 352
f 350 349 351 352
g v2_box_0_5
v 147.12 19.64 6.0
v 150.78 19.64 6.0
v 150.78 11.22 6.0
v 147.12 11.22 6.0
v 150.78 19.64 9.0
v 147.12 19.64 9.0
v 150.78 11.22 9.0
v 147.12 11.22 9.0
usemtl color_044
f 353 354 355 356
f 353 354 357 358
f 354 355 359 357
f 355 356 360 359
f 356 353 358 360
f 358 357 359 360
g v2_corridor_1
v 128.82 11.22 15.0
v 158.1 11.22 15.0
v 158.1 8.42 15.0
v 128.82 8.42 15.0
v 158.1 11.22 18.0
v 128.82 11.22 18.0
v 158.1 8.42 18.0
v 128.82 8.42 18.0
usemtl color_045
f 361 362 363 364
f 361 362 365 366
f 362 363 367 365
f 363 364 368 367
f 364 361 366 368
f 366 365 367 368
g v2_F_1_0
v 128.82 8.42 12.0
v 132.48 8.42 12.0
v 132.48 0.0 12.0
v 128.82 0.0 12.0
v 132.48 8.42 18.0
v 128.82 8.42 18.0
v 132.48 0.0 18.0
v 128.82 0.0 18.0
usemtl color_046
f 369 370 371 372
f 369 370 373 374
f 370 371 375 373
f 371 372 376 375
f 372 369 374 376
f 374 373 375 376
g v2_K_1_1
v 132.48 19.64 15.0
v 136.14 19.64 15.0
v 136.14 11.22 15.0
v 132.48 11.22 15.0
v 136.14 19.64 21.0
v 132.48 19.64 21.0
v 136.14 11.22 21.0
v 132.48 11.22 21.0
usemtl color_047
f 377 378 379 380
f 377 378 381 382
f 378 379 383 381
f 379 380 384 383
f 380 377 382 384
f 382 381 383 384
g v2_F_1_2
v 136.14 8.42 12.0
v 139.8 8.42 12.0
v 139.8 0.0 12.0
v 136.14 0.0 12.0
v 139.8 8.42 18.0
v 136.14 8.42 18.0
v 139.8 0.0 18.0
v 136.14 0.0 18.0
usemtl color_048
f 385 386 387 388
f 385 386 389 390
f 386 387 391 389
f 387 388 392 391
f 388 385 390 392
f 390 389 391 392
g v2_K_1_3
v 139.8 19.64 15.0
v 143.46 19.64 15.0
v 143.46 11.22 15.0
v 139.8 11.22 15.0
v 143.46 19.64 21.0
v 139.8 19.64 21.0
v 143.46 11.22 21.0
v 139.8 11.22 21.0
usemtl color_049
f 393 394 395 396
f 393 394 397 398
f 394 395 399 397
f 395 396 400 399
f 396 393 398 400
f 398 397 399 400
g v2_F_1_4
v 143.46 8.42 12.0
v 147.12 8.42 12.0
v 147.12 0.0 12.0
v 143.46 0.0 12.0
v 147.12 8.42 18.0
v 143.46 8.42 18.0
v 147.12 0.0 18.0
v 143.46 0.0 18.0
usemtl color_050
f 401 402 403 404
f 401 402 405 406
f 402 403 407 405
f 403 404 408 407
f 404 401 406 408
f 406 405 407 408
g v2_K_1_5
v 147.12 19.64 15.0
v 150.78 19.64 15.0
v 150.78 11.22 15.0
v 147.12 11.22 15.0
v 150.78 19.64 21.0
v 147.12 19.64 21.0
v 150.78 11.22 21.0
v 147.12 11.22 21.0
usemtl color_051
f 409 410 411 412
f 409 410 413 414
f 410 411 415 413
f 411 412 416 415
f 412 409 414 416
f 414 413 415 416
g v2_stair_E
v 158.1 11.22 0.0
v 161.76 11.22 0.0
v 161.76 8.42 0.0
v 158.1 8.42 0.0
v 161.76 11.22 18.0
v 158.1 11.22 18.0
v 161.76 8.42 18.0
v 158.1 8.42 18.0
usemtl color_052
f 417 418 419 420
f 417 418 421 422
f 418 419 423 421
f 419 420 424 423
f 420 417 422 424
f 422 421 423 424
g v2_entrance
v 125.16 13.72 0.0
v 128.82 13.72 0.0
v 128.82 11.22 0.0
v 125.16 11.22 0.0
v 128.82 13.72 3.0
v 125.16 13.72 3.0
v 128.82 11.22 3.0
v 125.16 11.22 3.0
usemtl color_053
f 425 426 427 428
f 425 426 429 430
f 426 427 431 429
f 427 428 432 431
f 428 425 430 432
f 430 429 431 432
g v3_K_0_2
v 10.98 45.86 6.0
v 14.64 45.86 6.0
v 14.64 37.44 6.0
v 10.98 37.44 6.0
v 14.64 45.86 12.0
v 10.98 45.86 12.0
v 14.64 37.44 12.0
v 10.98 37.44 12.0
usemtl color_054
f 433 434 435 436
f 433 434 437 438
f 434 435 439 437
f 435 436 440 439
f 436 433 438 440
f 438 437 439 440
g v3_K_1_2
v 10.98 45.86 15.0
v 14.64 45.86 15.0
v 14.64 37.44 15.0
v 10.98 37.44 15.0
v 14.64 45.86 21.0
v 10.98 45.86 21.0
v 14.64 37.44 21.0
v 10.98 37.44 21.0
usemtl color_055
f 441 442 443 444
f 441 442 445 446
f 442 443 447 445
f 443 444 448 447
f 444 441 446 448
f 446 445 447 448
g v3_corridor_1
v 3.66 37.44 15.0
v 14.64 37.44 15.0
v 14.64 34.64 15.0
v 3.66 34.64 15.0
v 14.64 37.44 18.0
v 3.66 37.44 18.0
v 14.64 34.64 18.0
v 3.66 34.64 18.0
usemtl color_056
f 449 450 451 452
f 449 450 453 454
f 450 451 455 453
f 451 452 456 455
f 452 449 454 456
f 454 453 455 456
g v3_K_1_0
v 3.66 45.86 15.0
v 7.32 45.86 15.0
v 7.32 37.44 15.0
v 3.66 37.44 15.0
v 7.32 45.86 21.0
v 3.66 45.86 21.0
v 7.32 37.44 21.0
v 3.66 37.44 21.0
usemtl color_057
f 457 458 459 460
f 457 458 461 462
f 458 459 463 461
f 459 460 464 463
f 460 457 462 464
f 462 461 463 464
g v3_box_1_1
v 7.32 45.86 15.0
v 10.98 45.86 15.0
v 10.98 37.44 15.0
v 7.32 37.44 15.0
v 10.98 45.86 18.0
v 7.32 45.86 18.0
v 10.98 37.44 18.0
v 7.32 37.44 18.0
usemtl color_058
f 465 466 467 468
f 465 466 469 470
f 466 467 471 469
f 467 468 472 471
f 468 465 470 472
f 470 469 471 472
g v3_K_0_0
v 3.66 45.86 6.0
v 7.32 45.86 6.0
v 7.32 37.44 6.0
v 3.66 37.44 6.0
v 7.32 45.86 12.0
v 3.66 45.86 12.0
v 7.32 37.44 12.0
v 3.66 37.44 12.0
usemtl color_059
f 473 474 475 476
f 473 474 477 478
f 474 475 479 477
f 475 476 480 479
f 476 473 478 480
f 478 477 479 480
g v3_stair_W
v 0.0 37.44 0.0
v 3.66 37.44 0.0
v 3.66 34.64 0.0
v 0.0 34.64 0.0
v 3.66 37.44 27.0
v 0.0 37.44 27.0
v 3.66 34.64 27.0
v 0.0 34.64 27.0
usemtl color_060
f 481 482 483 484
f 481 482 485 486
f 482 483 487 485
f 483 484 488 487
f 484 481 486 488
f 486 485 487 488
g v3_K_2_3
v 14.64 45.86 24.0
v 18.3 45.86 24.0
v 18.3 37.44 24.0
v 14.64 37.44 24.0
v 18.3 45.86 30.0
v 14.64 45.86 30.0
v 18.3 37.44 30.0
v 14.64 37.44 30.0
usemtl color_061
f 489 490 491 492
f 489 490 493 494
f 490 491 495 493
f 491 492 496 495
f 492 489 494 496
f 494 493 495 496
g v3_K_2_0
v 3.66 45.86 24.0
v 7.32 45.86 24.0
v 7.32 37.44 24.0
v 3.66 37.44 24.0
v 7.32 45.86 30.0
v 3.66 45.86 30.0
v 7.32 37.44 30.0
v 3.66 37.44 30.0
usemtl color_062
f 497 498 499 500
f 497 498 501 502
f 498 499 503 501
f 499 500 504 503
f 500 497 502 504
f 502 501 503 504
g v3_corridor_0
v 3.66 37.44 6.0
v 18.3 37.44 6.0
v 18.3 34.64 6.0
v 3.66 34.64 6.0
v 18.3 37.44 9.0
v 3.66 37.44 9.0
v 18.3 34.64 9.0
v 3.66 34.64 9.0
usemtl color_063
f 505 506 507 508
f 505 506 509 510
f 506 507 511 509
f 507 508 512 511
f 508 505 510 512
f 510 509 511 512
g v3_box_0_1
v 7.32 45.86 6.0
v 10.98 45.86 6.0
v 10.98 37.44 6.0
v 7.32 37.44 6.0
v 10.98 45.86 9.0
v 7.32 45.86 9.0
v 10.98 37.44 9.0
v 7.32 37.44 9.0
usemtl color_064
f 513 514 515 516
f 513 514 517 518
f 514 515 519 517
f 515 516 520 519
f 516 513 518 520
f 518 517 519 520
g v3_box_2_1
v 7.32 45.86 24.0
v 10.98 45.86 24.0
v 10.98 37.44 24.0
v 7.32 37.44 24.0
v 10.98 45.86 27.0
v 7.32 45.86 27.0
v 10.98 37.44 27.0
v 7.32 37.44 27.0
usemtl color_065
f 521 522 523 524
f 521 522 525 526
f 522 523 527 525
f 523 524 528 527
f 524 521 526 528
f 526 525 527 528
g v3_stair_E
v 18.3 37.44 0.0
v 21.96 37.44 0.0
v 21.96 34.64 0.0
v 18.3 34.64 0.0
v 21.96 37.44 27.0
v 18.3 37.44 27.0
v 21.96 34.64 27.0
v 18.3 34.64 27.0
usemtl color_066
f 529 530 531 532
f 529 530 533 534
f 530 531 535 533
f 531 532 536 535
f 532 529 534 536
f 534 533 535 536
g v3_entrance
v 0.0 39.94 0.0
v 3.66 39.94 0.0
v 3.66 37.44 0.0
v 0.0 37.44 0.0
v 3.66 39.94 3.0
v 0.0 39.94 3.0
v 3.66 37.44 3.0
v 0.0 37.44 3.0
usemtl color_067
f 537 538 539 540
f 537 538 541 542
f 538 539 543 541
f 539 540 544 543
f 540 537 542 544
f 542 541 543 544
g v3_K_2_2
v 10.98 45.86 24.0
v 14.64 45.86 24.0
v 14.64 37.44 24.0
v 10.98 37.44 24.0
v 14.64 45.86 30.0
v 10.98 45.86 30.0
v 14.64 37.44 30.0
v 10.98 37.44 30.0
usemtl color_068
f 545 546 547 548
f 545 546 549 550
f 546 547 551 549
f 547 548 552 551
f 548 545 550 552
f 550 549 551 552
g v3_corridor_2
v 3.66 37.44 24.0
v 18.3 37.44 24.0
v 18.3 34.64 24.0
v 3.66 34.64 24.0
v 18.3 37.44 27.0
v 3.66 37.44 27.0
v 18.3 34.64 27.0
v 3.66 34.64 27.0
usemtl color_069
f 553 554 555 556
f 553 554 557 558
f 554 555 559 557
f 555 556 560 559
f 556 553 558 560
f 558 557 559 560
g v3_box_0_3
v 14.64 45.86 6.0
v 18.3 45.86 6.0
v 18.3 37.44 6.0
v 14.64 37.44 6.0
v 18.3 45.86 9.0
v 14.64 45.86 9.0
v 18.3 37.44 9.0
v 14.64 37.44 9.0
usemtl color_070
f 561 562 563 564
f 561 562 565 566
f 562 563 567 565
f 563 564 568 567
f 564 561 566 568
f 566 565 567 568
g v4_entrance
v 62.58 48.36 0.0
v 66.24 48.36 0.0
v 66.24 45.86 0.0
v 62.58 45.86 0.0
v 66.24 48.36 3.0
v 62.58 48.36 3.0
v 66.24 45.86 3.0
v 62.58 45.86 3.0
usemtl color_071
f 569 570 571 572
f 569 570 573 574
f 570 571 575 573
f 571 572 576 575
f 572 569 574 576
f 574 573 575 576
g v4_corridor_1
v 66.24 45.86 15.0
v 84.54 45.86 15.0
v 84.54 43.06 15.0
v 66.24 43.06 15.0
v 84.54 45.86 18.0
v 66.24 45.86 18.0
v 84.54 43.06 18.0
v 66.24 43.06 18.0
usemtl color_072
f 577 578 579 580
f 577 578 581 582
f 578 579 583 581
f 579 580 584 583
f 580 577 582 584
f 582 581 583 584
g v4_stair_W
v 62.58 45.86 0.0
v 66.24 45.86 0.0
v 66.24 43.06 0.0
v 62.58 43.06 0.0
v 66.24 45.86 27.0
v 62.58 45.86 27.0
v 66.24 43.06 27.0
v 62.58 43.06 27.0
usemtl color_073
f 585 586 587 588
f 585 586 589 590
f 586 587 591 589
f 587 588 592 591
f 588 585 590 592
f 590 589 591 592
g v4_K_1_4
v 80.88 54.28 15.0
v 84.54 54.28 15.0
v 84.54 45.86 15.0
v 80.88 45.86 15.0
v 84.54 54.28 21.0
v 80.88 54.28 21.0
v 84.54 45.86 21.0
v 80.88 45.86 21.0
usemtl color_074
f 593 594 595 596
f 593 594 597 598
f 594 595 599 597
f 595 596 600 599
f 596 593 598 600
f 598 597 599 600
g v4_box_0_3
v 77.22 54.28 6.0
v 80.88 54.28 6.0
v 80.88 45.86 6.0
v 77.22 45.86 6.0
v 80.88 54.28 9.0
v 77.22 54.28 9.0
v 80.88 45.86 9.0
v 77.22 45.86 9.0
usemtl color_075
f 601 602 603 604
f 601 602 605 606
f 602 603 607 605
f 603 604 608 607
f 604 601 606 608
f 606 605 607 608
g v4_box_1_1
v 69.9 54.28 15.0
v 73.56 54.28 15.0
v 73.56 45.86 15.0
v 69.9 45.86 15.0
v 73.56 54.28 18.0
v 69.9 54.28 18.0
v 73.56 45.86 18.0
v 69.9 45.86 18.0
usemtl color_076
f 609 610 611 612
f 609 610 613 614
f 610 611 615 613
f 611 612 616 615
f 612 609 614 616
f 614 613 615 616
g v4_K_2_2
v 73.56 54.28 24.0
v 77.22 54.28 24.0
v 77.22 45.86 24.0
v 73.56 45.86 24.0
v 77.22 54.28 30.0
v 73.56 54.28 30.0
v 77.22 45.86 30.0
v 73.56 45.86 30.0
usemtl color_077
f 617 618 619 620
f 617 618 621 622
f 618 619 623 621
f 619 620 624 623
f 620 617 622 624
f 622 621 623 624
g v4_K_1_2
v 73.56 54.28 15.0
v 77.22 54.28 15.0
v 77.22 45.86 15.0
v 73.56 45.86 15.0
v 77.22 54.28 21.0
v 73.56 54.28 21.0
v 77.22 45.86 21.0
v 73.56 45.86 21.0
usemtl color_078
f 625 626 627 628
f 625 626 629 630
f 626 627 631 629
f 627 628 632 631
f 628 625 630 632
f 630 629 631 632
g v4_stair_E
v 84.54 45.86 0.0
v 88.2 45.86 0.0
v 88.2 43.06 0.0
v 84.54 43.06 0.0
v 88.2 45.86 27.0
v 84.54 45.86 27.0
v 88.2 43.06 27.0
v 84.54 43.06 27.0
usemtl color_079
f 633 634 635 636
f 633 634 637 638
f 634 635 639 637
f 635 636 640 639
f 636 633 638 640
f 638 637 639 640
g v4_corridor_2
v 66.24 45.86 24.0
v 77.22 45.86 24.0
v 77.22 43.06 24.0
v 66.24 43.06 24.0
v 77.22 45.86 27.0
v 66.24 45.86 27.0
v 77.22 43.06 27.0
v 66.24 43.06 27.0
usemtl color_080
f 641 642 643 644
f 641 642 645 646
f 642 643 647 645
f 643 644 648 647
f 644 641 646 648
f 646 645 647 648
g v4_corridor_0
v 66.24 45.86 6.0
v 80.88 45.86 6.0
v 80.88 43.06 6.0
v 66.24 43.06 6.0
v 80.88 45.86 9.0
v 66.24 45.86 9.0
v 80.88 43.06 9.0
v 66.24 43.06 9.0
usemtl color_081
f 649 650 651 652
f 649 650 653 654
f 650 651 655 653
f 651 652 656 655
f 652 649 654 656
f 654 653 655 656
g v4_F_0_0
v 66.24 43.06 3.0
v 69.9 43.06 3.0
v 69.9 34.64 3.0
v 66.24 34.64 3.0
v 69.9 43.06 9.0
v 66.24 43.06 9.0
v 69.9 34.64 9.0
v 66.24 34.64 9.0
usemtl color_082
f 657 658 659 660
f 657 658 661 662
f 658 659 663 661
f 659 660 664 663
f 660 657 662 664
f 662 661 663 664
g v4_box_0_1
v 69.9 54.28 6.0
v 73.56 54.28 6.0
v 73.56 45.86 6.0
v 69.9 45.86 6.0
v 73.56 54.28 9.0
v 69.9 54.28 9.0
v 73.56 45.86 9.0
v 69.9 45.86 9.0
usemtl color_083
f 665 666 667 668
f 665 666 669 670
f 666 667 671 669
f 667 668 672 671
f 668 665 670 672
f 670 669 671 672
g v4_K_1_0
v 66.24 54.28 15.0
v 69.9 54.28 15.0
v 69.9 45.86 15.0
v 66.24 45.86 15.0
v 69.9 54.28 21.0
v 66.24 54.28 21.0
v 69.9 45.86 21.0
v 66.24 45.86 21.0
usemtl color_084
f 673 674 675 676
f 673 674 677 678
f 674 675 679 677
f 675 676 680 679
f 676 673 678 680
f 678 677 679 680
g v4_F_0_2
v 73.56 43.06 3.0
v 77.22 43.06 3.0
v 77.22 34.64 3.0
v 73.56 34.64 3.0
v 77.22 43.06 9.0
v 73.56 43.06 9.0
v 77.22 34.64 9.0
v 73.56 34.64 9.0
usemtl color_085
f 681 682 683 684
f 681 682 685 686
f 682 683 687 685
f 683 684 688 687
f 684 681 686 688
f 686 685 687 688
g v4_K_2_0
v 66.24 54.28 24.0
v 69.9 54.28 24.0
v 69.9 45.86 24.0
v 66.24 45.86 24.0
v 69.9 54.28 30.0
v 66.24 54.28 30.0
v 69.9 45.86 30.0
v 66.24 45.86 30.0
usemtl color_086
f 689 690 691 692
f 689 690 693 694
f 690 691 695 693
f 691 692 696 695
f 692 689 694 696
f 694 693 695 696
g v4_box_1_3
v 77.22 54.28 15.0
v 80.88 54.28 15.0
v 80.88 45.86 15.0
v 77.22 45.86 15.0
v 80.88 54.28 18.0
v 77.22 54.28 18.0
v 80.88 45.86 18.0
v 77.22 45.86 18.0
usemtl color_087
f 697 698 699 700
f 697 698 701 702
f 698 699 703 701
f 699 700 704 703
f 700 697 702 704
f 702 701 703 704
g v4_K_2_1
v 69.9 54.28 24.0
v 73.56 54.28 24.0
v 73.56 45.86 24.0
v 69.9 45.86 24.0
v 73.56 54.28 30.0
v 69.9 54.28 30.0
v 73.56 45.86 30.0
v 69.9 45.86 30.0
usemtl color_088
f 705 706 707 708
f 705 706 709 710
f 706 707 711 709
f 707 708 712 711
f 708 705 710 712
f 710 709 711 712
g v5_K_0_0
v 128.82 54.28 6.0
v 132.48 54.28 6.0
v 132.48 45.86 6.0
v 128.82 45.86 6.0
v 132.48 54.28 12.0
v 128.82 54.28 12.0
v 132.48 45.86 12.0
v 128.82 45.86 12.0
usemtl color_089
f 713 714 715 716
f 713 714 717 718
f 714 715 719 717
f 715 716 720 719
f 716 713 718 720
f 718 717 719 720
g v5_corridor_0
v 128.82 45.86 6.0
v 169.08 45.86 6.0
v 169.08 43.06 6.0
v 128.82 43.06 6.0
v 169.08 45.86 9.0
v 128.82 45.86 9.0
v 169.08 43.06 9.0
v 128.82 43.06 9.0
usemtl color_090
f 721 722 723 724
f 721 722 725 726
f 722 723 727 725
f 723 724 728 727
f 724 721 726 728
f 726 725 727 728
g v5_K_0_2
v 136.14 54.28 6.0
v 139.8 54.28 6.0
v 139.8 45.86 6.0
v 136.14 45.86 6.0
v 139.8 54.28 12.0
v 136.14 54.28 12.0
v 139.8 45.86 12.0
v 136.14 45.86 12.0
usemtl color_091
f 729 730 731 732
f 729 730 733 734
f 730 731 735 733
f 731 732 736 735
f 732 729 734 736
f 734 733 735 736
g v5_F_0_1
v 132.48 43.06 3.0
v 136.14 43.06 3.0
v 136.14 34.64 3.0
v 132.48 34.64 3.0
v 136.14 43.06 9.0
v 132.48 43.06 9.0
v 136.14 34.64 9.0
v 132.48 34.64 9.0
usemtl color_092
f 737 738 739 740
f 737 738 741 742
f 738 739 743 741
f 739 740 744 743
f 740 737 742 744
f 742 741 743 744
g v5_entrance
v 125.16 48.36 0.0
v 128.82 48.36 0.0
v 128.82 45.86 0.0
v 125.16 45.86 0.0
v 128.82 48.36 3.0
v 125.16 48.36 3.0
v 128.82 45.86 3.0
v 125.16 45.86 3.0
usemtl color_093
f 745 746 747 748
f 745 746 749 750
f 746 747 751 749
f 747 748 752 751
f 748 745 750 752
f 750 749 751 752
g v5_box_0_3
v 139.8 54.28 6.0
v 143.46 54.28 6.0
v 143.46 45.86 6.0
v 139.8 45.86 6.0
v 143.46 54.28 9.0
v 139.8 54.28 9.0
v 143.46 45.86 9.0
v 139.8 45.86 9.0
usemtl color_094
f 753 754 755 756
f 753 754 757 758
f 754 755 759 757
f 755 756 760 759
f 756 753 758 760
f 758 757 759 760
g v5_K_0_8
v 158.1 54.28 6.0
v 161.76 54.28 6.0
v 161.76 45.86 6.0
v 158.1 45.86 6.0
v 161.76 54.28 12.0
v 158.1 54.28 12.0
v 161.76 45.86 12.0
v 158.1 45.86 12.0
usemtl color_095
f 761 762 763 764
f 761 762 765 766
f 762 763 767 765
f 763 764 768 767
f 764 761 766 768
f 766 765 767 768
g v5_F_0_5
v 147.12 43.06 3.0
v 150.78 43.06 3.0
v 150.78 34.64 3.0
v 147.12 34.64 3.0
v 150.78 43.06 9.0
v 147.12 43.06 9.0
v 150.78 34.64 9.0
v 147.12 34.64 9.0
usemtl color_096
f 769 770 771 772
f 769 770 773 774
f 770 771 775 773
f 771 772 776 775
f 772 769 774 776
f 774 773 775 776
g v5_K_0_6
v 150.78 54.28 6.0
v 154.44 54.28 6.0
v 154.44 45.86 6.0
v 150.78 45.86 6.0
v 154.44 54.28 12.0
v 150.78 54.28 12.0
v 154.44 45.86 12.0
v 150.78 45.86 12.0
usemtl color_097
f 777 778 779 780
f 777 778 781 782
f 778 779 783 781
f 779 780 784 783
f 780 777 782 784
f 782 781 783 784
g v5_K_0_4
v 143.46 54.28 6.0
v 147.12 54.28 6.0
v 147.12 45.86 6.0
v 143.46 45.86 6.0
v 147.12 54.28 12.0
v 143.46 54.28 12.0
v 147.12 45.86 12.0
v 143.46 45.86 12.0
usemtl color_098
f 785 786 787 788
f 785 786 789 790
f 786 787 791 789
f 787 788 792 791
f 788 785 790 792
f 790 789 791 792
g v5_box_1_1
v 132.48 54.28 15.0
v 136.14 54.28 15.0
v 136.14 45.86 15.0
v 132.48 45.86 15.0
v 136.14 54.28 18.0
v 132.48 54.28 18.0
v 136.14 45.86 18.0
v 132.48 45.86 18.0
usemtl color_099
f 793 794 795 796
f 793 794 797 798
f 794 795 799 797
f 795 796 800 799
f 796 793 798 800
f 798 797 799 800
g v5_F_1_2
v 136.14 43.06 12.0
v 139.8 43.06 12.0
v 139.8 34.64 12.0
v 136.14 34.64 12.0
v 139.8 43.06 18.0
v 136.14 43.06 18.0
v 139.8 34.64 18.0
v 136.14 34.64 18.0
usemtl color_100
f 801 802 803 804
f 801 802 805 806
f 802 803 807 805
f 803 804 808 807
f 804 801 806 808
f 806 805 807 808
g v5_box_0_7
v 154.44 54.28 6.0
v 158.1 54.28 6.0
v 158.1 45.86 6.0
v 154.44 45.86 6.0
v 158.1 54.28 9.0
v 154.44 54.28 9.0
v 158.1 45.86 9.0
v 154.44 45.86 9.0
usemtl color_101
f 809 810 811 812
f 809 810 813 814
f 810 811 815 813
f 811 812 816 815
f 812 809 814 816
f 814 813 815 816
g v5_stair_E
v 169.08 45.86 0.0
v 172.74 45.86 0.0
v 172.74 43.06 0.0
v 169.08 43.06 0.0
v 172.74 45.86 18.0
v 169.08 45.86 18.0
v 172.74 43.06 18.0
v 169.08 43.06 18.0
usemtl color_102
f 817 818 819 820
f 817 818 821 822
f 818 819 823 821
f 819 820 824 823
f 820 817 822 824
f 822 821 823 824
g v5_F_1_0
v 128.82 43.06 12.0
v 132.48 43.06 12.0
v 132.48 34.64 12.0
v 128.82 34.64 12.0
v 132.48 43.06 18.0
v 128.82 43.06 18.0
v 132.48 34.64 18.0
v 128.82 34.64 18.0
usemtl color_103
f 825 826 827 828
f 825 826 829 830
f 826 827 831 829
f 827 828 832 831
f 828 825 830 832
f 830 829 831 832
g v5_corridor_1
v 128.82 45.86 15.0
v 139.8 45.86 15.0
v 139.8 43.06 15.0
v 128.82 43.06 15.0
v 139.8 45.86 18.0
v 128.82 45.86 18.0
v 139.8 43.06 18.0
v 128.82 43.06 18.0
usemtl color_104
f 833 834 835 836
f 833 834 837 838
f 834 835 839 837
f 835 836 840 839
f 836 833 838 840
f 838 837 839 840
g v5_stair_W
v 125.16 45.86 0.0
v 128.82 45.86 0.0
v 128.82 43.06 0.0
v 125.16 43.06 0.0
v 128.82 45.86 18.0
v 125.16 45.86 18.0
v 128.82 43.06 18.0
v 125.16 43.06 18.0
usemtl color_105
f 841 842 843 844
f 841 842 845 846
f 842 843 847 845
f 843 844 848 847
f 844 841 846 848
f 846 845 847 848
g v5_K_0_10
v 165.42 54.28 6.0
v 169.08 54.28 6.0
v 169.08 45.86 6.0
v 165.42 45.86 6.0
v 169.08 54.28 12.0
v 165.42 54.28 12.0
v 169.08 45.86 12.0
v 165.42 45.86 12.0
usemtl color_106
f 849 850 851 852
f 849 850 853 854
f 850 851 855 853
f 851 852 856 855
f 852 849 854 856
f 854 853 855 856
g v5_K_0_9
v 161.76 54.28 6.0
v 165.42 54.28 6.0
v 165.42 45.86 6.0
v 161.76 45.86 6.0
v 165.42 54.28 12.0
v 161.76 54.28 12.0
v 165.42 45.86 12.0
v 161.76 45.86 12.0
usemtl color_107
f 857 858 859 860
f 857 858 861 862
f 858 859 863 861
f 859 860 864 863
f 860 857 862 864
f 862 861 863 864