# topologicpy The version that you are using (0.9.43) is OLDER than the latest version (0.9.57) from PyPI. Please consider upgrading to the latest version.
mtllib example.mtl

g v0_b
v 7.32 49.01 0.0
v 10.98 49.01 0.0
v 10.98 42.0 0.0
v 7.32 42.0 0.0
v 10.98 49.01 9.9
v 7.32 49.01 9.9
v 10.98 42.0 9.9
v 7.32 42.0 9.9
usemtl color_000
f 1 2 3 4
f 1 2 5 6
f 2 3 7 5
f 3 4 8 7
f 4 1 6 8
f 6 5 7 8
g v0_n0
v 14.64 46.905 0.0
v 18.3 46.905 0.0
v 18.3 44.105 0.0
v 14.64 44.105 0.0
v 18.3 46.905 4.89
v 14.64 46.905 4.89
v 18.3 44.105 4.89
v 14.64 44.105 4.89
usemtl color_001
f 9 10 11 12
f 9 10 13 14
f 10 11 15 13
f 11 12 16 15
f 12 9 14 16
f 14 13 15 16
g v0_n1
v 21.96 49.01 0.0
v 25.62 49.01 0.0
v 25.62 42.0 0.0
v 21.96 42.0 0.0
v 25.62 49.01 9.9
v 21.96 49.01 9.9
v 25.62 42.0 9.9
v 21.96 42.0 9.9
usemtl color_002
f 17 18 19 20
f 17 18 21 22
f 18 19 23 21
f 19 20 24 23
f 20 17 22 24
f 22 21 23 24
g v0_n2
v 14.64 70.01 0.0
v 18.3 70.01 0.0
v 18.3 63.0 0.0
v 14.64 63.0 0.0
v 18.3 70.01 9.9
v 14.64 70.01 9.9
v 18.3 63.0 9.9
v 14.64 63.0 9.9
usemtl color_003
f 25 26 27 28
f 25 26 29 30
f 26 27 31 29
f 27 28 32 31
f 28 25 30 32
f 30 29 31 32
g v0_n20
v 15.97 25.005 0.0
v 16.97 25.005 0.0
v 16.97 24.005 0.0
v 15.97 24.005 0.0
v 16.97 25.005 1.0
v 15.97 25.005 1.0
v 16.97 24.005 1.0
v 15.97 24.005 1.0
usemtl color_004
f 33 34 35 36
f 33 34 37 38
f 34 35 39 37
f 35 36 40 39
f 36 33 38 40
f 38 37 39 40
g v0_n21
v 8.65 25.005 0.0
v 9.65 25.005 0.0
v 9.65 24.005 0.0
v 8.65 24.005 0.0
v 9.65 25.005 1.0
v 8.65 25.005 1.0
v 9.65 24.005 1.0
v 8.65 24.005 1.0
usemtl color_005
f 41 42 43 44
f 41 42 45 46
f 42 43 47 45
f 43 44 48 47
f 44 41 46 48
f 46 45 47 48
g v0_n22
v 8.65 67.005 0.0
v 9.65 67.005 0.0
v 9.65 66.005 0.0
v 8.65 66.005 0.0
v 9.65 67.005 1.0
v 8.65 67.005 1.0
v 9.65 66.005 1.0
v 8.65 66.005 1.0
usemtl color_006
f 49 50 51 52
f 49 50 53 54
f 50 51 55 53
f 51 52 56 55
f 52 49 54 56
f 54 53 55 56
g v0_n3
v 21.96 28.01 0.0
v 25.62 28.01 0.0
v 25.62 21.0 0.0
v 21.96 21.0 0.0
v 25.62 28.01 9.9
v 21.96 28.01 9.9
v 25.62 21.0 9.9
v 21.96 21.0 9.9
usemtl color_007
f 57 58 59 60
f 57 58 61 62
f 58 59 63 61
f 59 60 64 63
f 60 57 62 64
f 62 61 63 64
g v0_n4
v 21.96 70.01 0.0
v 25.62 70.01 0.0
v 25.62 63.0 0.0
v 21.96 63.0 0.0
v 25.62 70.01 9.9
v 21.96 70.01 9.9
v 25.62 63.0 9.9
v 21.96 63.0 9.9
usemtl color_008
f 65 66 67 68
f 65 66 69 70
f 66 67 71 69
f 67 68 72 71
f 68 65 70 72
f 70 69 71 72
g v0_n5
v 0.0 7.01 0.0
v 3.66 7.01 0.0
v 3.66 0.0 0.0
v 0.0 0.0 0.0
v 3.66 7.01 9.9
v 0.0 7.01 9.9
v 3.66 0.0 9.9
v 0.0 0.0 9.9
usemtl color_009
f 73 74 75 76
f 73 74 77 78
f 74 75 79 77
f 75 76 80 79
f 76 73 78 80
f 78 77 79 80
g v0_n7
v 1.33 25.005 0.0
v 2.33 25.005 0.0
v 2.33 24.005 0.0
v 1.33 24.005 0.0
v 2.33 25.005 1.0
v 1.33 25.005 1.0
v 2.33 24.005 1.0
v 1.33 24.005 1.0
usemtl color_010
f 81 82 83 84
f 81 82 85 86
f 82 83 87 85
f 83 84 88 87
f 84 81 86 88
f 86 85 87 88
g v0_n8
v 1.33 46.005 0.0
v 2.33 46.005 0.0
v 2.33 45.005 0.0
v 1.33 45.005 0.0
v 2.33 46.005 1.0
v 1.33 46.005 1.0
v 2.33 45.005 1.0
v 1.33 45.005 1.0
usemtl color_011
f 89 90 91 92
f 89 90 93 94
f 90 91 95 93
f 91 92 96 95
f 92 89 94 96
f 94 93 95 96
g v0_n9
v 14.64 88.905 0.0
v 18.3 88.905 0.0
v 18.3 86.105 0.0
v 14.64 86.105 0.0
v 18.3 88.905 4.89
v 14.64 88.905 4.89
v 18.3 86.105 4.89
v 14.64 86.105 4.89
usemtl color_012
f 97 98 99 100
f 97 98 101 102
f 98 99 103 101
f 99 100 104 103
f 100 97 102 104
f 102 101 103 104
g v0_n25
v 29.28 67.905 0.0
v 32.94 67.905 0.0
v 32.94 65.105 0.0
v 29.28 65.105 0.0
v 32.94 67.905 4.89
v 29.28 67.905 4.89
v 32.94 65.105 4.89
v 29.28 65.105 4.89
usemtl color_013
f 105 106 107 108
f 105 106 109 110
f 106 107 111 109
f 107 108 112 111
f 108 105 110 112
f 110 109 111 112
g v0_n10
v 21.96 91.01 0.0
v 25.62 91.01 0.0
v 25.62 84.0 0.0
v 21.96 84.0 0.0
v 25.62 91.01 9.9
v 21.96 91.01 9.9
v 25.62 84.0 9.9
v 21.96 84.0 9.9
usemtl color_014
f 113 114 115 116
f 113 114 117 118
f 114 115 119 117
f 115 116 120 119
f 116 113 118 120
f 118 117 119 120
g v0_n11
v 7.32 91.01 0.0
v 10.98 91.01 0.0
v 10.98 84.0 0.0
v 7.32 84.0 0.0
v 10.98 91.01 9.9
v 7.32 91.01 9.9
v 10.98 84.0 9.9
v 7.32 84.0 9.9
usemtl color_015
f 121 122 123 124
f 121 122 125 126
f 122 123 127 125
f 123 124 128 127
f 124 121 126 128
f 126 125 127 128
g v0_n12
v 14.64 112.01 0.0
v 18.3 112.01 0.0
v 18.3 105.0 0.0
v 14.64 105.0 0.0
v 18.3 112.01 9.9
v 14.64 112.01 9.9
v 18.3 105.0 9.9
v 14.64 105.0 9.9
usemtl color_016
f 129 130 131 132
f 129 130 133 134
f 130 131 135 133
f 131 132 136 135
f 132 129 134 136
f 134 133 135 136
g v0_n13
v 7.32 112.01 0.0
v 10.98 112.01 0.0
v 10.98 105.0 0.0
v 7.32 105.0 0.0
v 10.98 112.01 9.9
v 7.32 112.01 9.9
v 10.98 105.0 9.9
v 7.32 105.0 9.9
usemtl color_017
f 137 138 139 140
f 137 138 141 142
f 138 139 143 141
f 139 140 144 143
f 140 137 142 144
f 142 141 143 144
g v0_n14
v 21.96 112.01 0.0
v 25.62 112.01 0.0
v 25.62 105.0 0.0
v 21.96 105.0 0.0
v 25.62 112.01 9.9
v 21.96 112.01 9.9
v 25.62 105.0 9.9
v 21.96 105.0 9.9
usemtl color_018
f 145 146 147 148
f 145 146 149 150
f 146 147 151 149
f 147 148 152 151
f 148 145 150 152
f 150 149 151 152
g v0_n15
v 0.0 70.01 0.0
v 3.66 70.01 0.0
v 3.66 63.0 0.0
v 0.0 63.0 0.0
v 3.66 70.01 9.9
v 0.0 70.01 9.9
v 3.66 63.0 9.9
v 0.0 63.0 9.9
usemtl color_019
f 153 154 155 156
f 153 154 157 158
f 154 155 159 157
f 155 156 160 159
f 156 153 158 160
f 158 157 159 160
g v0_n16
v 0.0 91.01 0.0
v 3.66 91.01 0.0
v 3.66 84.0 0.0
v 0.0 84.0 0.0
v 3.66 91.01 9.9
v 0.0 91.01 9.9
v 3.66 84.0 9.9
v 0.0 84.0 9.9
usemtl color_020
f 161 162 163 164
f 161 162 165 166
f 162 163 167 165
f 163 164 168 167
f 164 161 166 168
f 166 165 167 168
g v0_n17
v 0.0 112.01 0.0
v 3.66 112.01 0.0
v 3.66 105.0 0.0
v 0.0 105.0 0.0
v 3.66 112.01 9.9
v 0.0 112.01 9.9
v 3.66 105.0 9.9
v 0.0 105.0 9.9
usemtl color_021
f 169 170 171 172
f 169 170 173 174
f 170 171 175 173
f 171 172 176 175
f 172 169 174 176
f 174 173 175 176
g v0_n18
v 0.0 133.01 0.0
v 3.66 133.01 0.0
v 3.66 126.0 0.0
v 0.0 126.0 0.0
v 3.66 133.01 9.9
v 0.0 133.01 9.9
v 3.66 126.0 9.9
v 0.0 126.0 9.9
usemtl color_022
f 177 178 179 180
f 177 178 181 182
f 178 179 183 181
f 179 180 184 183
f 180 177 182 184
f 182 181 183 184
g v0_n19
v 7.32 133.01 0.0
v 10.98 133.01 0.0
v 10.98 126.0 0.0
v 7.32 126.0 0.0
v 10.98 133.01 9.9
v 7.32 133.01 9.9
v 10.98 126.0 9.9
v 7.32 126.0 9.9
usemtl color_023
f 185 186 187 188
f 185 186 189 190
f 186 187 191 189
f 187 188 192 191
f 188 185 190 192
f 190 189 191 192
g v0_n23
v 15.97 130.005 0.0
v 16.97 130.005 0.0
v 16.97 129.005 0.0
v 15.97 129.005 0.0
v 16.97 130.005 1.0
v 15.97 130.005 1.0
v 16.97 129.005 1.0
v 15.97 129.005 1.0
usemtl color_024
f 193 194 195 196
f 193 194 197 198
f 194 195 199 197
f 195 196 200 199
f 196 193 198 200
f 198 197 199 200
g v0_n24
v 23.29 130.005 0.0
v 24.29 130.005 0.0
v 24.29 129.005 0.0
v 23.29 129.005 0.0
v 24.29 130.005 1.0
v 23.29 130.005 1.0
v 24.29 129.005 1.0
v 23.29 129.005 1.0
usemtl color_025
f 201 202 203 204
f 201 202 205 206
f 202 203 207 205
f 203 204 208 207
f 204 201 206 208
f 206 205 207 208
g v0_n26
v 37.93 67.005 0.0
v 38.93 67.005 0.0
v 38.93 66.005 0.0
v 37.93 66.005 0.0
v 38.93 67.005 1.0
v 37.93 67.005 1.0
v 38.93 66.005 1.0
v 37.93 66.005 1.0
usemtl color_026
f 209 210 211 212
f 209 210 213 214
f 210 211 215 213
f 211 212 216 215
f 212 209 214 216
f 214 213 215 216
g v0_n27
v 30.61 88.005 0.0
v 31.61 88.005 0.0
v 31.61 87.005 0.0
v 30.61 87.005 0.0
v 31.61 88.005 1.0
v 30.61 88.005 1.0
v 31.61 87.005 1.0
v 30.61 87.005 1.0
usemtl color_027
f 217 218 219 220
f 217 218 221 222
f 218 219 223 221
f 219 220 224 223
f 220 217 222 224
f 222 221 223 224
g v0_n28
v 30.61 46.005 0.0
v 31.61 46.005 0.0
v 31.61 45.005 0.0
v 30.61 45.005 0.0
v 31.61 46.005 1.0
v 30.61 46.005 1.0
v 31.61 45.005 1.0
v 30.61 45.005 1.0
usemtl color_028
f 225 226 227 228
f 225 226 229 230
f 226 227 231 229
f 227 228 232 231
f 228 225 230 232
f 230 229 231 232
g v0_n29
v 37.93 46.005 0.0
v 38.93 46.005 0.0
v 38.93 45.005 0.0
v 37.93 45.005 0.0
v 38.93 46.005 1.0
v 37.93 46.005 1.0
v 38.93 45.005 1.0
v 37.93 45.005 1.0
usemtl color_029
f 233 234 235 236
f 233 234 237 238
f 234 235 239 237
f 235 236 240 239
f 236 233 238 240
f 238 237 239 240
g v0_n6
v 36.6 91.01 0.0
v 40.26 91.01 0.0
v 40.26 84.0 0.0
v 36.6 84.0 0.0
v 40.26 91.01 9.9
v 36.6 91.01 9.9
v 40.26 84.0 9.9
v 36.6 84.0 9.9
usemtl color_030
f 241 242 243 244
f 241 242 245 246
f 242 243 247 245
f 243 244 248 247
f 244 241 246 248
f 246 245 247 248
g v1_b
v 91.86 49.01 0.0
v 95.52 49.01 0.0
v 95.52 42.0 0.0
v 91.86 42.0 0.0
v 95.52 49.01 9.9
v 91.86 49.01 9.9
v 95.52 42.0 9.9
v 91.86 42.0 9.9
usemtl color_031
f 249 250 251 252
f 249 250 253 254
f 250 251 255 253
f 251 252 256 255
f 252 249 254 256
f 254 253 255 256
g v1_n1
v 99.18 46.905 0.0
v 102.84 46.905 0.0
v 102.84 44.105 0.0
v 99.18 44.105 0.0
v 102.84 46.905 4.89
v 99.18 46.905 4.89
v 102.84 44.105 4.89
v 99.18 44.105 4.89
usemtl color_032
f 257 258 259 260
f 257 258 261 262
f 258 259 263 261
f 259 260 264 263
f 260 257 262 264
f 262 261 263 264
g v1_n11
v 84.54 49.01 0.0
v 88.2 49.01 0.0
v 88.2 42.0 0.0
v 84.54 42.0 0.0
v 88.2 49.01 9.9
v 84.54 49.01 9.9
v 88.2 42.0 9.9
v 84.54 42.0 9.9
usemtl color_033
f 265 266 267 268
f 265 266 269 270
f 266 267 271 269
f 267 268 272 271
f 268 265 270 272
f 270 269 271 272
g v1_n18
v 91.86 70.01 0.0
v 95.52 70.01 0.0
v 95.52 63.0 0.0
v 91.86 63.0 0.0
v 95.52 70.01 9.9
v 91.86 70.01 9.9
v 95.52 63.0 9.9
v 91.86 63.0 9.9
usemtl color_034
f 273 274 275 276
f 273 274 277 278
f 274 275 279 277
f 275 276 280 279
f 276 273 278 280
f 278 277 279 280
g v1_n0
v 106.5 49.01 0.0
v 110.16 49.01 0.0
v 110.16 42.0 0.0
v 106.5 42.0 0.0
v 110.16 49.01 9.9
v 106.5 49.01 9.9
v 110.16 42.0 9.9
v 106.5 42.0 9.9
usemtl color_035
f 281 282 283 284
f 281 282 285 286
f 282 283 287 285
f 283 284 288 287
f 284 281 286 288
f 286 285 287 288
g v1_n19
v 99.18 70.01 0.0
v 102.84 70.01 0.0
v 102.84 63.0 0.0
v 99.18 63.0 0.0
v 102.84 70.01 9.9
v 99.18 70.01 9.9
v 102.84 63.0 9.9
v 99.18 63.0 9.9
usemtl color_036
f 289 290 291 292
f 289 290 293 294
f 290 291 295 293
f 291 292 296 295
f 292 289 294 296
f 294 293 295 296
g v1_n20
v 84.54 70.01 0.0
v 88.2 70.01 0.0
v 88.2 63.0 0.0
v 84.54 63.0 0.0
v 88.2 70.01 9.9
v 84.54 70.01 9.9
v 88.2 63.0 9.9
v 84.54 63.0 9.9
usemtl color_037
f 297 298 299 300
f 297 298 301 302
f 298 299 303 301
f 299 300 304 303
f 300 297 302 304
f 302 301 303 304
g v1_n2
v 113.82 46.905 0.0
v 117.48 46.905 0.0
v 117.48 44.105 0.0
v 113.82 44.105 0.0
v 117.48 46.905 4.89
v 113.82 46.905 4.89
v 117.48 44.105 4.89
v 113.82 44.105 4.89
usemtl color_038
f 305 306 307 308
f 305 306 309 310
f 306 307 311 309
f 307 308 312 311
f 308 305 310 312
f 310 309 311 312
g v1_n7
v 106.5 67.905 0.0
v 110.16 67.905 0.0
v 110.16 65.105 0.0
v 106.5 65.105 0.0
v 110.16 67.905 4.89
v 106.5 67.905 4.89
v 110.16 65.105 4.89
v 106.5 65.105 4.89
usemtl color_039
f 313 314 315 316
f 313 314 317 318
f 314 315 319 317
f 315 316 320 319
f 316 313 318 320
f 318 317 319 320
g v1_n3
v 121.14 49.01 0.0
v 124.8 49.01 0.0
v 124.8 42.0 0.0
v 121.14 42.0 0.0
v 124.8 49.01 9.9
v 121.14 49.01 9.9
v 124.8 42.0 9.9
v 121.14 42.0 9.9
usemtl color_040
f 321 322 323 324
f 321 322 325 326
f 322 323 327 325
f 323 324 328 327
f 324 321 326 328
f 326 325 327 328
g v1_n4
v 113.82 70.01 0.0
v 117.48 70.01 0.0
v 117.48 63.0 0.0
v 113.82 63.0 0.0
v 117.48 70.01 9.9
v 113.82 70.01 9.9
v 117.48 63.0 9.9
v 113.82 63.0 9.9
usemtl color_041
f 329 330 331 332
f 329 330 333 334
f 330 331 335 333
f 331 332 336 335
f 332 329 334 336
f 334 333 335 336
g v1_n5
v 113.82 28.01 0.0
v 117.48 28.01 0.0
v 117.48 21.0 0.0
v 113.82 21.0 0.0
v 117.48 28.01 9.9
v 113.82 28.01 9.9
v 117.48 21.0 9.9
v 113.82 21.0 9.9
usemtl color_042
f 337 338 339 340
f 337 338 341 342
f 338 339 343 341
f 339 340 344 343
f 340 337 342 344
f 342 341 343 344
g v1_n6
v 106.5 28.01 0.0
v 110.16 28.01 0.0
v 110.16 21.0 0.0
v 106.5 21.0 0.0
v 110.16 28.01 9.9
v 106.5 28.01 9.9
v 110.16 21.0 9.9
v 106.5 21.0 9.9
usemtl color_043
f 345 346 347 348
f 345 346 349 350
f 346 347 351 349
f 347 348 352 351
f 348 345 350 352
f 350 349 351 352
g v1_n10
v 106.5 91.01 0.0
v 110.16 91.01 0.0
v 110.16 84.0 0.0
v 106.5 84.0 0.0
v 110.16 91.01 9.9
v 106.5 91.01 9.9
v 110.16 84.0 9.9
v 106.5 84.0 9.9
usemtl color_044
f 353 354 355 356
f 353 354 357 358
f 354 355 359 357
f 355 356 360 359
f 356 353 358 360
f 358 357 359 360
g v1_n8
v 99.18 91.01 0.0
v 102.84 91.01 0.0
v 102.84 84.0 0.0
v 99.18 84.0 0.0
v 102.84 91.01 9.9
v 99.18 91.01 9.9
v 102.84 84.0 9.9
v 99.18 84.0 9.9
usemtl color_045
f 361 362 363 364
f 361 362 365 366
f 362 363 367 365
f 363 364 368 367
f 364 361 366 368
f 366 365 367 368
g v1_n9
v 113.82 91.01 0.0
v 117.48 91.01 0.0
v 117.48 84.0 0.0
v 113.82 84.0 0.0
v 117.48 91.01 9.9
v 113.82 91.01 9.9
v 117.48 84.0 9.9
v 113.82 84.0 9.9
usemtl color_046
f 369 370 371 372
f 369 370 373 374
f 370 371 375 373
f 371 372 376 375
f 372 369 374 376
f 374 373 375 376
g v1_n12
v 121.14 25.905 0.0
v 124.8 25.905 0.0
v 124.8 23.105 0.0
v 121.14 23.105 0.0
v 124.8 25.905 4.89
v 121.14 25.905 4.89
v 124.8 23.105 4.89
v 121.14 23.105 4.89
usemtl color_047
f 377 378 379 380
f 377 378 381 382
f 378 379 383 381
f 379 380 384 383
f 380 377 382 384
f 382 381 383 384
g v1_n13
v 128.46 28.01 0.0
v 132.12 28.01 0.0
v 132.12 21.0 0.0
v 128.46 21.0 0.0
v 132.12 28.01 9.9
v 128.46 28.01 9.9
v 132.12 21.0 9.9
v 128.46 21.0 9.9
usemtl color_048
f 385 386 387 388
f 385 386 389 390
f 386 387 391 389
f 387 388 392 391
f 388 385 390 392
f 390 389 391 392
g v1_n14
v 121.14 7.01 0.0
v 124.8 7.01 0.0
v 124.8 0.0 0.0
v 121.14 0.0 0.0
v 124.8 7.01 9.9
v 121.14 7.01 9.9
v 124.8 0.0 9.9
v 121.14 0.0 9.9
usemtl color_049
f 393 394 395 396
f 393 394 397 398
f 394 395 399 397
f 395 396 400 399
f 396 393 398 400
f 398 397 399 400
g v1_n15
v 113.82 7.01 0.0
v 117.48 7.01 0.0
v 117.48 0.0 0.0
v 113.82 0.0 0.0
v 117.48 7.01 9.9
v 113.82 7.01 9.9
v 117.48 0.0 9.9
v 113.82 0.0 9.9
usemtl color_050
f 401 402 403 404
f 401 402 405 406
f 402 403 407 405
f 403 404 408 407
f 404 401 406 408
f 406 405 407 408
g v1_n16
v 128.46 7.01 0.0
v 132.12 7.01 0.0
v 132.12 0.0 0.0
v 128.46 0.0 0.0
v 132.12 7.01 9.9
v 128.46 7.01 9.9
v 132.12 0.0 9.9
v 128.46 0.0 9.9
usemtl color_051
f 409 410 411 412
f 409 410 413 414
f 410 411 415 413
f 411 412 416 415
f 412 409 414 416
f 414 413 415 416
g v1_n17
v 128.46 49.01 0.0
v 132.12 49.01 0.0
v 132.12 42.0 0.0
v 128.46 42.0 0.0
v 132.12 49.01 9.9
v 128.46 49.01 9.9
v 132.12 42.0 9.9
v 128.46 42.0 9.9
usemtl color_052
f 417 418 419 420
f 417 418 421 422
f 418 419 423 421
f 419 420 424 423
f 420 417 422 424
f 422 421 423 424
g v1_n21
v 135.78 46.905 0.0
v 139.44 46.905 0.0
v 139.44 44.105 0.0
v 135.78 44.105 0.0
v 139.44 46.905 4.89
v 135.78 46.905 4.89
v 139.44 44.105 4.89
v 135.78 44.105 4.89
usemtl color_053
f 425 426 427 428
f 425 426 429 430
f 426 427 431 429
f 427 428 432 431
f 428 425 430 432
f 430 429 431 432
g v1_n22
v 143.1 49.01 0.0
v 146.76 49.01 0.0
v 146.76 42.0 0.0
v 143.1 42.0 0.0
v 146.76 49.01 9.9
v 143.1 49.01 9.9
v 146.76 42.0 9.9
v 143.1 42.0 9.9
usemtl color_054
f 433 434 435 436
f 433 434 437 438
f 434 435 439 437
f 435 436 440 439
f 436 433 438 440
f 438 437 439 440
g v1_n23
v 135.78 70.01 0.0
v 139.44 70.01 0.0
v 139.44 63.0 0.0
v 135.78 63.0 0.0
v 139.44 70.01 9.9
v 135.78 70.01 9.9
v 139.44 63.0 9.9
v 135.78 63.0 9.9
usemtl color_055
f 441 442 443 444
f 441 442 445 446
f 442 443 447 445
f 443 444 448 447
f 444 441 446 448
f 446 445 447 448
g v1_n24
v 135.78 28.01 0.0
v 139.44 28.01 0.0
v 139.44 21.0 0.0
v 135.78 21.0 0.0
v 139.44 28.01 9.9
v 135.78 28.01 9.9
v 139.44 21.0 9.9
v 135.78 21.0 9.9
usemtl color_056
f 449 450 451 452
f 449 450 453 454
f 450 451 455 453
f 451 452 456 455
f 452 449 454 456
f 454 453 455 456
g v1_n25
v 128.46 70.01 0.0
v 132.12 70.01 0.0
v 132.12 63.0 0.0
v 128.46 63.0 0.0
v 132.12 70.01 9.9
v 128.46 70.01 9.9
v 132.12 63.0 9.9
v 128.46 63.0 9.9
usemtl color_057
f 457 458 459 460
f 457 458 461 462
f 458 459 463 461
f 459 460 464 463
f 460 457 462 464
f 462 461 463 464
g v1_n26
v 143.1 28.01 0.0
v 146.76 28.01 0.0
v 146.76 21.0 0.0
v 143.1 21.0 0.0
v 146.76 28.01 9.9
v 143.1 28.01 9.9
v 146.76 21.0 9.9
v 143.1 21.0 9.9
usemtl color_058
f 465 466 467 468
f 465 466 469 470
f 466 467 471 469
f 467 468 472 471
f 468 465 470 472
f 470 469 471 472
g v1_n27
v 143.1 70.01 0.0
v 146.76 70.01 0.0
v 146.76 63.0 0.0
v 143.1 63.0 0.0
v 146.76 70.01 9.9
v 143.1 70.01 9.9
v 146.76 63.0 9.9
v 143.1 63.0 9.9
usemtl color_059
f 473 474 475 476
f 473 474 477 478
f 474 475 479 477
f 475 476 480 479
f 476 473 478 480
f 478 477 479 480
g v2_b
v 198.36 49.01 0.0
v 202.02 49.01 0.0
v 202.02 42.0 0.0
v 198.36 42.0 0.0
v 202.02 49.01 9.9
v 198.36 49.01 9.9
v 202.02 42.0 9.9
v 198.36 42.0 9.9
usemtl color_060
f 481 482 483 484
f 481 482 485 486
f 482 483 487 485
f 483 484 488 487
f 484 481 486 488
f 486 485 487 488
g v2_n0
v 205.68 46.905 0.0
v 209.34 46.905 0.0
v 209.34 44.105 0.0
v 205.68 44.105 0.0
v 209.34 46.905 4.89
v 205.68 46.905 4.89
v 209.34 44.105 4.89
v 205.68 44.105 4.89
usemtl color_061
f 489 490 491 492
f 489 490 493 494
f 490 491 495 493
f 491 492 496 495
f 492 489 494 496
f 494 493 495 496
g v2_n1
v 213.0 49.01 0.0
v 216.66 49.01 0.0
v 216.66 42.0 0.0
v 213.0 42.0 0.0
v 216.66 49.01 9.9
v 213.0 49.01 9.9
v 216.66 42.0 9.9
v 213.0 42.0 9.9
usemtl color_062
f 497 498 499 500
f 497 498 501 502
f 498 499 503 501
f 499 500 504 503
f 500 497 502 504
f 502 501 503 504
g v2_n10
v 205.68 70.01 0.0
v 209.34 70.01 0.0
v 209.34 63.0 0.0
v 205.68 63.0 0.0
v 209.34 70.01 9.9
v 205.68 70.01 9.9
v 209.34 63.0 9.9
v 205.68 63.0 9.9
usemtl color_063
f 505 506 507 508
f 505 506 509 510
f 506 507 511 509
f 507 508 512 511
f 508 505 510 512
f 510 509 511 512
g v2_n2
v 205.68 28.01 0.0
v 209.34 28.01 0.0
v 209.34 21.0 0.0
v 205.68 21.0 0.0
v 209.34 28.01 9.9
v 205.68 28.01 9.9
v 209.34 21.0 9.9
v 205.68 21.0 9.9
usemtl color_064
f 513 514 515 516
f 513 514 517 518
f 514 515 519 517
f 515 516 520 519
f 516 513 518 520
f 518 517 519 520
g v2_n26
v 198.36 25.755 0.0
v 202.02 25.755 0.0
v 202.02 23.255 0.0
v 198.36 23.255 0.0
v 202.02 25.755 2.58
v 198.36 25.755 2.58
v 202.02 23.255 2.58
v 198.36 23.255 2.58
usemtl color_065
f 521 522 523 524
f 521 522 525 526
f 522 523 527 525
f 523 524 528 527
f 524 521 526 528
f 526 525 527 528
g v2_n3
v 198.36 70.01 0.0
v 202.02 70.01 0.0
v 202.02 63.0 0.0
v 198.36 63.0 0.0
v 202.02 70.01 9.9
v 198.36 70.01 9.9
v 202.02 63.0 9.9
v 198.36 63.0 9.9
usemtl color_066
f 529 530 531 532
f 529 530 533 534
f 530 531 535 533
f 531 532 536 535
f 532 529 534 536
f 534 533 535 536
g v2_n4
v 213.0 28.01 0.0
v 216.66 28.01 0.0
v 216.66 21.0 0.0
v 213.0 21.0 0.0
v 216.66 28.01 9.9
v 213.0 28.01 9.9
v 216.66 21.0 9.9
v 213.0 21.0 9.9
usemtl color_067
f 537 538 539 540
f 537 538 541 542
f 538 539 543 541
f 539 540 544 543
f 540 537 542 544
f 542 541 543 544
g v2_n5
v 213.0 70.01 0.0
v 216.66 70.01 0.0
v 216.66 63.0 0.0
v 213.0 63.0 0.0
v 216.66 70.01 9.9
v 213.0 70.01 9.9
v 216.66 63.0 9.9
v 213.0 63.0 9.9
usemtl color_068
f 545 546 547 548
f 545 546 549 550
f 546 547 551 549
f 547 548 552 551
f 548 545 550 552
f 550 549 551 552
g v2_n6
v 191.04 7.01 0.0
v 194.7 7.01 0.0
v 194.7 0.0 0.0
v 191.04 0.0 0.0
v 194.7 7.01 9.9
v 191.04 7.01 9.9
v 194.7 0.0 9.9
v 191.04 0.0 9.9
usemtl color_069
f 553 554 555 556
f 553 554 557 558
f 554 555 559 557
f 555 556 560 559
f 556 553 558 560
f 558 557 559 560
g v2_n7
v 191.04 28.01 0.0
v 194.7 28.01 0.0
v 194.7 21.0 0.0
v 191.04 21.0 0.0
v 194.7 28.01 9.9
v 191.04 28.01 9.9
v 194.7 21.0 9.9
v 191.04 21.0 9.9
usemtl color_070
f 561 562 563 564
f 561 562 565 566
f 562 563 567 565
f 563 564 568 567
f 564 561 566 568
f 566 565 567 568
g v2_n8
v 191.04 49.01 0.0
v 194.7 49.01 0.0
v 194.7 42.0 0.0
v 191.04 42.0 0.0
v 194.7 49.01 9.9
v 191.04 49.01 9.9
v 194.7 42.0 9.9
v 191.04 42.0 9.9
usemtl color_071
f 569 570 571 572
f 569 570 573 574
f 570 571 575 573
f 571 572 576 575
f 572 569 574 576
f 574 573 575 576
g v2_n9
v 191.04 70.01 0.0
v 194.7 70.01 0.0
v 194.7 63.0 0.0
v 191.04 63.0 0.0
v 194.7 70.01 9.9
v 191.04 70.01 9.9
v 194.7 63.0 9.9
v 191.04 63.0 9.9
usemtl color_072
f 577 578 579 580
f 577 578 581 582
f 578 579 583 581
f 579 580 584 583
f 580 577 582 584
f 582 581 583 584
g v2_n11
v 220.32 28.01 0.0
v 223.98 28.01 0.0
v 223.98 21.0 0.0
v 220.32 21.0 0.0
v 223.98 28.01 9.9
v 220.32 28.01 9.9
v 223.98 21.0 9.9
v 220.32 21.0 9.9
usemtl color_073
f 585 586 587 588
f 585 586 589 590
f 586 587 591 589
f 587 588 592 591
f 588 585 590 592
f 590 589 591 592
g v2_n12
v 183.72 67.905 0.0
v 187.38 67.905 0.0
v 187.38 65.105 0.0
v 183.72 65.105 0.0
v 187.38 67.905 4.89
v 183.72 67.905 4.89
v 187.38 65.105 4.89
v 183.72 65.105 4.89
usemtl color_074
f 593 594 595 596
f 593 594 597 598
f 594 595 599 597
f 595 596 600 599
f 596 593 598 600
f 598 597 599 600
g v2_n13
v 176.4 70.01 0.0
v 180.06 70.01 0.0
v 180.06 63.0 0.0
v 176.4 63.0 0.0
v 180.06 70.01 9.9
v 176.4 70.01 9.9
v 180.06 63.0 9.9
v 176.4 63.0 9.9
usemtl color_075
f 601 602 603 604
f 601 602 605 606
f 602 603 607 605
f 603 604 608 607
f 604 601 606 608
f 606 605 607 608
g v2_n14
v 183.72 91.01 0.0
v 187.38 91.01 0.0
v 187.38 84.0 0.0
v 183.72 84.0 0.0
v 187.38 91.01 9.9
v 183.72 91.01 9.9
v 187.38 84.0 9.9
v 183.72 84.0 9.9
usemtl color_076
f 609 610 611 612
f 609 610 613 614
f 610 611 615 613
f 611 612 616 615
f 612 609 614 616
f 614 613 615 616
g v2_n15
v 183.72 49.01 0.0
v 187.38 49.01 0.0
v 187.38 42.0 0.0
v 183.72 42.0 0.0
v 187.38 49.01 9.9
v 183.72 49.01 9.9
v 187.38 42.0 9.9
v 183.72 42.0 9.9
usemtl color_077
f 617 618 619 620
f 617 618 621 622
f 618 619 623 621
f 619 620 624 623
f 620 617 622 624
f 622 621 623 624
g v2_n16
v 176.4 49.01 0.0
v 180.06 49.01 0.0
v 180.06 42.0 0.0
v 176.4 42.0 0.0
v 180.06 49.01 9.9
v 176.4 49.01 9.9
v 180.06 42.0 9.9
v 176.4 42.0 9.9
usemtl color_078
f 625 626 627 628
f 625 626 629 630
f 626 627 631 629
f 627 628 632 631
f 628 625 630 632
f 630 629 631 632
g v2_n17
v 176.4 91.01 0.0
v 180.06 91.01 0.0
v 180.06 84.0 0.0
v 176.4 84.0 0.0
v 180.06 91.01 9.9
v 176.4 91.01 9.9
v 180.06 84.0 9.9
v 176.4 84.0 9.9
usemtl color_079
f 633 634 635 636
f 633 634 637 638
f 634 635 639 637
f 635 636 640 639
f 636 633 638 640
f 638 637 639 640
g v2_n18
v 191.04 91.01 0.0
v 194.7 91.01 0.0
v 194.7 84.0 0.0
v 191.04 84.0 0.0
v 194.7 91.01 9.9
v 191.04 91.01 9.9
v 194.7 84.0 9.9
v 191.04 84.0 9.9
usemtl color_080
f 641 642 643 644
f 641 642 645 646
f 642 643 647 645
f 643 644 648 647
f 644 641 646 648
f 646 645 647 648
g v2_n19
v 169.08 28.01 0.0
v 172.74 28.01 0.0
v 172.74 21.0 0.0
v 169.08 21.0 0.0
v 172.74 28.01 9.9
v 169.08 28.01 9.9
v 172.74 21.0 9.9
v 169.08 21.0 9.9
usemtl color_081
f 649 650 651 652
f 649 650 653 654
f 650 651 655 653
f 651 652 656 655
f 652 649 654 656
f 654 653 655 656
g v2_n20
v 169.08 49.01 0.0
v 172.74 49.01 0.0
v 172.74 42.0 0.0
v 169.08 42.0 0.0
v 172.74 49.01 9.9
v 169.08 49.01 9.9
v 172.74 42.0 9.9
v 169.08 42.0 9.9
usemtl color_082
f 657 658 659 660
f 657 658 661 662
f 658 659 663 661
f 659 660 664 663
f 660 657 662 664
f 662 661 663 664
g v2_n21
v 198.36 88.905 0.0
v 202.02 88.905 0.0
v 202.02 86.105 0.0
v 198.36 86.105 0.0
v 202.02 88.905 4.89
v 198.36 88.905 4.89
v 202.02 86.105 4.89
v 198.36 86.105 4.89
usemtl color_083
f 665 666 667 668
f 665 666 669 670
f 666 667 671 669
f 667 668 672 671
f 668 665 670 672
f 670 669 671 672
g v2_n22
v 205.68 91.01 0.0
v 209.34 91.01 0.0
v 209.34 84.0 0.0
v 205.68 84.0 0.0
v 209.34 91.01 9.9
v 205.68 91.01 9.9
v 209.34 84.0 9.9
v 205.68 84.0 9.9
usemtl color_084
f 673 674 675 676
f 673 674 677 678
f 674 675 679 677
f 675 676 680 679
f 676 673 678 680
f 678 677 679 680
g v2_n23
v 198.36 112.01 0.0
v 202.02 112.01 0.0
v 202.02 105.0 0.0
v 198.36 105.0 0.0
v 202.02 112.01 9.9
v 198.36 112.01 9.9
v 202.02 105.0 9.9
v 198.36 105.0 9.9
usemtl color_085
f 681 682 683 684
f 681 682 685 686
f 682 683 687 685
f 683 684 688 687
f 684 681 686 688
f 686 685 687 688
g v2_n24
v 191.04 112.01 0.0
v 194.7 112.01 0.0
v 194.7 105.0 0.0
v 191.04 105.0 0.0
v 194.7 112.01 9.9
v 191.04 112.01 9.9
v 194.7 105.0 9.9
v 191.04 105.0 9.9
usemtl color_086
f 689 690 691 692
f 689 690 693 694
f 690 691 695 693
f 691 692 696 695
f 692 689 694 696
f 694 693 695 696
g v2_n25
v 205.68 112.01 0.0
v 209.34 112.01 0.0
v 209.34 105.0 0.0
v 205.68 105.0 0.0
v 209.34 112.01 9.9
v 205.68 112.01 9.9
v 209.34 105.0 9.9
v 205.68 105.0 9.9
usemtl color_087
f 697 698 699 700
f 697 698 701 702
f 698 699 703 701
f 699 700 704 703
f 700 697 702 704
f 702 701 703 704
g v2_n27
v 185.05 109.005 0.0
v 186.05 109.005 0.0
v 186.05 108.005 0.0
v 185.05 108.005 0.0
v 186.05 109.005 1.0
v 185.05 109.005 1.0
v 186.05 108.005 1.0
v 185.05 108.005 1.0
usemtl color_088
f 705 706 707 708
f 705 706 709 710
f 706 707 711 709
f 707 708 712 711
f 708 705 710 712
f 710 709 711 712
g v2_n28
v 185.05 130.005 0.0
v 186.05 130.005 0.0
v 186.05 129.005 0.0
v 185.05 129.005 0.0
v 186.05 130.005 1.0
v 185.05 130.005 1.0
v 186.05 129.005 1.0
v 185.05 129.005 1.0
usemtl color_089
f 713 714 715 716
f 713 714 717 718
f 714 715 719 717
f 715 716 720 719
f 716 713 718 720
f 718 717 719 720
g v2_n29
v 192.37 130.005 0.0
v 193.37 130.005 0.0
v 193.37 129.005 0.0
v 192.37 129.005 0.0
v 193.37 130.005 1.0
v 192.37 130.005 1.0
v 193.37 129.005 1.0
v 192.37 129.005 1.0
usemtl color_090
f 721 722 723 724
f 721 722 725 726
f 722 723 727 725
f 723 724 728 727
f 724 721 726 728
f 726 725 727 728
g v2_n30
v 199.69 130.005 0.0
v 200.69 130.005 0.0
v 200.69 129.005 0.0
v 199.69 129.005 0.0
v 200.69 130.005 1.0
v 199.69 130.005 1.0
v 200.69 129.005 1.0
v 199.69 129.005 1.0
usemtl color_091
f 729 730 731 732
f 729 730 733 734
f 730 731 735 733
f 731 732 736 735
f 732 729 734 736
f 734 733 735 736
g v2_n35
v 207.01 130.005 0.0
v 208.01 130.005 0.0
v 208.01 129.005 0.0
v 207.01 129.005 0.0
v 208.01 130.005 1.0
v 207.01 130.005 1.0
v 208.01 129.005 1.0
v 207.01 129.005 1.0
usemtl color_092
f 737 738 739 740
f 737 738 741 742
f 738 739 743 741
f 739 740 744 743
f 740 737 742 744
f 742 741 743 744
g v2_n36
v 214.33 88.005 0.0
v 215.33 88.005 0.0
v 215.33 87.005 0.0
v 214.33 87.005 0.0
v 215.33 88.005 1.0
v 214.33 88.005 1.0
v 215.33 87.005 1.0
v 214.33 87.005 1.0
usemtl color_093
f 745 746 747 748
f 745 746 749 750
f 746 747 751 749
f 747 748 752 751
f 748 745 750 752
f 750 749 751 752
g v2_n37
v 214.33 109.005 0.0
v 215.33 109.005 0.0
v 215.33 108.005 0.0
v 214.33 108.005 0.0
v 215.33 109.005 1.0
v 214.33 109.005 1.0
v 215.33 108.005 1.0
v 214.33 108.005 1.0
usemtl color_094
f 753 754 755 756
f 753 754 757 758
f 754 755 759 757
f 755 756 760 759
f 756 753 758 760
f 758 757 759 760
g v2_n38
v 214.33 130.005 0.0
v 215.33 130.005 0.0
v 215.33 129.005 0.0
v 214.33 129.005 0.0
v 215.33 130.005 1.0
v 214.33 130.005 1.0
v 215.33 129.005 1.0
v 214.33 129.005 1.0
usemtl color_095
f 761 762 763 764
f 761 762 765 766
f 762 763 767 765
f 763 764 768 767
f 764 761 766 768
f 766 765 767 768
g v2_n31
v 220.32 46.905 0.0
v 223.98 46.905 0.0
v 223.98 44.105 0.0
v 220.32 44.105 0.0
v 223.98 46.905 4.89
v 220.32 46.905 4.89
v 223.98 44.105 4.89
v 220.32 44.105 4.89
usemtl color_096
f 769 770 771 772
f 769 770 773 774
f 770 771 775 773
f 771 772 776 775
f 772 769 774 776
f 774 773 775 776
g v2_n32
v 227.64 49.01 0.0
v 231.3 49.01 0.0
v 231.3 42.0 0.0
v 227.64 42.0 0.0
v 231.3 49.01 9.9
v 227.64 49.01 9.9
v 231.3 42.0 9.9
v 227.64 42.0 9.9
usemtl color_097
f 777 778 779 780
f 777 778 781 782
f 778 779 783 781
f 779 780 784 783
f 780 777 782 784
f 782 781 783 784
g v2_n33
v 220.32 70.01 0.0
v 223.98 70.01 0.0
v 223.98 63.0 0.0
v 220.32 63.0 0.0
v 223.98 70.01 9.9
v 220.32 70.01 9.9
v 223.98 63.0 9.9
v 220.32 63.0 9.9
usemtl color_098
f 785 786 787 788
f 785 786 789 790
f 786 787 791 789
f 787 788 792 791
f 788 785 790 792
f 790 789 791 792
g v2_n34
v 227.64 28.01 0.0
v 231.3 28.01 0.0
v 231.3 21.0 0.0
v 227.64 21.0 0.0
v 231.3 28.01 9.9
v 227.64 28.01 9.9
v 231.3 21.0 9.9
v 227.64 21.0 9.9
usemtl color_099
f 793 794 795 796
f 793 794 797 798
f 794 795 799 797
f 795 796 800 799
f 796 793 798 800
f 798 797 799 800
g v3_b
v 7.32 197.02 9.9
v 10.98 197.02 9.9
v 10.98 190.01 9.9
v 7.32 190.01 9.9
v 10.98 197.02 19.8
v 7.32 197.02 19.8
v 10.98 190.01 19.8
v 7.32 190.01 19.8
usemtl color_100
f 801 802 803 804
f 801 802 805 806
f 802 803 807 805
f 803 804 808 807
f 804 801 806 808
f 806 805 807 808
g v3_n4
v 14.64 194.915 9.9
v 18.3 194.915 9.9
v 18.3 192.115 9.9
v 14.64 192.115 9.9
v 18.3 194.915 14.79
v 14.64 194.915 14.79
v 18.3 192.115 14.79
v 14.64 192.115 14.79
usemtl color_101
f 809 810 811 812
f 809 810 813 814
f 810 811 815 813
f 811 812 816 815
f 812 809 814 816
f 814 813 815 816
g v3_n10
v 21.96 197.02 9.9
v 25.62 197.02 9.9
v 25.62 190.01 9.9
v 21.96 190.01 9.9
v 25.62 197.02 19.8
v 21.96 197.02 19.8
v 25.62 190.01 19.8
v 21.96 190.01 19.8
usemtl color_102
f 817 818 819 820
f 817 818 821 822
f 818 819 823 821
f 819 820 824 823
f 820 817 822 824
f 822 821 823 824
g v3_n11
v 15.97 215.015 9.9
v 16.97 215.015 9.9
v 16.97 214.015 9.9
v 15.97 214.015 9.9
v 16.97 215.015 10.9
v 15.97 215.015 10.9
v 16.97 214.015 10.9
v 15.97 214.015 10.9
usemtl color_103
f 825 826 827 828
f 825 826 829 830
f 826 827 831 829
f 827 828 832 831
f 828 825 830 832
f 830 829 831 832
g v3_n12
v 15.97 173.015 9.9
v 16.97 173.015 9.9
v 16.97 172.015 9.9
v 15.97 172.015 9.9
v 16.97 173.015 10.9
v 15.97 173.015 10.9
v 16.97 172.015 10.9
v 15.97 172.015 10.9
usemtl color_104
f 833 834 835 836
f 833 834 837 838
f 834 835 839 837
f 835 836 840 839
f 836 833 838 840
f 838 837 839 840
g v3_n13
v 8.65 173.015 9.9
v 9.65 173.015 9.9
v 9.65 172.015 9.9
v 8.65 172.015 9.9
v 9.65 173.015 10.9
v 8.65 173.015 10.9
v 9.65 172.015 10.9
v 8.65 172.015 10.9
usemtl color_105
f 841 842 843 844
f 841 842 845 846
f 842 843 847 845
f 843 844 848 847
f 844 841 846 848
f 846 845 847 848
g v3_n14
v 8.65 215.015 9.9
v 9.65 215.015 9.9
v 9.65 214.015 9.9
v 8.65 214.015 9.9
v 9.65 215.015 10.9
v 8.65 215.015 10.9
v 9.65 214.015 10.9
v 8.65 214.015 10.9
usemtl color_106
f 849 850 851 852
f 849 850 853 854
f 850 851 855 853
f 851 852 856 855
f 852 849 854 856
f 854 853 855 856
g v3_n17
v 23.29 173.015 9.9
v 24.29 173.015 9.9
v 24.29 172.015 9.9
v 23.29 172.015 9.9
v 24.29 173.015 10.9
v 23.29 173.015 10.9
v 24.29 172.015 10.9
v 23.29 172.015 10.9
usemtl color_107
f 857 858 859 860
f 857 858 861 862
f 858 859 863 861
f 859 860 864 863
f 860 857 862 864
f 862 861 863 864
g v3_n18
v 23.29 215.015 9.9
v 24.29 215.015 9.9
v 24.29 214.015 9.9
v 23.29 214.015 9.9
v 24.29 215.015 10.9
v 23.29 215.015 10.9
v 24.29 214.015 10.9
v 23.29 214.015 10.9
usemtl color_108
f 865 866 867 868
f 865 866 869 870
f 866 867 871 869
f 867 868 872 871
f 868 865 870 872
f 870 869 871 872
g v3_n19
v 1.33 152.015 9.9
v 2.33 152.015 9.9
v 2.33 151.015 9.9
v 1.33 151.015 9.9
v 2.33 152.015 10.9
v 1.33 152.015 10.9
v 2.33 151.015 10.9
v 1.33 151.015 10.9
usemtl color_109
f 873 874 875 876
f 873 874 877 878
f 874 875 879 877
f 875 876 880 879
f 876 873 878 880
f 878 877 879 880
g v3_n5
v 0.0 176.02 9.9
v 3.66 176.02 9.9
v 3.66 169.01 9.9
v 0.0 169.01 9.9
v 3.66 176.02 19.8
v 0.0 176.02 19.8
v 3.66 169.01 19.8
v 0.0 169.01 19.8
usemtl color_110
f 881 882 883 884
f 881 882 885 886
f 882 883 887 885
f 883 884 888 887
f 884 881 886 888
f 886 885 887 888
g v3_n6
v 0.0 197.02 9.9
v 3.66 197.02 9.9
v 3.66 190.01 9.9
v 0.0 190.01 9.9
v 3.66 197.02 19.8
v 0.0 197.02 19.8
v 3.66 190.01 19.8
v 0.0 190.01 19.8
usemtl color_111
f 889 890 891 892
f 889 890 893 894
f 890 891 895 893
f 891 892 896 895
f 892 889 894 896
f 894 893 895 896
g v3_n7
v 0.0 218.02 9.9
v 3.66 218.02 9.9
v 3.66 211.01 9.9
v 0.0 211.01 9.9
v 3.66 218.02 19.8
v 0.0 218.02 19.8
v 3.66 211.01 19.8
v 0.0 211.01 19.8
usemtl color_112
f 897 898 899 900
f 897 898 901 902
f 898 899 903 901
f 899 900 904 903
f 900 897 902 904
f 902 901 903 904
g v3_n8
v 0.0 239.02 9.9
v 3.66 239.02 9.9
v 3.66 232.01 9.9
v 0.0 232.01 9.9
v 3.66 239.02 19.8
v 0.0 239.02 19.8
v 3.66 232.01 19.8
v 0.0 232.01 19.8
usemtl color_113
f 905 906 907 908
f 905 906 909 910
f 906 907 911 909
f 907 908 912 911
f 908 905 910 912
f 910 909 911 912
g v3_n9
v 7.32 155.02 9.9
v 10.98 155.02 9.9
v 10.98 148.01 9.9
v 7.32 148.01 9.9
v 10.98 155.02 19.8
v 7.32 155.02 19.8
v 10.98 148.01 19.8
v 7.32 148.01 19.8
usemtl color_114
f 913 914 915 916
f 913 914 917 918
f 914 915 919 917
f 915 916 920 919
f 916 913 918 920
f 918 917 919 920
g v3_n0
v 7.32 204.015 0.0
v 10.98 204.015 0.0
v 10.98 183.015 0.0
v 7.32 183.015 0.0
v 10.98 204.015 5.0
v 7.32 204.015 5.0
v 10.98 183.015 5.0
v 7.32 183.015 5.0
usemtl color_115
f 921 922 923 924
f 921 922 925 926
f 922 923 927 925
f 923 924 928 927
f 924 921 926 928
f 926 925 927 928
g v3_n1
v 14.64 197.02 0.0
v 18.3 197.02 0.0
v 18.3 190.01 0.0
v 14.64 190.01 0.0
v 18.3 197.02 9.9
v 14.64 197.02 9.9
v 18.3 190.01 9.9
v 14.64 190.01 9.9
usemtl color_116
f 929 930 931 932
f 929 930 933 934
f 930 931 935 933
f 931 932 936 935
f 932 929 934 936
f 934 933 935 936
g v3_n15
v 0.0 194.765 0.0
v 3.66 194.765 0.0
v 3.66 192.265 0.0
v 0.0 192.265 0.0
v 3.66 194.765 2.58
v 0.0 194.765 2.58
v 3.66 192.265 2.58
v 0.0 192.265 2.58
usemtl color_117
f 937 938 939 940
f 937 938 941 942
f 938 939 943 941
f 939 940 944 943
f 940 937 942 944
f 942 941 943 944
g v3_n2
v 21.96 197.02 0.0
v 25.62 197.02 0.0
v 25.62 190.01 0.0
v 21.96 190.01 0.0
v 25.62 197.02 9.9
v 21.96 197.02 9.9
v 25.62 190.01 9.9
v 21.96 190.01 9.9
usemtl color_118
f 945 946 947 948
f 945 946 949 950
f 946 947 951 949
f 947 948 952 951
f 948 945 950 952
f 950 949 951 952
g v3_n3
v 14.64 218.02 0.0
v 18.3 218.02 0.0
v 18.3 211.01 0.0
v 14.64 211.01 0.0
v 18.3 218.02 9.9
v 14.64 218.02 9.9
v 18.3 211.01 9.9
v 14.64 211.01 9.9
usemtl color_119
f 953 954 955 956
f 953 954 957 958
f 954 955 959 957
f 955 956 960 959
f 956 953 958 960
f 958 957 959 960
g v3_n20
v 12.81 175.315 0.0
v 20.13 175.315 0.0
v 20.13 169.715 0.0
v 12.81 169.715 0.0
v 20.13 175.315 9.9
v 12.81 175.315 9.9
v 20.13 169.715 9.9
v 12.81 169.715 9.9
usemtl color_120
f 961 962 963 964
f 961 962 965 966
f 962 963 967 965
f 963 964 968 967
f 964 961 966 968
f 966 965 967 968
g v3_n16
v 0.0 225.015 0.0
v 3.66 225.015 0.0
v 3.66 204.015 0.0
v 0.0 204.015 0.0
v 3.66 225.015 5.0
v 0.0 225.015 5.0
v 3.66 204.015 5.0
v 0.0 204.015 5.0
usemtl color_121
f 969 970 971 972
f 969 970 973 974
f 970 971 975 973
f 971 972 976 975
f 972 969 974 976
f 974 973 975 976
g v4_b
v 121.14 197.02 9.9
v 124.8 197.02 9.9
v 124.8 190.01 9.9
v 121.14 190.01 9.9
v 124.8 197.02 19.8
v 121.14 197.02 19.8
v 124.8 190.01 19.8
v 121.14 190.01 19.8
usemtl color_122
f 977 978 979 980
f 977 978 981 982
f 978 979 983 981
f 979 980 984 983
f 980 977 982 984
f 982 981 983 984
g v4_n1
v 128.46 194.915 9.9
v 132.12 194.915 9.9
v 132.12 192.115 9.9
v 128.46 192.115 9.9
v 132.12 194.915 14.79
v 128.46 194.915 14.79
v 132.12 192.115 14.79
v 128.46 192.115 14.79
usemtl color_123
f 985 986 987 988
f 985 986 989 990
f 986 987 991 989
f 987 988 992 991
f 988 985 990 992
f 990 989 991 992
g v4_n12
v 113.82 194.915 9.9
v 117.48 194.915 9.9
v 117.48 192.115 9.9
v 113.82 192.115 9.9
v 117.48 194.915 14.79
v 113.82 194.915 14.79
v 117.48 192.115 14.79
v 113.82 192.115 14.79
usemtl color_124
f 993 994 995 996
f 993 994 997 998
f 994 995 999 997
f 995 996 1000 999
f 996 993 998 1000
f 998 997 999 1000
g v4_n19
v 137.11 194.015 9.9
v 138.11 194.015 9.9
v 138.11 193.015 9.9
v 137.11 193.015 9.9
v 138.11 194.015 10.9
v 137.11 194.015 10.9
v 138.11 193.015 10.9
v 137.11 193.015 10.9
usemtl color_125
f 1001 1002 1003 1004
f 1001 1002 1005 1006
f 1002 1003 1007 1005
f 1003 1004 1008 1007
f 1004 1001 1006 1008
f 1006 1005 1007 1008
g v4_n2
v 128.46 218.02 9.9
v 132.12 218.02 9.9
v 132.12 211.01 9.9
v 128.46 211.01 9.9
v 132.12 218.02 19.8
v 128.46 218.02 19.8
v 132.12 211.01 19.8
v 128.46 211.01 19.8
usemtl color_126
f 1009 1010 1011 1012
f 1009 1010 1013 1014
f 1010 1011 1015 1013
f 1011 1012 1016 1015
f 1012 1009 1014 1016
f 1014 1013 1015 1016
g v4_n20
v 129.79 173.015 9.9
v 130.79 173.015 9.9
v 130.79 172.015 9.9
v 129.79 172.015 9.9
v 130.79 173.015 10.9
v 129.79 173.015 10.9
v 130.79 172.015 10.9
v 129.79 172.015 10.9
usemtl color_127
f 1017 1018 1019 1020
f 1017 1018 1021 1022
f 1018 1019 1023 1021
f 1019 1020 1024 1023
f 1020 1017 1022 1024
f 1022 1021 1023 1024
g v4_n3
v 121.14 176.02 9.9
v 124.8 176.02 9.9
v 124.8 169.01 9.9
v 121.14 169.01 9.9
v 124.8 176.02 19.8
v 121.14 176.02 19.8
v 124.8 169.01 19.8
v 121.14 169.01 19.8
usemtl color_128
f 1025 1026 1027 1028
f 1025 1026 1029 1030
f 1026 1027 1031 1029
f 1027 1028 1032 1031
f 1028 1025 1030 1032
f 1030 1029 1031 1032
g v4_n4
v 121.14 218.02 9.9
v 124.8 218.02 9.9
v 124.8 211.01 9.9
v 121.14 211.01 9.9
v 124.8 218.02 19.8
v 121.14 218.02 19.8
v 124.8 211.01 19.8
v 121.14 211.01 19.8
usemtl color_129
f 1033 1034 1035 1036
f 1033 1034 1037 1038
f 1034 1035 1039 1037
f 1035 1036 1040 1039
f 1036 1033 1038 1040
f 1038 1037 1039 1040
g v4_n5
v 135.78 176.02 9.9
v 139.44 176.02 9.9
v 139.44 169.01 9.9
v 135.78 169.01 9.9
v 139.44 176.02 19.8
v 135.78 176.02 19.8
v 139.44 169.01 19.8
v 135.78 169.01 19.8
usemtl color_130
f 1041 1042 1043 1044
f 1041 1042 1045 1046
f 1042 1043 1047 1045
f 1043 1044 1048 1047
f 1044 1041 1046 1048
f 1046 1045 1047 1048
g v4_n6
v 135.78 218.02 9.9
v 139.44 218.02 9.9
v 139.44 211.01 9.9
v 135.78 211.01 9.9
v 139.44 218.02 19.8
v 135.78 218.02 19.8
v 139.44 211.01 19.8
v 135.78 211.01 19.8
usemtl color_131
f 1049 1050 1051 1052
f 1049 1050 1053 1054
f 1050 1051 1055 1053
f 1051 1052 1056 1055
f 1052 1049 1054 1056
f 1054 1053 1055 1056
g v4_n7
v 113.82 155.02 9.9
v 117.48 155.02 9.9
v 117.48 148.01 9.9
v 113.82 148.01 9.9
v 117.48 155.02 19.8
v 113.82 155.02 19.8
v 117.48 148.01 19.8
v 113.82 148.01 19.8
usemtl color_132
f 1057 1058 1059 1060
f 1057 1058 1061 1062
f 1058 1059 1063 1061
f 1059 1060 1064 1063
f 1060 1057 1062 1064
f 1062 1061 1063 1064
g v4_n8
v 113.82 176.02 9.9
v 117.48 176.02 9.9
v 117.48 169.01 9.9
v 113.82 169.01 9.9
v 117.48 176.02 19.8
v 113.82 176.02 19.8
v 117.48 169.01 19.8
v 113.82 169.01 19.8
usemtl color_133
f 1065 1066 1067 1068
f 1065 1066 1069 1070
f 1066 1067 1071 1069
f 1067 1068 1072 1071
f 1068 1065 1070 1072
f 1070 1069 1071 1072
g v4_n9
v 113.82 218.02 9.9
v 117.48 218.02 9.9
v 117.48 211.01 9.9
v 113.82 211.01 9.9
v 117.48 218.02 19.8
v 113.82 218.02 19.8
v 117.48 211.01 19.8
v 113.82 211.01 19.8
usemtl color_134
f 1073 1074 1075 1076
f 1073 1074 1077 1078
f 1074 1075 1079 1077
f 1075 1076 1080 1079
f 1076 1073 1078 1080
f 1078 1077 1079 1080
g v4_n13
v 106.5 197.02 9.9
v 110.16 197.02 9.9
v 110.16 190.01 9.9
v 106.5 190.01 9.9
v 110.16 197.02 19.8
v 106.5 197.02 19.8
v 110.16 190.01 19.8
v 106.5 190.01 19.8
usemtl color_135
f 1081 1082 1083 1084
f 1081 1082 1085 1086
f 1082 1083 1087 1085
f 1083 1084 1088 1087
f 1084 1081 1086 1088
f 1086 1085 1087 1088
g v4_n14
v 106.5 176.02 9.9
v 110.16 176.02 9.9
v 110.16 169.01 9.9
v 106.5 169.01 9.9
v 110.16 176.02 19.8
v 106.5 176.02 19.8
v 110.16 169.01 19.8
v 106.5 169.01 19.8
usemtl color_136
f 1089 1090 1091 1092
f 1089 1090 1093 1094
f 1090 1091 1095 1093
f 1091 1092 1096 1095
f 1092 1089 1094 1096
f 1094 1093 1095 1096
g v4_n15
v 106.5 218.02 9.9
v 110.16 218.02 9.9
v 110.16 211.01 9.9
v 106.5 211.01 9.9
v 110.16 218.02 19.8
v 106.5 218.02 19.8
v 110.16 211.01 19.8
v 106.5 211.01 19.8
usemtl color_137
f 1097 1098 1099 1100
f 1097 1098 1101 1102
f 1098 1099 1103 1101
f 1099 1100 1104 1103
f 1100 1097 1102 1104
f 1102 1101 1103 1104
g v4_n16
v 99.18 155.02 9.9
v 102.84 155.02 9.9
v 102.84 148.01 9.9
v 99.18 148.01 9.9
v 102.84 155.02 19.8
v 99.18 155.02 19.8
v 102.84 148.01 19.8
v 99.18 148.01 19.8
usemtl color_138
f 1105 1106 1107 1108
f 1105 1106 1109 1110
f 1106 1107 1111 1109
f 1107 1108 1112 1111
f 1108 1105 1110 1112
f 1110 1109 1111 1112
g v4_n17
v 99.18 176.02 9.9
v 102.84 176.02 9.9
v 102.84 169.01 9.9
v 99.18 169.01 9.9
v 102.84 176.02 19.8
v 99.18 176.02 19.8
v 102.84 169.01 19.8
v 99.18 169.01 19.8
usemtl color_139
f 1113 1114 1115 1116
f 1113 1114 1117 1118
f 1114 1115 1119 1117
f 1115 1116 1120 1119
f 1116 1113 1118 1120
f 1118 1117 1119 1120
g v4_n11
v 113.82 239.02 9.9
v 117.48 239.02 9.9
v 117.48 232.01 9.9
v 113.82 232.01 9.9
v 117.48 239.02 19.8
v 113.82 239.02 19.8
v 117.48 232.01 19.8
v 113.82 232.01 19.8
usemtl color_140
f 1121 1122 1123 1124
f 1121 1122 1125 1126
f 1122 1123 1127 1125
f 1123 1124 1128 1127
f 1124 1121 1126 1128
f 1126 1125 1127 1128
g v4_n21
v 99.18 215.915 9.9
v 102.84 215.915 9.9
v 102.84 213.115 9.9
v 99.18 213.115 9.9
v 102.84 215.915 14.79
v 99.18 215.915 14.79
v 102.84 213.115 14.79
v 99.18 213.115 14.79
usemtl color_141
f 1129 1130 1131 1132
f 1129 1130 1133 1134
f 1130 1131 1135 1133
f 1131 1132 1136 1135
f 1132 1129 1134 1136
f 1134 1133 1135 1136
g v4_n22
v 91.86 218.02 9.9
v 95.52 218.02 9.9
v 95.52 211.01 9.9
v 91.86 211.01 9.9
v 95.52 218.02 19.8
v 91.86 218.02 19.8
v 95.52 211.01 19.8
v 91.86 211.01 19.8
usemtl color_142
f 1137 1138 1139 1140
f 1137 1138 1141 1142
f 1138 1139 1143 1141
f 1139 1140 1144 1143
f 1140 1137 1142 1144
f 1142 1141 1143 1144
g v4_n23
v 99.18 239.02 9.9
v 102.84 239.02 9.9
v 102.84 232.01 9.9
v 99.18 232.01 9.9
v 102.84 239.02 19.8
v 99.18 239.02 19.8
v 102.84 232.01 19.8
v 99.18 232.01 19.8
usemtl color_143
f 1145 1146 1147 1148
f 1145 1146 1149 1150
f 1146 1147 1151 1149
f 1147 1148 1152 1151
f 1148 1145 1150 1152
f 1150 1149 1151 1152
g v4_n24
v 99.18 197.02 9.9
v 102.84 197.02 9.9
v 102.84 190.01 9.9
v 99.18 190.01 9.9
v 102.84 197.02 19.8
v 99.18 197.02 19.8
v 102.84 190.01 19.8
v 99.18 190.01 19.8
usemtl color_144
f 1153 1154 1155 1156
f 1153 1154 1157 1158
f 1154 1155 1159 1157
f 1155 1156 1160 1159
f 1156 1153 1158 1160
f 1158 1157 1159 1160
g v4_n25
v 91.86 197.02 9.9
v 95.52 197.02 9.9
v 95.52 190.01 9.9
v 91.86 190.01 9.9
v 95.52 197.02 19.8
v 91.86 197.02 19.8
v 95.52 190.01 19.8
v 91.86 190.01 19.8
usemtl color_145
f 1161 1162 1163 1164
f 1161 1162 1165 1166
f 1162 1163 1167 1165
f 1163 1164 1168 1167
f 1164 1161 1166 1168
f 1166 1165 1167 1168
g v4_n26
v 91.86 239.02 9.9
v 95.52 239.02 9.9
v 95.52 232.01 9.9
v 91.86 232.01 9.9
v 95.52 239.02 19.8
v 91.86 239.02 19.8
v 95.52 232.01 19.8
v 91.86 232.01 19.8
usemtl color_146
f 1169 1170 1171 1172
f 1169 1170 1173 1174
f 1170 1171 1175 1173
f 1171 1172 1176 1175
f 1172 1169 1174 1176
f 1174 1173 1175 1176
g v4_n27
v 106.5 239.02 9.9
v 110.16 239.02 9.9
v 110.16 232.01 9.9
v 106.5 232.01 9.9
v 110.16 239.02 19.8
v 106.5 239.02 19.8
v 110.16 232.01 19.8
v 106.5 232.01 19.8
usemtl color_147
f 1177 1178 1179 1180
f 1177 1178 1181 1182
f 1178 1179 1183 1181
f 1179 1180 1184 1183
f 1180 1177 1182 1184
f 1182 1181 1183 1184
g v4_n28
v 84.54 176.02 9.9
v 88.2 176.02 9.9
v 88.2 169.01 9.9
v 84.54 169.01 9.9
v 88.2 176.02 19.8
v 84.54 176.02 19.8
v 88.2 169.01 19.8
v 84.54 169.01 19.8
usemtl color_148
f 1185 1186 1187 1188
f 1185 1186 1189 1190
f 1186 1187 1191 1189
f 1187 1188 1192 1191
f 1188 1185 1190 1192
f 1190 1189 1191 1192
g v4_n29
v 84.54 197.02 9.9
v 88.2 197.02 9.9
v 88.2 190.01 9.9
v 84.54 190.01 9.9
v 88.2 197.02 19.8
v 84.54 197.02 19.8
v 88.2 190.01 19.8
v 84.54 190.01 19.8
usemtl color_149
f 1193 1194 1195 1196
f 1193 1194 1197 1198
f 1194 1195 1199 1197
f 1195 1196 1200 1199
f 1196 1193 1198 1200
f 1198 1197 1199 1200
g v4_n0
v 121.14 204.015 0.0
v 124.8 204.015 0.0
v 124.8 183.015 0.0
v 121.14 183.015 0.0
v 124.8 204.015 5.0
v 121.14 204.015 5.0
v 124.8 183.015 5.0
v 121.14 183.015 5.0
usemtl color_150
f 1201 1202 1203 1204
f 1201 1202 1205 1206
f 1202 1203 1207 1205
f 1203 1204 1208 1207
f 1204 1201 1206 1208
f 1206 1205 1207 1208
g v4_n10
v 128.46 225.015 0.0
v 132.12 225.015 0.0
v 132.12 204.015 0.0
v 128.46 204.015 0.0
v 132.12 225.015 5.0
v 128.46 225.015 5.0
v 132.12 204.015 5.0
v 128.46 204.015 5.0
usemtl color_151
f 1209 1210 1211 1212
f 1209 1210 1213 1214
f 1210 1211 1215 1213
f 1211 1212 1216 1215
f 1212 1209 1214 1216
f 1214 1213 1215 1216
g v4_n18
v 121.14 183.015 0.0
v 124.8 183.015 0.0
v 124.8 162.015 0.0
v 121.14 162.015 0.0
v 124.8 183.015 5.0
v 121.14 183.015 5.0
v 124.8 162.015 5.0
v 121.14 162.015 5.0
usemtl color_152
f 1217 1218 1219 1220
f 1217 1218 1221 1222
f 1218 1219 1223 1221
f 1219 1220 1224 1223
f 1220 1217 1222 1224
f 1222 1221 1223 1224
g v5_b
v 198.36 239.02 0.0
v 202.02 239.02 0.0
v 202.02 232.01 0.0
v 198.36 232.01 0.0
v 202.02 239.02 9.9
v 198.36 239.02 9.9
v 202.02 232.01 9.9
v 198.36 232.01 9.9
usemtl color_153
f 1225 1226 1227 1228
f 1225 1226 1229 1230
f 1226 1227 1231 1229
f 1227 1228 1232 1231
f 1228 1225 1230 1232
f 1230 1229 1231 1232
g v5_n0
v 205.68 236.915 0.0
v 209.34 236.915 0.0
v 209.34 234.115 0.0
v 205.68 234.115 0.0
v 209.34 236.915 4.89
v 205.68 236.915 4.89
v 209.34 234.115 4.89
v 205.68 234.115 4.89
usemtl color_154
f 1233 1234 1235 1236
f 1233 1234 1237 1238
f 1234 1235 1239 1237
f 1235 1236 1240 1239
f 1236 1233 1238 1240
f 1238 1237 1239 1240
g v5_n1
v 213.0 239.02 0.0
v 216.66 239.02 0.0
v 216.66 232.01 0.0
v 213.0 232.01 0.0
v 216.66 239.02 9.9
v 213.0 239.02 9.9
v 216.66 232.01 9.9
v 213.0 232.01 9.9
usemtl color_155
f 1241 1242 1243 1244
f 1241 1242 1245 1246
f 1242 1243 1247 1245
f 1243 1244 1248 1247
f 1244 1241 1246 1248
f 1246 1245 1247 1248
g v5_n2
v 205.68 260.02 0.0
v 209.34 260.02 0.0
v 209.34 253.01 0.0
v 205.68 253.01 0.0
v 209.34 260.02 9.9
v 205.68 260.02 9.9
v 209.34 253.01 9.9
v 205.68 253.01 9.9
usemtl color_156
f 1249 1250 1251 1252
f 1249 1250 1253 1254
f 1250 1251 1255 1253
f 1251 1252 1256 1255
f 1252 1249 1254 1256
f 1254 1253 1255 1256
g v5_n3
v 205.68 218.02 0.0
v 209.34 218.02 0.0
v 209.34 211.01 0.0
v 205.68 211.01 0.0
v 209.34 218.02 9.9
v 205.68 218.02 9.9
v 209.34 211.01 9.9
v 205.68 211.01 9.9
usemtl color_157
f 1257 1258 1259 1260
f 1257 1258 1261 1262
f 1258 1259 1263 1261
f 1259 1260 1264 1263
f 1260 1257 1262 1264
f 1262 1261 1263 1264
g v5_n4
v 198.36 218.02 0.0
v 202.02 218.02 0.0
v 202.02 211.01 0.0
v 198.36 211.01 0.0
v 202.02 218.02 9.9
v 198.36 218.02 9.9
v 202.02 211.01 9.9
v 198.36 211.01 9.9
usemtl color_158
f 1265 1266 1267 1268
f 1265 1266 1269 1270
f 1266 1267 1271 1269
f 1267 1268 1272 1271
f 1268 1265 1270 1272
f 1270 1269 1271 1272
g v5_n11
v 213.0 257.915 0.0
v 216.66 257.915 0.0
v 216.66 255.115 0.0
v 213.0 255.115 0.0
v 216.66 257.915 4.89
v 213.0 257.915 4.89
v 216.66 255.115 4.89
v 213.0 255.115 4.89
usemtl color_159
f 1273 1274 1275 1276
f 1273 1274 1277 1278
f 1274 1275 1279 1277
f 1275 1276 1280 1279
f 1276 1273 1278 1280
f 1278 1277 1279 1280
g v5_n21
v 213.0 215.915 0.0
v 216.66 215.915 0.0
v 216.66 213.115 0.0
v 213.0 213.115 0.0
v 216.66 215.915 4.89
v 213.0 215.915 4.89
v 216.66 213.115 4.89
v 213.0 213.115 4.89
usemtl color_160
f 1281 1282 1283 1284
f 1281 1282 1285 1286
f 1282 1283 1287 1285
f 1283 1284 1288 1287
f 1284 1281 1286 1288
f 1286 1285 1287 1288
g v5_n5
v 191.04 215.915 0.0
v 194.7 215.915 0.0
v 194.7 213.115 0.0
v 191.04 213.115 0.0
v 194.7 215.915 4.89
v 191.04 215.915 4.89
v 194.7 213.115 4.89
v 191.04 213.115 4.89
usemtl color_161
f 1289 1290 1291 1292
f 1289 1290 1293 1294
f 1290 1291 1295 1293
f 1291 1292 1296 1295
f 1292 1289 1294 1296
f 1294 1293 1295 1296
g v5_n12
v 220.32 260.02 0.0
v 223.98 260.02 0.0
v 223.98 253.01 0.0
v 220.32 253.01 0.0
v 223.98 260.02 9.9
v 220.32 260.02 9.9
v 223.98 253.01 9.9
v 220.32 253.01 9.9
usemtl color_162
f 1297 1298 1299 1300
f 1297 1298 1301 1302
f 1298 1299 1303 1301
f 1299 1300 1304 1303
f 1300 1297 1302 1304
f 1302 1301 1303 1304
g v5_n13
v 213.0 281.02 0.0
v 216.66 281.02 0.0
v 216.66 274.01 0.0
v 213.0 274.01 0.0
v 216.66 281.02 9.9
v 213.0 281.02 9.9
v 216.66 274.01 9.9
v 213.0 274.01 9.9
usemtl color_163
f 1305 1306 1307 1308
f 1305 1306 1309 1310
f 1306 1307 1311 1309
f 1307 1308 1312 1311
f 1308 1305 1310 1312
f 1310 1309 1311 1312
g v5_n14
v 205.68 281.02 0.0
v 209.34 281.02 0.0
v 209.34 274.01 0.0
v 205.68 274.01 0.0
v 209.34 281.02 9.9
v 205.68 281.02 9.9
v 209.34 274.01 9.9
v 205.68 274.01 9.9
usemtl color_164
f 1313 1314 1315 1316
f 1313 1314 1317 1318
f 1314 1315 1319 1317
f 1315 1316 1320 1319
f 1316 1313 1318 1320
f 1318 1317 1319 1320
g v5_n15
v 220.32 239.02 0.0
v 223.98 239.02 0.0
v 223.98 232.01 0.0
v 220.32 232.01 0.0
v 223.98 239.02 9.9
v 220.32 239.02 9.9
v 223.98 232.01 9.9
v 220.32 232.01 9.9
usemtl color_165
f 1321 1322 1323 1324
f 1321 1322 1325 1326
f 1322 1323 1327 1325
f 1323 1324 1328 1327
f 1324 1321 1326 1328
f 1326 1325 1327 1328
g v5_n22
v 220.32 218.02 0.0
v 223.98 218.02 0.0
v 223.98 211.01 0.0
v 220.32 211.01 0.0
v 223.98 218.02 9.9
v 220.32 218.02 9.9
v 223.98 211.01 9.9
v 220.32 211.01 9.9
usemtl color_166
f 1329 1330 1331 1332
f 1329 1330 1333 1334
f 1330 1331 1335 1333
f 1331 1332 1336 1335
f 1332 1329 1334 1336
f 1334 1333 1335 1336
g v5_n23
v 213.0 197.02 0.0
v 216.66 197.02 0.0
v 216.66 190.01 0.0
v 213.0 190.01 0.0
v 216.66 197.02 9.9
v 213.0 197.02 9.9
v 216.66 190.01 9.9
v 213.0 190.01 9.9
usemtl color_167
f 1337 1338 1339 1340
f 1337 1338 1341 1342
f 1338 1339 1343 1341
f 1339 1340 1344 1343
f 1340 1337 1342 1344
f 1342 1341 1343 1344
g v5_n24
v 205.68 197.02 0.0
v 209.34 197.02 0.0
v 209.34 190.01 0.0
v 205.68 190.01 0.0
v 209.34 197.02 9.9
v 205.68 197.02 9.9
v 209.34 190.01 9.9
v 205.68 190.01 9.9
usemtl color_168
f 1345 1346 1347 1348
f 1345 1346 1349 1350
f 1346 1347 1351 1349
f 1347 1348 1352 1351
f 1348 1345 1350 1352
f 1350 1349 1351 1352
g v5_n25
v 220.32 197.02 0.0
v 223.98 197.02 0.0
v 223.98 190.01 0.0
v 220.32 190.01 0.0
v 223.98 197.02 9.9
v 220.32 197.02 9.9
v 223.98 190.01 9.9
v 220.32 190.01 9.9
usemtl color_169
f 1353 1354 1355 1356
f 1353 1354 1357 1358
f 1354 1355 1359 1357
f 1355 1356 1360 1359
f 1356 1353 1358 1360
f 1358 1357 1359 1360
g v5_n26
v 198.36 176.02 0.0
v 202.02 176.02 0.0
v 202.02 169.01 0.0
v 198.36 169.01 0.0
v 202.02 176.02 9.9
v 198.36 176.02 9.9
v 202.02 169.01 9.9
v 198.36 169.01 9.9
usemtl color_170
f 1361 1362 1363 1364
f 1361 1362 1365 1366
f 1362 1363 1367 1365
f 1363 1364 1368 1367
f 1364 1361 1366 1368
f 1366 1365 1367 1368
g v5_n27
v 198.36 197.02 0.0
v 202.02 197.02 0.0
v 202.02 190.01 0.0
v 198.36 190.01 0.0
v 202.02 197.02 9.9
v 198.36 197.02 9.9
v 202.02 190.01 9.9
v 198.36 190.01 9.9
usemtl color_171
f 1369 1370 1371 1372
f 1369 1370 1373 1374
f 1370 1371 1375 1373
f 1371 1372 1376 1375
f 1372 1369 1374 1376
f 1374 1373 1375 1376
g v5_n28
v 198.36 260.02 0.0
v 202.02 260.02 0.0
v 202.02 253.01 0.0
v 198.36 253.01 0.0
v 202.02 260.02 9.9
v 198.36 260.02 9.9
v 202.02 253.01 9.9
v 198.36 253.01 9.9
usemtl color_172
f 1377 1378 1379 1380
f 1377 1378 1381 1382
f 1378 1379 1383 1381
f 1379 1380 1384 1383
f 1380 1377 1382 1384
f 1382 1381 1383 1384
g v5_n29
v 205.68 176.02 0.0
v 209.34 176.02 0.0
v 209.34 169.01 0.0
v 205.68 169.01 0.0
v 209.34 176.02 9.9
v 205.68 176.02 9.9
v 209.34 169.01 9.9
v 205.68 169.01 9.9
usemtl color_173
f 1385 1386 1387 1388
f 1385 1386 1389 1390
f 1386 1387 1391 1389
f 1387 1388 1392 1391
f 1388 1385 1390 1392
f 1390 1389 1391 1392
g v5_n30
v 185.05 215.015 0.0
v 186.05 215.015 0.0
v 186.05 214.015 0.0
v 185.05 214.015 0.0
v 186.05 215.015 1.0
v 185.05 215.015 1.0
v 186.05 214.015 1.0
v 185.05 214.015 1.0
usemtl color_174
f 1393 1394 1395 1396
f 1393 1394 1397 1398
f 1394 1395 1399 1397
f 1395 1396 1400 1399
f 1396 1393 1398 1400
f 1398 1397 1399 1400
g v5_n31
v 192.37 236.015 0.0
v 193.37 236.015 0.0
v 193.37 235.015 0.0
v 192.37 235.015 0.0
v 193.37 236.015 1.0
v 192.37 236.015 1.0
v 193.37 235.015 1.0
v 192.37 235.015 1.0
usemtl color_175
f 1401 1402 1403 1404
f 1401 1402 1405 1406
f 1402 1403 1407 1405
f 1403 1404 1408 1407
f 1404 1401 1406 1408
f 1406 1405 1407 1408
g v5_n32
v 192.37 194.015 0.0
v 193.37 194.015 0.0
v 193.37 193.015 0.0
v 192.37 193.015 0.0
v 193.37 194.015 1.0
v 192.37 194.015 1.0
v 193.37 193.015 1.0
v 192.37 193.015 1.0
usemtl color_176
f 1409 1410 1411 1412
f 1409 1410 1413 1414
f 1410 1411 1415 1413
f 1411 1412 1416 1415
f 1412 1409 1414 1416
f 1414 1413 1415 1416
g v5_n6
v 183.72 197.02 0.0
v 187.38 197.02 0.0
v 187.38 190.01 0.0
v 183.72 190.01 0.0
v 187.38 197.02 9.9
v 183.72 197.02 9.9
v 187.38 190.01 9.9
v 183.72 190.01 9.9
usemtl color_177
f 1417 1418 1419 1420
f 1417 1418 1421 1422
f 1418 1419 1423 1421
f 1419 1420 1424 1423
f 1420 1417 1422 1424
f 1422 1421 1423 1424
g v5_n7
v 183.72 239.02 0.0
v 187.38 239.02 0.0
v 187.38 232.01 0.0
v 183.72 232.01 0.0
v 187.38 239.02 9.9
v 183.72 239.02 9.9
v 187.38 232.01 9.9
v 183.72 232.01 9.9
usemtl color_178
f 1425 1426 1427 1428
f 1425 1426 1429 1430
f 1426 1427 1431 1429
f 1427 1428 1432 1431
f 1428 1425 1430 1432
f 1430 1429 1431 1432
g v5_n8
v 176.4 176.02 0.0
v 180.06 176.02 0.0
v 180.06 169.01 0.0
v 176.4 169.01 0.0
v 180.06 176.02 9.9
v 176.4 176.02 9.9
v 180.06 169.01 9.9
v 176.4 169.01 9.9
usemtl color_179
f 1433 1434 1435 1436
f 1433 1434 1437 1438
f 1434 1435 1439 1437
f 1435 1436 1440 1439
f 1436 1433 1438 1440
f 1438 1437 1439 1440
g v5_n9
v 176.4 197.02 0.0
v 180.06 197.02 0.0
v 180.06 190.01 0.0
v 176.4 190.01 0.0
v 180.06 197.02 9.9
v 176.4 197.02 9.9
v 180.06 190.01 9.9
v 176.4 190.01 9.9
usemtl color_180
f 1441 1442 1443 1444
f 1441 1442 1445 1446
f 1442 1443 1447 1445
f 1443 1444 1448 1447
f 1444 1441 1446 1448
f 1446 1445 1447 1448
g v5_n10
v 183.72 176.02 0.0
v 187.38 176.02 0.0
v 187.38 169.01 0.0
v 183.72 169.01 0.0
v 187.38 176.02 9.9
v 183.72 176.02 9.9
v 187.38 169.01 9.9
v 183.72 169.01 9.9
usemtl color_181
f 1449 1450 1451 1452
f 1449 1450 1453 1454
f 1450 1451 1455 1453
f 1451 1452 1456 1455
f 1452 1449 1454 1456
f 1454 1453 1455 1456
g v5_n20
v 169.08 176.02 0.0
v 172.74 176.02 0.0
v 172.74 169.01 0.0
v 169.08 169.01 0.0
v 172.74 176.02 9.9
v 169.08 176.02 9.9
v 172.74 169.01 9.9
v 169.08 169.01 9.9
usemtl color_182
f 1457 1458 1459 1460
f 1457 1458 1461 1462
f 1458 1459 1463 1461
f 1459 1460 1464 1463
f 1460 1457 1462 1464
f 1462 1461 1463 1464
g v5_n16
v 191.04 173.915 0.0
v 194.7 173.915 0.0
v 194.7 171.115 0.0
v 191.04 171.115 0.0
v 194.7 173.915 4.89
v 191.04 173.915 4.89
v 194.7 171.115 4.89
v 191.04 171.115 4.89
usemtl color_183
f 1465 1466 1467 1468
f 1465 1466 1469 1470
f 1466 1467 1471 1469
f 1467 1468 1472 1471
f 1468 1465 1470 1472
f 1470 1469 1471 1472
g v5_n17
v 191.04 155.02 0.0
v 194.7 155.02 0.0
v 194.7 148.01 0.0
v 191.04 148.01 0.0
v 194.7 155.02 9.9
v 191.04 155.02 9.9
v 194.7 148.01 9.9
v 191.04 148.01 9.9
usemtl color_184
f 1473 1474 1475 1476
f 1473 1474 1477 1478
f 1474 1475 1479 1477
f 1475 1476 1480 1479
f 1476 1473 1478 1480
f 1478 1477 1479 1480
g v5_n18
v 183.72 155.02 0.0
v 187.38 155.02 0.0
v 187.38 148.01 0.0
v 183.72 148.01 0.0
v 187.38 155.02 9.9
v 183.72 155.02 9.9
v 187.38 148.01 9.9
v 183.72 148.01 9.9
usemtl color_185
f 1481 1482 1483 1484
f 1481 1482 1485 1486
f 1482 1483 1487 1485
f 1483 1484 1488 1487
f 1484 1481 1486 1488
f 1486 1485 1487 1488
g v5_n19
v 198.36 155.02 0.0
v 202.02 155.02 0.0
v 202.02 148.01 0.0
v 198.36 148.01 0.0
v 202.02 155.02 9.9
v 198.36 155.02 9.9
v 202.02 148.01 9.9
v 198.36 148.01 9.9
usemtl color_186
f 1489 1490 1491 1492
f 1489 1490 1493 1494
f 1490 1491 1495 1493
f 1491 1492 1496 1495
f 1492 1489 1494 1496
f 1494 1493 1495 1496
g v6_b
v 51.24 345.03 9.9
v 54.9 345.03 9.9
v 54.9 338.02 9.9
v 51.24 338.02 9.9
v 54.9 345.03 19.8
v 51.24 345.03 19.8
v 54.9 338.02 19.8
v 51.24 338.02 19.8
usemtl color_187
f 1497 1498 1499 1500
f 1497 1498 1501 1502
f 1498 1499 1503 1501
f 1499 1500 1504 1503
f 1500 1497 1502 1504
f 1502 1501 1503 1504
g v6_n0
v 58.56 342.925 9.9
v 62.22 342.925 9.9
v 62.22 340.125 9.9
v 58.56 340.125 9.9
v 62.22 342.925 14.79
v 58.56 342.925 14.79
v 62.22 340.125 14.79
v 58.56 340.125 14.79
usemtl color_188
f 1505 1506 1507 1508
f 1505 1506 1509 1510
f 1506 1507 1511 1509
f 1507 1508 1512 1511
f 1508 1505 1510 1512
f 1510 1509 1511 1512
g v6_n1
v 65.88 345.03 9.9
v 69.54 345.03 9.9
v 69.54 338.02 9.9
v 65.88 338.02 9.9
v 69.54 345.03 19.8
v 65.88 345.03 19.8
v 69.54 338.02 19.8
v 65.88 338.02 19.8
usemtl color_189
f 1513 1514 1515 1516
f 1513 1514 1517 1518
f 1514 1515 1519 1517
f 1515 1516 1520 1519
f 1516 1513 1518 1520
f 1518 1517 1519 1520
g v6_n10
v 59.89 363.025 9.9
v 60.89 363.025 9.9
v 60.89 362.025 9.9
v 59.89 362.025 9.9
v 60.89 363.025 10.9
v 59.89 363.025 10.9
v 60.89 362.025 10.9
v 59.89 362.025 10.9
usemtl color_190
f 1521 1522 1523 1524
f 1521 1522 1525 1526
f 1522 1523 1527 1525
f 1523 1524 1528 1527
f 1524 1521 1526 1528
f 1526 1525 1527 1528
g v6_n11
v 59.89 321.025 9.9
v 60.89 321.025 9.9
v 60.89 320.025 9.9
v 59.89 320.025 9.9
v 60.89 321.025 10.9
v 59.89 321.025 10.9
v 60.89 320.025 10.9
v 59.89 320.025 10.9
usemtl color_191
f 1529 1530 1531 1532
f 1529 1530 1533 1534
f 1530 1531 1535 1533
f 1531 1532 1536 1535
f 1532 1529 1534 1536
f 1534 1533 1535 1536
g v6_n2
v 51.24 324.03 9.9
v 54.9 324.03 9.9
v 54.9 317.02 9.9
v 51.24 317.02 9.9
v 54.9 324.03 19.8
v 51.24 324.03 19.8
v 54.9 317.02 19.8
v 51.24 317.02 19.8
usemtl color_192
f 1537 1538 1539 1540
f 1537 1538 1541 1542
f 1538 1539 1543 1541
f 1539 1540 1544 1543
f 1540 1537 1542 1544
f 1542 1541 1543 1544
g v6_n29
v 51.24 363.775 9.9
v 54.9 363.775 9.9
v 54.9 361.275 9.9
v 51.24 361.275 9.9
v 54.9 363.775 12.48
v 51.24 363.775 12.48
v 54.9 361.275 12.48
v 51.24 361.275 12.48
usemtl color_193
f 1545 1546 1547 1548
f 1545 1546 1549 1550
f 1546 1547 1551 1549
f 1547 1548 1552 1551
f 1548 1545 1550 1552
f 1550 1549 1551 1552
g v6_n3
v 65.88 324.03 9.9
v 69.54 324.03 9.9
v 69.54 317.02 9.9
v 65.88 317.02 9.9
v 69.54 324.03 19.8
v 65.88 324.03 19.8
v 69.54 317.02 19.8
v 65.88 317.02 19.8
usemtl color_194
f 1553 1554 1555 1556
f 1553 1554 1557 1558
f 1554 1555 1559 1557
f 1555 1556 1560 1559
f 1556 1553 1558 1560
f 1558 1557 1559 1560
g v6_n4
v 65.88 366.03 9.9
v 69.54 366.03 9.9
v 69.54 359.02 9.9
v 65.88 359.02 9.9
v 69.54 366.03 19.8
v 65.88 366.03 19.8
v 69.54 359.02 19.8
v 65.88 359.02 19.8
usemtl color_195
f 1561 1562 1563 1564
f 1561 1562 1565 1566
f 1562 1563 1567 1565
f 1563 1564 1568 1567
f 1564 1561 1566 1568
f 1566 1565 1567 1568
g v6_n5
v 43.92 303.03 9.9
v 47.58 303.03 9.9
v 47.58 296.02 9.9
v 43.92 296.02 9.9
v 47.58 303.03 19.8
v 43.92 303.03 19.8
v 47.58 296.02 19.8
v 43.92 296.02 19.8
usemtl color_196
f 1569 1570 1571 1572
f 1569 1570 1573 1574
f 1570 1571 1575 1573
f 1571 1572 1576 1575
f 1572 1569 1574 1576
f 1574 1573 1575 1576
g v6_n6
v 43.92 324.03 9.9
v 47.58 324.03 9.9
v 47.58 317.02 9.9
v 43.92 317.02 9.9
v 47.58 324.03 19.8
v 43.92 324.03 19.8
v 47.58 317.02 19.8
v 43.92 317.02 19.8
usemtl color_197
f 1577 1578 1579 1580
f 1577 1578 1581 1582
f 1578 1579 1583 1581
f 1579 1580 1584 1583
f 1580 1577 1582 1584
f 1582 1581 1583 1584
g v6_n7
v 43.92 345.03 9.9
v 47.58 345.03 9.9
v 47.58 338.02 9.9
v 43.92 338.02 9.9
v 47.58 345.03 19.8
v 43.92 345.03 19.8
v 47.58 338.02 19.8
v 43.92 338.02 19.8
usemtl color_198
f 1585 1586 1587 1588
f 1585 1586 1589 1590
f 1586 1587 1591 1589
f 1587 1588 1592 1591
f 1588 1585 1590 1592
f 1590 1589 1591 1592
g v6_n8
v 43.92 366.03 9.9
v 47.58 366.03 9.9
v 47.58 359.02 9.9
v 43.92 359.02 9.9
v 47.58 366.03 19.8
v 43.92 366.03 19.8
v 47.58 359.02 19.8
v 43.92 359.02 19.8
usemtl color_199
f 1593 1594 1595 1596
f 1593 1594 1597 1598
f 1594 1595 1599 1597
f 1595 1596 1600 1599
f 1596 1593 1598 1600
f 1598 1597 1599 1600
g v6_n9
v 45.25 384.025 9.9
v 46.25 384.025 9.9
v 46.25 383.025 9.9
v 45.25 383.025 9.9
v 46.25 384.025 10.9
v 45.25 384.025 10.9
v 46.25 383.025 10.9
v 45.25 383.025 10.9
usemtl color_200
f 1601 1602 1603 1604
f 1601 1602 1605 1606
f 1602 1603 1607 1605
f 1603 1604 1608 1607
f 1604 1601 1606 1608
f 1606 1605 1607 1608
g v6_n12
v 51.24 303.03 9.9
v 54.9 303.03 9.9
v 54.9 296.02 9.9
v 51.24 296.02 9.9
v 54.9 303.03 19.8
v 51.24 303.03 19.8
v 54.9 296.02 19.8
v 51.24 296.02 19.8
usemtl color_201
f 1609 1610 1611 1612
f 1609 1610 1613 1614
f 1610 1611 1615 1613
f 1611 1612 1616 1615
f 1612 1609 1614 1616
f 1614 1613 1615 1616
g v6_n13
v 36.6 321.925 9.9
v 40.26 321.925 9.9
v 40.26 319.125 9.9
v 36.6 319.125 9.9
v 40.26 321.925 14.79
v 36.6 321.925 14.79
v 40.26 319.125 14.79
v 36.6 319.125 14.79
usemtl color_202
f 1617 1618 1619 1620
f 1617 1618 1621 1622
f 1618 1619 1623 1621
f 1619 1620 1624 1623
f 1620 1617 1622 1624
f 1622 1621 1623 1624
g v6_n17
v 36.6 342.925 9.9
v 40.26 342.925 9.9
v 40.26 340.125 9.9
v 36.6 340.125 9.9
v 40.26 342.925 14.79
v 36.6 342.925 14.79
v 40.26 340.125 14.79
v 36.6 340.125 14.79
usemtl color_203
f 1625 1626 1627 1628
f 1625 1626 1629 1630
f 1626 1627 1631 1629
f 1627 1628 1632 1631
f 1628 1625 1630 1632
f 1630 1629 1631 1632
g v6_n14
v 29.28 324.03 9.9
v 32.94 324.03 9.9
v 32.94 317.02 9.9
v 29.28 317.02 9.9
v 32.94 324.03 19.8
v 29.28 324.03 19.8
v 32.94 317.02 19.8
v 29.28 317.02 19.8
usemtl color_204
f 1633 1634 1635 1636
f 1633 1634 1637 1638
f 1634 1635 1639 1637
f 1635 1636 1640 1639
f 1636 1633 1638 1640
f 1638 1637 1639 1640
g v6_n15
v 36.6 303.03 9.9
v 40.26 303.03 9.9
v 40.26 296.02 9.9
v 36.6 296.02 9.9
v 40.26 303.03 19.8
v 36.6 303.03 19.8
v 40.26 296.02 19.8
v 36.6 296.02 19.8
usemtl color_205
f 1641 1642 1643 1644
f 1641 1642 1645 1646
f 1642 1643 1647 1645
f 1643 1644 1648 1647
f 1644 1641 1646 1648
f 1646 1645 1647 1648
g v6_n16
v 29.28 303.03 9.9
v 32.94 303.03 9.9
v 32.94 296.02 9.9
v 29.28 296.02 9.9
v 32.94 303.03 19.8
v 29.28 303.03 19.8
v 32.94 296.02 19.8
v 29.28 296.02 19.8
usemtl color_206
f 1649 1650 1651 1652
f 1649 1650 1653 1654
f 1650 1651 1655 1653
f 1651 1652 1656 1655
f 1652 1649 1654 1656
f 1654 1653 1655 1656
g v6_n18
v 29.28 345.03 9.9
v 32.94 345.03 9.9
v 32.94 338.02 9.9
v 29.28 338.02 9.9
v 32.94 345.03 19.8
v 29.28 345.03 19.8
v 32.94 338.02 19.8
v 29.28 338.02 19.8
usemtl color_207
f 1657 1658 1659 1660
f 1657 1658 1661 1662
f 1658 1659 1663 1661
f 1659 1660 1664 1663
f 1660 1657 1662 1664
f 1662 1661 1663 1664
g v6_n19
v 36.6 366.03 9.9
v 40.26 366.03 9.9
v 40.26 359.02 9.9
v 36.6 359.02 9.9
v 40.26 366.03 19.8
v 36.6 366.03 19.8
v 40.26 359.02 19.8
v 36.6 359.02 19.8
usemtl color_208
f 1665 1666 1667 1668
f 1665 1666 1669 1670
f 1666 1667 1671 1669
f 1667 1668 1672 1671
f 1668 1665 1670 1672
f 1670 1669 1671 1672
g v6_n20
v 29.28 366.03 9.9
v 32.94 366.03 9.9
v 32.94 359.02 9.9
v 29.28 359.02 9.9
v 32.94 366.03 19.8
v 29.28 366.03 19.8
v 32.94 359.02 19.8
v 29.28 359.02 19.8
usemtl color_209
f 1673 1674 1675 1676
f 1673 1674 1677 1678
f 1674 1675 1679 1677
f 1675 1676 1680 1679
f 1676 1673 1678 1680
f 1678 1677 1679 1680
g v6_n21
v 21.96 303.03 9.9
v 25.62 303.03 9.9
v 25.62 296.02 9.9
v 21.96 296.02 9.9
v 25.62 303.03 19.8
v 21.96 303.03 19.8
v 25.62 296.02 19.8
v 21.96 296.02 19.8
usemtl color_210
f 1681 1682 1683 1684
f 1681 1682 1685 1686
f 1682 1683 1687 1685
f 1683 1684 1688 1687
f 1684 1681 1686 1688
f 1686 1685 1687 1688
g v6_n22
v 21.96 324.03 9.9
v 25.62 324.03 9.9
v 25.62 317.02 9.9
v 21.96 317.02 9.9
v 25.62 324.03 19.8
v 21.96 324.03 19.8
v 25.62 317.02 19.8
v 21.96 317.02 19.8
usemtl color_211
f 1689 1690 1691 1692
f 1689 1690 1693 1694
f 1690 1691 1695 1693
f 1691 1692 1696 1695
f 1692 1689 1694 1696
f 1694 1693 1695 1696
g v6_n23
v 21.96 345.03 9.9
v 25.62 345.03 9.9
v 25.62 338.02 9.9
v 21.96 338.02 9.9
v 25.62 345.03 19.8
v 21.96 345.03 19.8
v 25.62 338.02 19.8
v 21.96 338.02 19.8
usemtl color_212
f 1697 1698 1699 1700
f 1697 1698 1701 1702
f 1698 1699 1703 1701
f 1699 1700 1704 1703
f 1700 1697 1702 1704
f 1702 1701 1703 1704
g v6_n24
v 21.96 366.03 9.9
v 25.62 366.03 9.9
v 25.62 359.02 9.9
v 21.96 359.02 9.9
v 25.62 366.03 19.8
v 21.96 366.03 19.8
v 25.62 359.02 19.8
v 21.96 359.02 19.8
usemtl color_213
f 1705 1706 1707 1708
f 1705 1706 1709 1710
f 1706 1707 1711 1709
f 1707 1708 1712 1711
f 1708 1705 1710 1712
f 1710 1709 1711 1712
g v6_n25
v 21.96 387.03 9.9
v 25.62 387.03 9.9
v 25.62 380.02 9.9
v 21.96 380.02 9.9
v 25.62 387.03 19.8
v 21.96 387.03 19.8
v 25.62 380.02 19.8
v 21.96 380.02 19.8
usemtl color_214
f 1713 1714 1715 1716
f 1713 1714 1717 1718
f 1714 1715 1719 1717
f 1715 1716 1720 1719
f 1716 1713 1718 1720
f 1718 1717 1719 1720
g v6_n26
v 29.28 387.03 9.9
v 32.94 387.03 9.9
v 32.94 380.02 9.9
v 29.28 380.02 9.9
v 32.94 387.03 19.8
v 29.28 387.03 19.8
v 32.94 380.02 19.8
v 29.28 380.02 19.8
usemtl color_215
f 1721 1722 1723 1724
f 1721 1722 1725 1726
f 1722 1723 1727 1725
f 1723 1724 1728 1727
f 1724 1721 1726 1728
f 1726 1725 1727 1728
g v6_n27
v 36.6 387.03 9.9
v 40.26 387.03 9.9
v 40.26 380.02 9.9
v 36.6 380.02 9.9
v 40.26 387.03 19.8
v 36.6 387.03 19.8
v 40.26 380.02 19.8
v 36.6 380.02 19.8
usemtl color_216
f 1729 1730 1731 1732
f 1729 1730 1733 1734
f 1730 1731 1735 1733
f 1731 1732 1736 1735
f 1732 1729 1734 1736
f 1734 1733 1735 1736
g v6_n30
v 14.64 363.925 9.9
v 18.3 363.925 9.9
v 18.3 361.125 9.9
v 14.64 361.125 9.9
v 18.3 363.925 14.79
v 14.64 363.925 14.79
v 18.3 361.125 14.79
v 14.64 361.125 14.79
usemtl color_217
f 1737 1738 1739 1740
f 1737 1738 1741 1742
f 1738 1739 1743 1741
f 1739 1740 1744 1743
f 1740 1737 1742 1744
f 1742 1741 1743 1744
g v6_n31
v 7.32 366.03 9.9
v 10.98 366.03 9.9
v 10.98 359.02 9.9
v 7.32 359.02 9.9
v 10.98 366.03 19.8
v 7.32 366.03 19.8
v 10.98 359.02 19.8
v 7.32 359.02 19.8
usemtl color_218
f 1745 1746 1747 1748
f 1745 1746 1749 1750
f 1746 1747 1751 1749
f 1747 1748 1752 1751
f 1748 1745 1750 1752
f 1750 1749 1751 1752
g v6_n32
v 14.64 387.03 9.9
v 18.3 387.03 9.9
v 18.3 380.02 9.9
v 14.64 380.02 9.9
v 18.3 387.03 19.8
v 14.64 387.03 19.8
v 18.3 380.02 19.8
v 14.64 380.02 19.8
usemtl color_219
f 1753 1754 1755 1756
f 1753 1754 1757 1758
f 1754 1755 1759 1757
f 1755 1756 1760 1759
f 1756 1753 1758 1760
f 1758 1757 1759 1760
g v6_n33
v 14.64 345.03 9.9
v 18.3 345.03 9.9
v 18.3 338.02 9.9
v 14.64 338.02 9.9
v 18.3 345.03 19.8
v 14.64 345.03 19.8
v 18.3 338.02 19.8
v 14.64 338.02 19.8
usemtl color_220
f 1761 1762 1763 1764
f 1761 1762 1765 1766
f 1762 1763 1767 1765
f 1763 1764 1768 1767
f 1764 1761 1766 1768
f 1766 1765 1767 1768
g v6_n34
v 7.32 345.03 9.9
v 10.98 345.03 9.9
v 10.98 338.02 9.9
v 7.32 338.02 9.9
v 10.98 345.03 19.8
v 7.32 345.03 19.8
v 10.98 338.02 19.8
v 7.32 338.02 19.8
usemtl color_221
f 1769 1770 1771 1772
f 1769 1770 1773 1774
f 1770 1771 1775 1773
f 1771 1772 1776 1775
f 1772 1769 1774 1776
f 1774 1773 1775 1776
g v6_n35
v 7.32 387.03 9.9
v 10.98 387.03 9.9
v 10.98 380.02 9.9
v 7.32 380.02 9.9
v 10.98 387.03 19.8
v 7.32 387.03 19.8
v 10.98 380.02 19.8
v 7.32 380.02 19.8
usemtl color_222
f 1777 1778 1779 1780
f 1777 1778 1781 1782
f 1778 1779 1783 1781
f 1779 1780 1784 1783
f 1780 1777 1782 1784
f 1782 1781 1783 1784
g v6_n36
v 0.0 324.03 9.9
v 3.66 324.03 9.9
v 3.66 317.02 9.9
v 0.0 317.02 9.9
v 3.66 324.03 19.8
v 0.0 324.03 19.8
v 3.66 317.02 19.8
v 0.0 317.02 19.8
usemtl color_223
f 1785 1786 1787 1788
f 1785 1786 1789 1790
f 1786 1787 1791 1789
f 1787 1788 1792 1791
f 1788 1785 1790 1792
f 1790 1789 1791 1792
g v6_n28
v 56.73 365.325 0.0
v 64.05 365.325 0.0
v 64.05 359.725 0.0
v 56.73 359.725 0.0
v 64.05 365.325 9.9
v 56.73 365.325 9.9
v 64.05 359.725 9.9
v 56.73 359.725 9.9
usemtl color_224
f 1793 1794 1795 1796
f 1793 1794 1797 1798
f 1794 1795 1799 1797
f 1795 1796 1800 1799
f 1796 1793 1798 1800
f 1798 1797 1799 1800
g v7_b
v 99.18 324.03 0.0
v 102.84 324.03 0.0
v 102.84 317.02 0.0
v 99.18 317.02 0.0
v 102.84 324.03 9.9
v 99.18 324.03 9.9
v 102.84 317.02 9.9
v 99.18 317.02 9.9
usemtl color_225
f 1801 1802 1803 1804
f 1801 1802 1805 1806
f 1802 1803 1807 1805
f 1803 1804 1808 1807
f 1804 1801 1806 1808
f 1806 1805 1807 1808
g v7_n0
v 106.5 324.03 0.0
v 110.16 324.03 0.0
v 110.16 317.02 0.0
v 106.5 317.02 0.0
v 110.16 324.03 9.9
v 106.5 324.03 9.9
v 110.16 317.02 9.9
v 106.5 317.02 9.9
usemtl color_226
f 1809 1810 1811 1812
f 1809 1810 1813 1814
f 1810 1811 1815 1813
f 1811 1812 1816 1815
f 1812 1809 1814 1816
f 1814 1813 1815 1816
g v7_n3
v 91.86 324.03 0.0
v 95.52 324.03 0.0
v 95.52 317.02 0.0
v 91.86 317.02 0.0
v 95.52 324.03 9.9
v 91.86 324.03 9.9
v 95.52 317.02 9.9
v 91.86 317.02 9.9
usemtl color_227
f 1817 1818 1819 1820
f 1817 1818 1821 1822
f 1818 1819 1823 1821
f 1819 1820 1824 1823
f 1820 1817 1822 1824
f 1822 1821 1823 1824
g v7_n7
v 99.18 345.03 0.0
v 102.84 345.03 0.0
v 102.84 338.02 0.0
v 99.18 338.02 0.0
v 102.84 345.03 9.9
v 99.18 345.03 9.9
v 102.84 338.02 9.9
v 99.18 338.02 9.9
usemtl color_228
f 1825 1826 1827 1828
f 1825 1826 1829 1830
f 1826 1827 1831 1829
f 1827 1828 1832 1831
f 1828 1825 1830 1832
f 1830 1829 1831 1832
g v7_n1
v 113.82 324.03 0.0
v 117.48 324.03 0.0
v 117.48 317.02 0.0
v 113.82 317.02 0.0
v 117.48 324.03 9.9
v 113.82 324.03 9.9
v 117.48 317.02 9.9
v 113.82 317.02 9.9
usemtl color_229
f 1833 1834 1835 1836
f 1833 1834 1837 1838
f 1834 1835 1839 1837
f 1835 1836 1840 1839
f 1836 1833 1838 1840
f 1838 1837 1839 1840
g v7_n2
v 106.5 345.03 0.0
v 110.16 345.03 0.0
v 110.16 338.02 0.0
v 106.5 338.02 0.0
v 110.16 345.03 9.9
v 106.5 345.03 9.9
v 110.16 338.02 9.9
v 106.5 338.02 9.9
usemtl color_230
f 1841 1842 1843 1844
f 1841 1842 1845 1846
f 1842 1843 1847 1845
f 1843 1844 1848 1847
f 1844 1841 1846 1848
f 1846 1845 1847 1848
g v7_n19
v 84.54 324.03 0.0
v 88.2 324.03 0.0
v 88.2 317.02 0.0
v 84.54 317.02 0.0
v 88.2 324.03 9.9
v 84.54 324.03 9.9
v 88.2 317.02 9.9
v 84.54 317.02 9.9
usemtl color_231
f 1849 1850 1851 1852
f 1849 1850 1853 1854
f 1850 1851 1855 1853
f 1851 1852 1856 1855
f 1852 1849 1854 1856
f 1854 1853 1855 1856
g v7_n4
v 91.86 345.03 0.0
v 95.52 345.03 0.0
v 95.52 338.02 0.0
v 91.86 338.02 0.0
v 95.52 345.03 9.9
v 91.86 345.03 9.9
v 95.52 338.02 9.9
v 91.86 338.02 9.9
usemtl color_232
f 1857 1858 1859 1860
f 1857 1858 1861 1862
f 1858 1859 1863 1861
f 1859 1860 1864 1863
f 1860 1857 1862 1864
f 1862 1861 1863 1864
g v7_n5
v 91.86 303.03 0.0
v 95.52 303.03 0.0
v 95.52 296.02 0.0
v 91.86 296.02 0.0
v 95.52 303.03 9.9
v 91.86 303.03 9.9
v 95.52 296.02 9.9
v 91.86 296.02 9.9
usemtl color_233
f 1865 1866 1867 1868
f 1865 1866 1869 1870
f 1866 1867 1871 1869
f 1867 1868 1872 1871
f 1868 1865 1870 1872
f 1870 1869 1871 1872
g v7_n6
v 84.54 303.03 0.0
v 88.2 303.03 0.0
v 88.2 296.02 0.0
v 84.54 296.02 0.0
v 88.2 303.03 9.9
v 84.54 303.03 9.9
v 88.2 296.02 9.9
v 84.54 296.02 9.9
usemtl color_234
f 1873 1874 1875 1876
f 1873 1874 1877 1878
f 1874 1875 1879 1877
f 1875 1876 1880 1879
f 1876 1873 1878 1880
f 1878 1877 1879 1880
g v7_n23
v 113.82 345.03 0.0
v 117.48 345.03 0.0
v 117.48 338.02 0.0
v 113.82 338.02 0.0
v 117.48 345.03 9.9
v 113.82 345.03 9.9
v 117.48 338.02 9.9
v 113.82 338.02 9.9
usemtl color_235
f 1881 1882 1883 1884
f 1881 1882 1885 1886
f 1882 1883 1887 1885
f 1883 1884 1888 1887
f 1884 1881 1886 1888
f 1886 1885 1887 1888
g v7_n8
v 106.5 363.925 0.0
v 110.16 363.925 0.0
v 110.16 361.125 0.0
v 106.5 361.125 0.0
v 110.16 363.925 4.89
v 106.5 363.925 4.89
v 110.16 361.125 4.89
v 106.5 361.125 4.89
usemtl color_236
f 1889 1890 1891 1892
f 1889 1890 1893 1894
f 1890 1891 1895 1893
f 1891 1892 1896 1895
f 1892 1889 1894 1896
f 1894 1893 1895 1896
g v7_n10
v 113.82 366.03 0.0
v 117.48 366.03 0.0
v 117.48 359.02 0.0
v 113.82 359.02 0.0
v 117.48 366.03 9.9
v 113.82 366.03 9.9
v 117.48 359.02 9.9
v 113.82 359.02 9.9
usemtl color_237
f 1897 1898 1899 1900
f 1897 1898 1901 1902
f 1898 1899 1903 1901
f 1899 1900 1904 1903
f 1900 1897 1902 1904
f 1902 1901 1903 1904
g v7_n11
v 99.18 366.03 0.0
v 102.84 366.03 0.0
v 102.84 359.02 0.0
v 99.18 359.02 0.0
v 102.84 366.03 9.9
v 99.18 366.03 9.9
v 102.84 359.02 9.9
v 99.18 359.02 9.9
usemtl color_238
f 1905 1906 1907 1908
f 1905 1906 1909 1910
f 1906 1907 1911 1909
f 1907 1908 1912 1911
f 1908 1905 1910 1912
f 1910 1909 1911 1912
g v7_n12
v 106.5 387.03 0.0
v 110.16 387.03 0.0
v 110.16 380.02 0.0
v 106.5 380.02 0.0
v 110.16 387.03 9.9
v 106.5 387.03 9.9
v 110.16 380.02 9.9
v 106.5 380.02 9.9
usemtl color_239
f 1913 1914 1915 1916
f 1913 1914 1917 1918
f 1914 1915 1919 1917
f 1915 1916 1920 1919
f 1916 1913 1918 1920
f 1918 1917 1919 1920
g v7_n13
v 99.18 387.03 0.0
v 102.84 387.03 0.0
v 102.84 380.02 0.0
v 99.18 380.02 0.0
v 102.84 387.03 9.9
v 99.18 387.03 9.9
v 102.84 380.02 9.9
v 99.18 380.02 9.9
usemtl color_240
f 1921 1922 1923 1924
f 1921 1922 1925 1926
f 1922 1923 1927 1925
f 1923 1924 1928 1927
f 1924 1921 1926 1928
f 1926 1925 1927 1928
g v7_n14
v 113.82 387.03 0.0
v 117.48 387.03 0.0
v 117.48 380.02 0.0
v 113.82 380.02 0.0
v 117.48 387.03 9.9
v 113.82 387.03 9.9
v 117.48 380.02 9.9
v 113.82 380.02 9.9
usemtl color_241
f 1929 1930 1931 1932
f 1929 1930 1933 1934
f 1930 1931 1935 1933
f 1931 1932 1936 1935
f 1932 1929 1934 1936
f 1934 1933 1935 1936
g v7_n15
v 91.86 366.03 0.0
v 95.52 366.03 0.0
v 95.52 359.02 0.0
v 91.86 359.02 0.0
v 95.52 366.03 9.9
v 91.86 366.03 9.9
v 95.52 359.02 9.9
v 91.86 359.02 9.9
usemtl color_242
f 1937 1938 1939 1940
f 1937 1938 1941 1942
f 1938 1939 1943 1941
f 1939 1940 1944 1943
f 1940 1937 1942 1944
f 1942 1941 1943 1944
g v7_n16
v 91.86 387.03 0.0
v 95.52 387.03 0.0
v 95.52 380.02 0.0
v 91.86 380.02 0.0
v 95.52 387.03 9.9
v 91.86 387.03 9.9
v 95.52 380.02 9.9
v 91.86 380.02 9.9
usemtl color_243
f 1945 1946 1947 1948
f 1945 1946 1949 1950
f 1946 1947 1951 1949
f 1947 1948 1952 1951
f 1948 1945 1950 1952
f 1950 1949 1951 1952
g v7_n17
v 91.86 408.03 0.0
v 95.52 408.03 0.0
v 95.52 401.02 0.0
v 91.86 401.02 0.0
v 95.52 408.03 9.9
v 91.86 408.03 9.9
v 95.52 401.02 9.9
v 91.86 401.02 9.9
usemtl color_244
f 1953 1954 1955 1956
f 1953 1954 1957 1958
f 1954 1955 1959 1957
f 1955 1956 1960 1959
f 1956 1953 1958 1960
f 1958 1957 1959 1960
g v7_n18
v 99.18 408.03 0.0
v 102.84 408.03 0.0
v 102.84 401.02 0.0
v 99.18 401.02 0.0
v 102.84 408.03 9.9
v 99.18 408.03 9.9
v 102.84 401.02 9.9
v 99.18 401.02 9.9
usemtl color_245
f 1961 1962 1963 1964
f 1961 1962 1965 1966
f 1962 1963 1967 1965
f 1963 1964 1968 1967
f 1964 1961 1966 1968
f 1966 1965 1967 1968
g v7_n9
v 106.5 408.03 0.0
v 110.16 408.03 0.0
v 110.16 401.02 0.0
v 106.5 401.02 0.0
v 110.16 408.03 9.9
v 106.5 408.03 9.9
v 110.16 401.02 9.9
v 106.5 401.02 9.9
usemtl color_246
f 1969 1970 1971 1972
f 1969 1970 1973 1974
f 1970 1971 1975 1973
f 1971 1972 1976 1975
f 1972 1969 1974 1976
f 1974 1973 1975 1976
g v7_n20
v 121.14 387.03 0.0
v 124.8 387.03 0.0
v 124.8 380.02 0.0
v 121.14 380.02 0.0
v 124.8 387.03 9.9
v 121.14 387.03 9.9
v 124.8 380.02 9.9
v 121.14 380.02 9.9
usemtl color_247
f 1977 1978 1979 1980
f 1977 1978 1981 1982
f 1978 1979 1983 1981
f 1979 1980 1984 1983
f 1980 1977 1982 1984
f 1982 1981 1983 1984
g v7_n21
v 128.46 387.03 0.0
v 132.12 387.03 0.0
v 132.12 380.02 0.0
v 128.46 380.02 0.0
v 132.12 387.03 9.9
v 128.46 387.03 9.9
v 132.12 380.02 9.9
v 128.46 380.02 9.9
usemtl color_248
f 1985 1986 1987 1988
f 1985 1986 1989 1990
f 1986 1987 1991 1989
f 1987 1988 1992 1991
f 1988 1985 1990 1992
f 1990 1989 1991 1992
g v7_n22
v 121.14 408.03 0.0
v 124.8 408.03 0.0
v 124.8 401.02 0.0
v 121.14 401.02 0.0
v 124.8 408.03 9.9
v 121.14 408.03 9.9
v 124.8 401.02 9.9
v 121.14 401.02 9.9
usemtl color_249
f 1993 1994 1995 1996
f 1993 1994 1997 1998
f 1994 1995 1999 1997
f 1995 1996 2000 1999
f 1996 1993 1998 2000
f 1998 1997 1999 2000
g v8_b
v 205.68 352.025 9.9
v 209.34 352.025 9.9
v 209.34 345.015 9.9
v 205.68 345.015 9.9
v 209.34 352.025 19.8
v 205.68 352.025 19.8
v 209.34 345.015 19.8
v 205.68 345.015 19.8
usemtl color_250
f 2001 2002 2003 2004
f 2001 2002 2005 2006
f 2002 2003 2007 2005
f 2003 2004 2008 2007
f 2004 2001 2006 2008
f 2006 2005 2007 2008
g v8_n1
v 213.0 352.025 9.9
v 216.66 352.025 9.9
v 216.66 345.015 9.9
v 213.0 345.015 9.9
v 216.66 352.025 19.8
v 213.0 352.025 19.8
v 216.66 345.015 19.8
v 213.0 345.015 19.8
usemtl color_251
f 2009 2010 2011 2012
f 2009 2010 2013 2014
f 2010 2011 2015 2013
f 2011 2012 2016 2015
f 2012 2009 2014 2016
f 2014 2013 2015 2016
g v8_n2
v 198.36 352.025 9.9
v 202.02 352.025 9.9
v 202.02 345.015 9.9
v 198.36 345.015 9.9
v 202.02 352.025 19.8
v 198.36 352.025 19.8
v 202.02 345.015 19.8
v 198.36 345.015 19.8
usemtl color_252
f 2017 2018 2019 2020
f 2017 2018 2021 2022
f 2018 2019 2023 2021
f 2019 2020 2024 2023
f 2020 2017 2022 2024
f 2022 2021 2023 2024
g v8_n3
v 191.04 349.92 9.9
v 194.7 349.92 9.9
v 194.7 347.12 9.9
v 191.04 347.12 9.9
v 194.7 349.92 14.79
v 191.04 349.92 14.79
v 194.7 347.12 14.79
v 191.04 347.12 14.79
usemtl color_253
f 2025 2026 2027 2028
f 2025 2026 2029 2030
f 2026 2027 2031 2029
f 2027 2028 2032 2031
f 2028 2025 2030 2032
f 2030 2029 2031 2032
g v8_n10
v 183.72 352.025 9.9
v 187.38 352.025 9.9
v 187.38 345.015 9.9
v 183.72 345.015 9.9
v 187.38 352.025 19.8
v 183.72 352.025 19.8
v 187.38 345.015 19.8
v 183.72 345.015 19.8
usemtl color_254
f 2033 2034 2035 2036
f 2033 2034 2037 2038
f 2034 2035 2039 2037
f 2035 2036 2040 2039
f 2036 2033 2038 2040
f 2038 2037 2039 2040
g v8_n11
v 191.04 373.025 9.9
v 194.7 373.025 9.9
v 194.7 366.015 9.9
v 191.04 366.015 9.9
v 194.7 373.025 19.8
v 191.04 373.025 19.8
v 194.7 366.015 19.8
v 191.04 366.015 19.8
usemtl color_255
f 2041 2042 2043 2044
f 2041 2042 2045 2046
f 2042 2043 2047 2045
f 2043 2044 2048 2047
f 2044 2041 2046 2048
f 2046 2045 2047 2048
g v8_n14
v 192.37 328.02 9.9
v 193.37 328.02 9.9
v 193.37 327.02 9.9
v 192.37 327.02 9.9
v 193.37 328.02 10.9
v 192.37 328.02 10.9
v 193.37 327.02 10.9
v 192.37 327.02 10.9
usemtl color_256
f 2049 2050 2051 2052
f 2049 2050 2053 2054
f 2050 2051 2055 2053
f 2051 2052 2056 2055
f 2052 2049 2054 2056
f 2054 2053 2055 2056
g v8_n15
v 185.05 328.02 9.9
v 186.05 328.02 9.9
v 186.05 327.02 9.9
v 185.05 327.02 9.9
v 186.05 328.02 10.9
v 185.05 328.02 10.9
v 186.05 327.02 10.9
v 185.05 327.02 10.9
usemtl color_257
f 2057 2058 2059 2060
f 2057 2058 2061 2062
f 2058 2059 2063 2061
f 2059 2060 2064 2063
f 2060 2057 2062 2064
f 2062 2061 2063 2064
g v8_n16
v 185.05 370.02 9.9
v 186.05 370.02 9.9
v 186.05 369.02 9.9
v 185.05 369.02 9.9
v 186.05 370.02 10.9
v 185.05 370.02 10.9
v 186.05 369.02 10.9
v 185.05 369.02 10.9
usemtl color_258
f 2065 2066 2067 2068
f 2065 2066 2069 2070
f 2066 2067 2071 2069
f 2067 2068 2072 2071
f 2068 2065 2070 2072
f 2070 2069 2071 2072
g v8_n17
v 199.69 328.02 9.9
v 200.69 328.02 9.9
v 200.69 327.02 9.9
v 199.69 327.02 9.9
v 200.69 328.02 10.9
v 199.69 328.02 10.9
v 200.69 327.02 10.9
v 199.69 327.02 10.9
usemtl color_259
f 2073 2074 2075 2076
f 2073 2074 2077 2078
f 2074 2075 2079 2077
f 2075 2076 2080 2079
f 2076 2073 2078 2080
f 2078 2077 2079 2080
g v8_n18
v 199.69 370.02 9.9
v 200.69 370.02 9.9
v 200.69 369.02 9.9
v 199.69 369.02 9.9
v 200.69 370.02 10.9
v 199.69 370.02 10.9
v 200.69 369.02 10.9
v 199.69 369.02 10.9
usemtl color_260
f 2081 2082 2083 2084
f 2081 2082 2085 2086
f 2082 2083 2087 2085
f 2083 2084 2088 2087
f 2084 2081 2086 2088
f 2086 2085 2087 2088
g v8_n4
v 176.4 310.025 9.9
v 180.06 310.025 9.9
v 180.06 303.015 9.9
v 176.4 303.015 9.9
v 180.06 310.025 19.8
v 176.4 310.025 19.8
v 180.06 303.015 19.8
v 176.4 303.015 19.8
usemtl color_261
f 2089 2090 2091 2092
f 2089 2090 2093 2094
f 2090 2091 2095 2093
f 2091 2092 2096 2095
f 2092 2089 2094 2096
f 2094 2093 2095 2096
g v8_n5
v 176.4 331.025 9.9
v 180.06 331.025 9.9
v 180.06 324.015 9.9
v 176.4 324.015 9.9
v 180.06 331.025 19.8
v 176.4 331.025 19.8
v 180.06 324.015 19.8
v 176.4 324.015 19.8
usemtl color_262
f 2097 2098 2099 2100
f 2097 2098 2101 2102
f 2098 2099 2103 2101
f 2099 2100 2104 2103
f 2100 2097 2102 2104
f 2102 2101 2103 2104
g v8_n6
v 176.4 352.025 9.9
v 180.06 352.025 9.9
v 180.06 345.015 9.9
v 176.4 345.015 9.9
v 180.06 352.025 19.8
v 176.4 352.025 19.8
v 180.06 345.015 19.8
v 176.4 345.015 19.8
usemtl color_263
f 2105 2106 2107 2108
f 2105 2106 2109 2110
f 2106 2107 2111 2109
f 2107 2108 2112 2111
f 2108 2105 2110 2112
f 2110 2109 2111 2112
g v8_n7
v 176.4 373.025 9.9
v 180.06 373.025 9.9
v 180.06 366.015 9.9
v 176.4 366.015 9.9
v 180.06 373.025 19.8
v 176.4 373.025 19.8
v 180.06 366.015 19.8
v 176.4 366.015 19.8
usemtl color_264
f 2113 2114 2115 2116
f 2113 2114 2117 2118
f 2114 2115 2119 2117
f 2115 2116 2120 2119
f 2116 2113 2118 2120
f 2118 2117 2119 2120
g v8_n8
v 176.4 394.025 9.9
v 180.06 394.025 9.9
v 180.06 387.015 9.9
v 176.4 387.015 9.9
v 180.06 394.025 19.8
v 176.4 394.025 19.8
v 180.06 387.015 19.8
v 176.4 387.015 19.8
usemtl color_265
f 2121 2122 2123 2124
f 2121 2122 2125 2126
f 2122 2123 2127 2125
f 2123 2124 2128 2127
f 2124 2121 2126 2128
f 2126 2125 2127 2128
g v8_n9
v 183.72 310.025 9.9
v 187.38 310.025 9.9
v 187.38 303.015 9.9
v 183.72 303.015 9.9
v 187.38 310.025 19.8
v 183.72 310.025 19.8
v 187.38 303.015 19.8
v 183.72 303.015 19.8
usemtl color_266
f 2129 2130 2131 2132
f 2129 2130 2133 2134
f 2130 2131 2135 2133
f 2131 2132 2136 2135
f 2132 2129 2134 2136
f 2134 2133 2135 2136
g v8_n13
v 169.08 352.025 9.9
v 172.74 352.025 9.9
v 172.74 345.015 9.9
v 169.08 345.015 9.9
v 172.74 352.025 19.8
v 169.08 352.025 19.8
v 172.74 345.015 19.8
v 169.08 345.015 19.8
usemtl color_267
f 2137 2138 2139 2140
f 2137 2138 2141 2142
f 2138 2139 2143 2141
f 2139 2140 2144 2143
f 2140 2137 2142 2144
f 2142 2141 2143 2144
g v8_n0
v 205.68 359.02 0.0
v 209.34 359.02 0.0
v 209.34 338.02 0.0
v 205.68 338.02 0.0
v 209.34 359.02 5.0
v 205.68 359.02 5.0
v 209.34 338.02 5.0
v 205.68 338.02 5.0
usemtl color_268
f 2145 2146 2147 2148
f 2145 2146 2149 2150
f 2146 2147 2151 2149
f 2147 2148 2152 2151
f 2148 2145 2150 2152
f 2150 2149 2151 2152
g v8_n12
v 183.72 317.02 0.0
v 187.38 317.02 0.0
v 187.38 296.02 0.0
v 183.72 296.02 0.0
v 187.38 317.02 5.0
v 183.72 317.02 5.0
v 187.38 296.02 5.0
v 183.72 296.02 5.0
usemtl color_269
f 2153 2154 2155 2156
f 2153 2154 2157 2158
f 2154 2155 2159 2157
f 2155 2156 2160 2159
f 2156 2153 2158 2160
f 2158 2157 2159 2160