# topologicpy The version that you are using (0.9.57) is OLDER than the latest version (0.9.62) from PyPI. Please consider upgrading to the latest version.
mtllib example.mtl

g corridor_0
v 0.0 1.4 6.0
v 18.3 1.4 6.0
v 18.3 -1.4 6.0
v 0.0 -1.4 6.0
v 18.3 1.4 9.0
v 0.0 1.4 9.0
v 18.3 -1.4 9.0
v 0.0 -1.4 9.0
usemtl color_000
f 1 2 3 4
f 1 2 5 6
f 2 3 7 5
f 3 4 8 7
f 4 1 6 8
f 6 5 7 8
g entrance
v -3.66 3.9 0.0
v 0.0 3.9 0.0
v 0.0 1.4 0.0
v -3.66 1.4 0.0
v 0.0 3.9 3.0
v -3.66 3.9 3.0
v 0.0 1.4 3.0
v -3.66 1.4 3.0
usemtl color_001
f 9 10 11 12
f 9 10 13 14
f 10 11 15 13
f 11 12 16 15
f 12 9 14 16
f 14 13 15 16
g stair_E
v 18.3 1.4 0.0
v 21.96 1.4 0.0
v 21.96 -1.4 0.0
v 18.3 -1.4 0.0
v 21.96 1.4 9.0
v 18.3 1.4 9.0
v 21.96 -1.4 9.0
v 18.3 -1.4 9.0
usemtl color_002
f 17 18 19 20
f 17 18 21 22
f 18 19 23 21
f 19 20 24 23
f 20 17 22 24
f 22 21 23 24
g stair_W
v -3.66 1.4 0.0
v 0.0 1.4 0.0
v 0.0 -1.4 0.0
v -3.66 -1.4 0.0
v 0.0 1.4 9.0
v -3.66 1.4 9.0
v 0.0 -1.4 9.0
v -3.66 -1.4 9.0
usemtl color_003
f 25 26 27 28
f 25 26 29 30
f 26 27 31 29
f 27 28 32 31
f 28 25 30 32
f 30 29 31 32
g n0
v 14.64 12.627 6.0
v 18.3 12.627 6.0
v 18.3 9.82 6.0
v 14.64 9.82 6.0
v 18.3 12.627 9.0
v 14.64 12.627 9.0
v 18.3 9.82 9.0
v 14.64 9.82 9.0
usemtl color_004
f 33 34 35 36
f 33 34 37 38
f 34 35 39 37
f 35 36 40 39
f 36 33 38 40
f 38 37 39 40
g n1
v 14.64 14.03 6.0
v 18.3 14.03 6.0
v 18.3 12.627 6.0
v 14.64 12.627 6.0
v 18.3 14.03 9.0
v 14.64 14.03 9.0
v 18.3 12.627 9.0
v 14.64 12.627 9.0
usemtl color_005
f 41 42 43 44
f 41 42 45 46
f 42 43 47 45
f 43 44 48 47
f 44 41 46 48
f 46 45 47 48
g n2
v 16.02 9.9 6.0
v 16.92 9.9 6.0
v 16.92 9.74 6.0
v 16.02 9.74 6.0
v 16.92 9.9 8.1
v 16.02 9.9 8.1
v 16.92 9.74 8.1
v 16.02 9.74 8.1
usemtl color_006
f 49 50 51 52
f 49 50 53 54
f 50 51 55 53
f 51 52 56 55
f 52 49 54 56
f 54 53 55 56
g n3
v 15.87 11.823 8.94
v 17.07 11.823 8.94
v 17.07 10.623 8.94
v 15.87 10.623 8.94
v 17.07 11.823 9.06
v 15.87 11.823 9.06
v 17.07 10.623 9.06
v 15.87 10.623 9.06
usemtl color_007
f 57 58 59 60
f 57 58 61 62
f 58 59 63 61
f 59 60 64 63
f 60 57 62 64
f 62 61 63 64
g n4
v 10.98 4.207 6.0
v 12.81 4.207 6.0
v 12.81 1.4 6.0
v 10.98 1.4 6.0
v 12.81 4.207 9.0
v 10.98 4.207 9.0
v 12.81 1.4 9.0
v 10.98 1.4 9.0
usemtl color_008
f 65 66 67 68
f 65 66 69 70
f 66 67 71 69
f 67 68 72 71
f 68 65 70 72
f 70 69 71 72
g n5
v 10.98 7.82 6.0
v 14.64 7.82 6.0
v 14.64 4.207 6.0
v 10.98 4.207 6.0
v 14.64 7.82 9.0
v 10.98 7.82 9.0
v 14.64 4.207 9.0
v 10.98 4.207 9.0
usemtl color_009
f 73 74 75 76
f 73 74 77 78
f 74 75 79 77
f 75 76 80 79
f 76 73 78 80
f 78 77 79 80
g n6
v 10.98 9.82 6.0
v 14.64 9.82 6.0
v 14.64 7.82 6.0
v 10.98 7.82 6.0
v 14.64 9.82 9.0
v 10.98 9.82 9.0
v 14.64 7.82 9.0
v 10.98 7.82 9.0
usemtl color_010
f 81 82 83 84
f 81 82 85 86
f 82 83 87 85
f 83 84 88 87
f 84 81 86 88
f 86 85 87 88
g n7
v 12.81 4.207 6.0
v 14.64 4.207 6.0
v 14.64 1.4 6.0
v 12.81 1.4 6.0
v 14.64 4.207 9.0
v 12.81 4.207 9.0
v 14.64 1.4 9.0
v 12.81 1.4 9.0
usemtl color_011
f 89 90 91 92
f 89 90 93 94
f 90 91 95 93
f 91 92 96 95
f 92 89 94 96
f 94 93 95 96
g n8
v 12.73 3.253 6.0
v 12.89 3.253 6.0
v 12.89 2.353 6.0
v 12.73 2.353 6.0
v 12.89 3.253 8.1
v 12.73 3.253 8.1
v 12.89 2.353 8.1
v 12.73 2.353 8.1
usemtl color_012
f 97 98 99 100
f 97 98 101 102
f 98 99 103 101
f 99 100 104 103
f 100 97 102 104
f 102 101 103 104
g n9
v 11.445 1.48 6.0
v 12.345 1.48 6.0
v 12.345 1.32 6.0
v 11.445 1.32 6.0
v 12.345 1.48 8.1
v 11.445 1.48 8.1
v 12.345 1.32 8.1
v 11.445 1.32 8.1
usemtl color_013
f 105 106 107 108
f 105 106 109 110
f 106 107 111 109
f 107 108 112 111
f 108 105 110 112
f 110 109 111 112
g n10
v 12.21 6.613 8.94
v 13.41 6.613 8.94
v 13.41 5.413 8.94
v 12.21 5.413 8.94
v 13.41 6.613 9.06
v 12.21 6.613 9.06
v 13.41 5.413 9.06
v 12.21 5.413 9.06
usemtl color_014
f 113 114 115 116
f 113 114 117 118
f 114 115 119 117
f 115 116 120 119
f 116 113 118 120
f 118 117 119 120
g n11
v 14.64 4.207 6.0
v 16.47 4.207 6.0
v 16.47 1.4 6.0
v 14.64 1.4 6.0
v 16.47 4.207 9.0
v 14.64 4.207 9.0
v 16.47 1.4 9.0
v 14.64 1.4 9.0
usemtl color_015
f 121 122 123 124
f 121 122 125 126
f 122 123 127 125
f 123 124 128 127
f 124 121 126 128
f 126 125 127 128
g n12
v 14.64 7.82 6.0
v 18.3 7.82 6.0
v 18.3 4.207 6.0
v 14.64 4.207 6.0
v 18.3 7.82 9.0
v 14.64 7.82 9.0
v 18.3 4.207 9.0
v 14.64 4.207 9.0
usemtl color_016
f 129 130 131 132
f 129 130 133 134
f 130 131 135 133
f 131 132 136 135
f 132 129 134 136
f 134 133 135 136
g n13
v 14.64 9.82 6.0
v 18.3 9.82 6.0
v 18.3 7.82 6.0
v 14.64 7.82 6.0
v 18.3 9.82 9.0
v 14.64 9.82 9.0
v 18.3 7.82 9.0
v 14.64 7.82 9.0
usemtl color_017
f 137 138 139 140
f 137 138 141 142
f 138 139 143 141
f 139 140 144 143
f 140 137 142 144
f 142 141 143 144
g n14
v 16.47 4.207 6.0
v 18.3 4.207 6.0
v 18.3 1.4 6.0
v 16.47 1.4 6.0
v 18.3 4.207 9.0
v 16.47 4.207 9.0
v 18.3 1.4 9.0
v 16.47 1.4 9.0
usemtl color_018
f 145 146 147 148
f 145 146 149 150
f 146 147 151 149
f 147 148 152 151
f 148 145 150 152
f 150 149 151 152
g n15
v 16.39 3.253 6.0
v 16.55 3.253 6.0
v 16.55 2.353 6.0
v 16.39 2.353 6.0
v 16.55 3.253 8.1
v 16.39 3.253 8.1
v 16.55 2.353 8.1
v 16.39 2.353 8.1
usemtl color_019
f 153 154 155 156
f 153 154 157 158
f 154 155 159 157
f 155 156 160 159
f 156 153 158 160
f 158 157 159 160
g n16
v 15.105 1.48 6.0
v 16.005 1.48 6.0
v 16.005 1.32 6.0
v 15.105 1.32 6.0
v 16.005 1.48 8.1
v 15.105 1.48 8.1
v 16.005 1.32 8.1
v 15.105 1.32 8.1
usemtl color_020
f 161 162 163 164
f 161 162 165 166
f 162 163 167 165
f 163 164 168 167
f 164 161 166 168
f 166 165 167 168
g n17
v 15.87 6.613 8.94
v 17.07 6.613 8.94
v 17.07 5.413 8.94
v 15.87 5.413 8.94
v 17.07 6.613 9.06
v 15.87 6.613 9.06
v 17.07 5.413 9.06
v 15.87 5.413 9.06
usemtl color_021
f 169 170 171 172
f 169 170 173 174
f 170 171 175 173
f 171 172 176 175
f 172 169 174 176
f 174 173 175 176
g n18
v 9.15 8.82 6.0
v 10.98 8.82 6.0
v 10.98 1.4 6.0
v 9.15 1.4 6.0
v 10.98 8.82 11.0
v 9.15 8.82 11.0
v 10.98 1.4 11.0
v 9.15 1.4 11.0
usemtl color_022
f 177 178 179 180
f 177 178 181 182
f 178 179 183 181
f 179 180 184 183
f 180 177 182 184
f 182 181 183 184
g n19
v 7.32 8.82 11.0
v 10.98 8.82 11.0
v 10.98 7.12 11.0
v 7.32 7.12 11.0
v 10.98 8.82 14.0
v 7.32 8.82 14.0
v 10.98 7.12 14.0
v 7.32 7.12 14.0
usemtl color_023
f 185 186 187 188
f 185 186 189 190
f 186 187 191 189
f 187 188 192 191
f 188 185 190 192
f 190 189 191 192
g n20
v 7.32 9.82 6.0
v 10.98 9.82 6.0
v 10.98 8.82 6.0
v 7.32 8.82 6.0
v 10.98 9.82 14.0
v 7.32 9.82 14.0
v 10.98 8.82 14.0
v 7.32 8.82 14.0
usemtl color_024
f 193 194 195 196
f 193 194 197 198
f 194 195 199 197
f 195 196 200 199
f 196 193 198 200
f 198 197 199 200
g n21
v 7.32 7.12 11.0
v 10.98 7.12 11.0
v 10.98 1.4 11.0
v 7.32 1.4 11.0
v 10.98 7.12 14.0
v 7.32 7.12 14.0
v 10.98 1.4 14.0
v 7.32 1.4 14.0
usemtl color_025
f 201 202 203 204
f 201 202 205 206
f 202 203 207 205
f 203 204 208 207
f 204 201 206 208
f 206 205 207 208
g n22
v 7.32 6.965 6.0
v 9.15 6.965 6.0
v 9.15 5.11 6.0
v 7.32 5.11 6.0
v 9.15 6.965 11.0
v 7.32 6.965 11.0
v 9.15 5.11 11.0
v 7.32 5.11 11.0
usemtl color_026
f 209 210 211 212
f 209 210 213 214
f 210 211 215 213
f 211 212 216 215
f 212 209 214 216
f 214 213 215 216
g n23
v 7.32 3.255 6.0
v 9.15 3.255 6.0
v 9.15 1.4 6.0
v 7.32 1.4 6.0
v 9.15 3.255 11.0
v 7.32 3.255 11.0
v 9.15 1.4 11.0
v 7.32 1.4 11.0
usemtl color_027
f 217 218 219 220
f 217 218 221 222
f 218 219 223 221
f 219 220 224 223
f 220 217 222 224
f 222 221 223 224
g n24
v 7.32 5.11 6.0
v 9.15 5.11 6.0
v 9.15 3.255 6.0
v 7.32 3.255 6.0
v 9.15 5.11 11.0
v 7.32 5.11 11.0
v 9.15 3.255 11.0
v 7.32 3.255 11.0
usemtl color_028
f 225 226 227 228
f 225 226 229 230
f 226 227 231 229
f 227 228 232 231
f 228 225 230 232
f 230 229 231 232
g n25
v 7.32 8.82 6.0
v 9.15 8.82 6.0
v 9.15 6.965 6.0
v 7.32 6.965 6.0
v 9.15 8.82 11.0
v 7.32 8.82 11.0
v 9.15 6.965 11.0
v 7.32 6.965 11.0
usemtl color_029
f 233 234 235 236
f 233 234 237 238
f 234 235 239 237
f 235 236 240 239
f 236 233 238 240
f 238 237 239 240
g n26
v 9.07 2.777 6.0
v 9.23 2.777 6.0
v 9.23 1.877 6.0
v 9.07 1.877 6.0
v 9.23 2.777 8.1
v 9.07 2.777 8.1
v 9.23 1.877 8.1
v 9.07 1.877 8.1
usemtl color_030
f 241 242 243 244
f 241 242 245 246
f 242 243 247 245
f 243 244 248 247
f 244 241 246 248
f 246 245 247 248
g n27
v 9.07 4.632 6.0
v 9.23 4.632 6.0
v 9.23 3.732 6.0
v 9.07 3.732 6.0
v 9.23 4.632 8.1
v 9.07 4.632 8.1
v 9.23 3.732 8.1
v 9.07 3.732 8.1
usemtl color_031
f 249 250 251 252
f 249 250 253 254
f 250 251 255 253
f 251 252 256 255
f 252 249 254 256
f 254 253 255 256
g n28
v 9.615 1.48 6.0
v 10.515 1.48 6.0
v 10.515 1.32 6.0
v 9.615 1.32 6.0
v 10.515 1.48 8.1
v 9.615 1.48 8.1
v 10.515 1.32 8.1
v 9.615 1.32 8.1
usemtl color_032
f 257 258 259 260
f 257 258 261 262
f 258 259 263 261
f 259 260 264 263
f 260 257 262 264
f 262 261 263 264
g n29
v 10.92 5.71 6.9
v 11.04 5.71 6.9
v 11.04 4.51 6.9
v 10.92 4.51 6.9
v 11.04 5.71 8.3
v 10.92 5.71 8.3
v 11.04 4.51 8.3
v 10.92 4.51 8.3
usemtl color_033
f 265 266 267 268
f 265 266 269 270
f 266 267 271 269
f 267 268 272 271
f 268 265 270 272
f 270 269 271 272
g n30
v 8.55 8.57 13.94
v 9.75 8.57 13.94
v 9.75 7.37 13.94
v 8.55 7.37 13.94
v 9.75 8.57 14.06
v 8.55 8.57 14.06
v 9.75 7.37 14.06
v 8.55 7.37 14.06
usemtl color_034
f 273 274 275 276
f 273 274 277 278
f 274 275 279 277
f 275 276 280 279
f 276 273 278 280
f 278 277 279 280
g n31
v 7.32 -1.4 6.0
v 9.98 -1.4 6.0
v 9.98 -2.6 6.0
v 7.32 -2.6 6.0
v 9.98 -1.4 9.0
v 7.32 -1.4 9.0
v 9.98 -2.6 9.0
v 7.32 -2.6 9.0
usemtl color_035
f 281 282 283 284
f 281 282 285 286
f 282 283 287 285
f 283 284 288 287
f 284 281 286 288
f 286 285 287 288
g n32
v 8.65 -1.4 3.0
v 9.98 -1.4 3.0
v 9.98 -8.32 3.0
v 8.65 -8.32 3.0
v 9.98 -1.4 6.0
v 8.65 -1.4 6.0
v 9.98 -8.32 6.0
v 8.65 -8.32 6.0
usemtl color_036
f 289 290 291 292
f 289 290 293 294
f 290 291 295 293
f 291 292 296 295
f 292 289 294 296
f 294 293 295 296
g n33
v 9.98 -1.4 3.0
v 10.98 -1.4 3.0
v 10.98 -9.82 3.0
v 9.98 -9.82 3.0
v 10.98 -1.4 9.0
v 9.98 -1.4 9.0
v 10.98 -9.82 9.0
v 9.98 -9.82 9.0
usemtl color_037
f 297 298 299 300
f 297 298 301 302
f 298 299 303 301
f 299 300 304 303
f 300 297 302 304
f 302 301 303 304
g n34
v 7.32 -2.6 6.0
v 8.65 -2.6 6.0
v 8.65 -9.82 6.0
v 7.32 -9.82 6.0
v 8.65 -2.6 9.0
v 7.32 -2.6 9.0
v 8.65 -9.82 9.0
v 7.32 -9.82 9.0
usemtl color_038
f 305 306 307 308
f 305 306 309 310
f 306 307 311 309
f 307 308 312 311
f 308 305 310 312
f 310 309 311 312
g n35
v 8.65 -2.6 6.0
v 9.98 -2.6 6.0
v 9.98 -9.82 6.0
v 8.65 -9.82 6.0
v 9.98 -2.6 9.0
v 8.65 -2.6 9.0
v 9.98 -9.82 9.0
v 8.65 -9.82 9.0
usemtl color_039
f 313 314 315 316
f 313 314 317 318
f 314 315 319 317
f 315 316 320 319
f 316 313 318 320
f 318 317 319 320
g n36
v 7.32 -1.4 3.0
v 8.65 -1.4 3.0
v 8.65 -8.32 3.0
v 7.32 -8.32 3.0
v 8.65 -1.4 6.0
v 7.32 -1.4 6.0
v 8.65 -8.32 6.0
v 7.32 -8.32 6.0
usemtl color_040
f 321 322 323 324
f 321 322 325 326
f 322 323 327 325
f 323 324 328 327
f 324 321 326 328
f 326 325 327 328
g n37
v 7.32 -8.32 3.0
v 9.98 -8.32 3.0
v 9.98 -9.82 3.0
v 7.32 -9.82 3.0
v 9.98 -8.32 6.0
v 7.32 -8.32 6.0
v 9.98 -9.82 6.0
v 7.32 -9.82 6.0
usemtl color_041
f 329 330 331 332
f 329 330 333 334
f 330 331 335 333
f 331 332 336 335
f 332 329 334 336
f 334 333 335 336
g n38
v 8.865 -2.52 6.0
v 9.765 -2.52 6.0
v 9.765 -2.68 6.0
v 8.865 -2.68 6.0
v 9.765 -2.52 8.1
v 8.865 -2.52 8.1
v 9.765 -2.68 8.1
v 8.865 -2.68 8.1
usemtl color_042
f 337 338 339 340
f 337 338 341 342
f 338 339 343 341
f 339 340 344 343
f 340 337 342 344
f 342 341 343 344
g n39
v 8.2 -1.32 6.0
v 9.1 -1.32 6.0
v 9.1 -1.48 6.0
v 8.2 -1.48 6.0
v 9.1 -1.32 8.1
v 8.2 -1.32 8.1
v 9.1 -1.48 8.1
v 8.2 -1.48 8.1
usemtl color_043
f 345 346 347 348
f 345 346 349 350
f 346 347 351 349
f 347 348 352 351
f 348 345 350 352
f 350 349 351 352
g n40
v 8.715 -1.34 3.9
v 9.915 -1.34 3.9
v 9.915 -1.46 3.9
v 8.715 -1.46 3.9
v 9.915 -1.34 5.3
v 8.715 -1.34 5.3
v 9.915 -1.46 5.3
v 8.715 -1.46 5.3
usemtl color_044
f 353 354 355 356
f 353 354 357 358
f 354 355 359 357
f 355 356 360 359
f 356 353 358 360
f 358 357 359 360
g n41
v 7.385 -1.34 3.9
v 8.585 -1.34 3.9
v 8.585 -1.46 3.9
v 7.385 -1.46 3.9
v 8.585 -1.34 5.3
v 7.385 -1.34 5.3
v 8.585 -1.46 5.3
v 7.385 -1.46 5.3
usemtl color_045
f 361 362 363 364
f 361 362 365 366
f 362 363 367 365
f 363 364 368 367
f 364 361 366 368
f 366 365 367 368
g n42
v 4.66 -1.4 6.0
v 7.32 -1.4 6.0
v 7.32 -2.6 6.0
v 4.66 -2.6 6.0
v 7.32 -1.4 9.0
v 4.66 -1.4 9.0
v 7.32 -2.6 9.0
v 4.66 -2.6 9.0
usemtl color_046
f 369 370 371 372
f 369 370 373 374
f 370 371 375 373
f 371 372 376 375
f 372 369 374 376
f 374 373 375 376
g n43
v 4.66 -1.4 3.0
v 7.32 -1.4 3.0
v 7.32 -8.32 3.0
v 4.66 -8.32 3.0
v 7.32 -1.4 6.0
v 4.66 -1.4 6.0
v 7.32 -8.32 6.0
v 4.66 -8.32 6.0
usemtl color_047
f 377 378 379 380
f 377 378 381 382
f 378 379 383 381
f 379 380 384 383
f 380 377 382 384
f 382 381 383 384
g n44
v 3.66 -1.4 3.0
v 4.66 -1.4 3.0
v 4.66 -9.82 3.0
v 3.66 -9.82 3.0
v 4.66 -1.4 9.0
v 3.66 -1.4 9.0
v 4.66 -9.82 9.0
v 3.66 -9.82 9.0
usemtl color_048
f 385 386 387 388
f 385 386 389 390
f 386 387 391 389
f 387 388 392 391
f 388 385 390 392
f 390 389 391 392
g n45
v 4.66 -2.6 6.0
v 5.547 -2.6 6.0
v 5.547 -9.82 6.0
v 4.66 -9.82 6.0
v 5.547 -2.6 9.0
v 4.66 -2.6 9.0
v 5.547 -9.82 9.0
v 4.66 -9.82 9.0
usemtl color_049
f 393 394 395 396
f 393 394 397 398
f 394 395 399 397
f 395 396 400 399
f 396 393 398 400
f 398 397 399 400
g n46
v 5.547 -2.6 6.0
v 6.434 -2.6 6.0
v 6.434 -9.82 6.0
v 5.547 -9.82 6.0
v 6.434 -2.6 9.0
v 5.547 -2.6 9.0
v 6.434 -9.82 9.0
v 5.547 -9.82 9.0
usemtl color_050
f 401 402 403 404
f 401 402 405 406
f 402 403 407 405
f 403 404 408 407
f 404 401 406 408
f 406 405 407 408
g n47
v 4.66 -8.32 3.0
v 7.32 -8.32 3.0
v 7.32 -9.82 3.0
v 4.66 -9.82 3.0
v 7.32 -8.32 6.0
v 4.66 -8.32 6.0
v 7.32 -9.82 6.0
v 4.66 -9.82 6.0
usemtl color_051
f 409 410 411 412
f 409 410 413 414
f 410 411 415 413
f 411 412 416 415
f 412 409 414 416
f 414 413 415 416
g n48
v 6.433 -2.6 6.0
v 7.32 -2.6 6.0
v 7.32 -9.82 6.0
v 6.433 -9.82 6.0
v 7.32 -2.6 9.0
v 6.433 -2.6 9.0
v 7.32 -9.82 9.0
v 6.433 -9.82 9.0
usemtl color_052
f 417 418 419 420
f 417 418 421 422
f 418 419 423 421
f 419 420 424 423
f 420 417 422 424
f 422 421 423 424
g n49
v 5.547 -2.52 6.0
v 6.434 -2.52 6.0
v 6.434 -2.68 6.0
v 5.547 -2.68 6.0
v 6.434 -2.52 8.1
v 5.547 -2.52 8.1
v 6.434 -2.68 8.1
v 5.547 -2.68 8.1
usemtl color_053
f 425 426 427 428
f 425 426 429 430
f 426 427 431 429
f 427 428 432 431
f 428 425 430 432
f 430 429 431 432
g n50
v 5.54 -1.32 6.0
v 6.44 -1.32 6.0
v 6.44 -1.48 6.0
v 5.54 -1.48 6.0
v 6.44 -1.32 8.1
v 5.54 -1.32 8.1
v 6.44 -1.48 8.1
v 5.54 -1.48 8.1
usemtl color_054
f 433 434 435 436
f 433 434 437 438
f 434 435 439 437
f 435 436 440 439
f 436 433 438 440
f 438 437 439 440
g n51
v 5.39 -1.34 3.9
v 6.59 -1.34 3.9
v 6.59 -1.46 3.9
v 5.39 -1.46 3.9
v 6.59 -1.34 5.3
v 5.39 -1.34 5.3
v 6.59 -1.46 5.3
v 5.39 -1.46 5.3
usemtl color_055
f 441 442 443 444
f 441 442 445 446
f 442 443 447 445
f 443 444 448 447
f 444 441 446 448
f 446 445 447 448
g n52
v 0.0 8.82 6.0
v 1.83 8.82 6.0
v 1.83 1.4 6.0
v 0.0 1.4 6.0
v 1.83 8.82 11.0
v 0.0 8.82 11.0
v 1.83 1.4 11.0
v 0.0 1.4 11.0
usemtl color_056
f 449 450 451 452
f 449 450 453 454
f 450 451 455 453
f 451 452 456 455
f 452 449 454 456
f 454 453 455 456
g n53
v 0.0 8.82 11.0
v 1.86 8.82 11.0
v 1.86 7.12 11.0
v 0.0 7.12 11.0
v 1.86 8.82 14.0
v 0.0 8.82 14.0
v 1.86 7.12 14.0
v 0.0 7.12 14.0
usemtl color_057
f 457 458 459 460
f 457 458 461 462
f 458 459 463 461
f 459 460 464 463
f 460 457 462 464
f 462 461 463 464
g n54
v 0.0 9.82 6.0
v 3.66 9.82 6.0
v 3.66 8.82 6.0
v 0.0 8.82 6.0
v 3.66 9.82 14.0
v 0.0 9.82 14.0
v 3.66 8.82 14.0
v 0.0 8.82 14.0
usemtl color_058
f 465 466 467 468
f 465 466 469 470
f 466 467 471 469
f 467 468 472 471
f 468 465 470 472
f 470 469 471 472
g n55
v 0.0 7.12 11.0
v 3.66 7.12 11.0
v 3.66 1.4 11.0
v 0.0 1.4 11.0
v 3.66 7.12 14.0
v 0.0 7.12 14.0
v 3.66 1.4 14.0
v 0.0 1.4 14.0
usemtl color_059
f 473 474 475 476
f 473 474 477 478
f 474 475 479 477
f 475 476 480 479
f 476 473 478 480
f 478 477 479 480
g n56
v 1.83 8.82 6.0
v 3.66 8.82 6.0
v 3.66 1.4 6.0
v 1.83 1.4 6.0
v 3.66 8.82 11.0
v 1.83 8.82 11.0
v 3.66 1.4 11.0
v 1.83 1.4 11.0
usemtl color_060
f 481 482 483 484
f 481 482 485 486
f 482 483 487 485
f 483 484 488 487
f 484 481 486 488
f 486 485 487 488
g n57
v 1.86 8.82 11.0
v 3.66 8.82 11.0
v 3.66 7.12 11.0
v 1.86 7.12 11.0
v 3.66 8.82 14.0
v 1.86 8.82 14.0
v 3.66 7.12 14.0
v 1.86 7.12 14.0
usemtl color_061
f 489 490 491 492
f 489 490 493 494
f 490 491 495 493
f 491 492 496 495
f 492 489 494 496
f 494 493 495 496
g n58
v 1.78 8.42 11.0
v 1.94 8.42 11.0
v 1.94 7.52 11.0
v 1.78 7.52 11.0
v 1.94 8.42 13.1
v 1.78 8.42 13.1
v 1.94 7.52 13.1
v 1.78 7.52 13.1
usemtl color_062
f 497 498 499 500
f 497 498 501 502
f 498 499 503 501
f 499 500 504 503
f 500 497 502 504
f 502 501 503 504
g n59
v 0.465 1.48 6.0
v 1.365 1.48 6.0
v 1.365 1.32 6.0
v 0.465 1.32 6.0
v 1.365 1.48 8.1
v 0.465 1.48 8.1
v 1.365 1.32 8.1
v 0.465 1.32 8.1
usemtl color_063
f 505 506 507 508
f 505 506 509 510
f 506 507 511 509
f 507 508 512 511
f 508 505 510 512
f 510 509 511 512
g n60
v -0.06 5.71 6.9
v 0.06 5.71 6.9
v 0.06 4.51 6.9
v -0.06 4.51 6.9
v 0.06 5.71 8.3
v -0.06 5.71 8.3
v 0.06 4.51 8.3
v -0.06 4.51 8.3
usemtl color_064
f 513 514 515 516
f 513 514 517 518
f 514 515 519 517
f 515 516 520 519
f 516 513 518 520
f 518 517 519 520
g n61
v 0.33 8.57 13.94
v 1.53 8.57 13.94
v 1.53 7.37 13.94
v 0.33 7.37 13.94
v 1.53 8.57 14.06
v 0.33 8.57 14.06
v 1.53 7.37 14.06
v 0.33 7.37 14.06
usemtl color_065
f 521 522 523 524
f 521 522 525 526
f 522 523 527 525
f 523 524 528 527
f 524 521 526 528
f 526 525 527 528